nimbus-sans-l_bold-italic.sfdir

StartChar: exclam
Encoding: 33 33 1
Width: 333
Flags: MW
HStem: 0 146<143 262 112 293>
LayerCount: 2
Fore
SplineSet
417 726 m 1
 372 516 l 1
 265 207 l 1
 198 207 l 1
 222 516 l 1
 267 726 l 1
 417 726 l 1
293 146 m 1
 262 0 l 1
 112 0 l 1
 143 146 l 1
 293 146 l 1
EndSplineSet
EndChar

StartChar: quotedbl
Encoding: 34 34 2
Width: 474
Flags: MW
HStem: 470 259<205 246 190 343 205 426 441 482>
LayerCount: 2
Fore
SplineSet
343 729 m 1
 315 599 l 1
 246 470 l 1
 190 470 l 1
 177 599 l 1
 205 729 l 1
 343 729 l 1
579 729 m 1
 551 599 l 1
 482 470 l 1
 426 470 l 1
 413 599 l 1
 441 729 l 1
 579 729 l 1
EndSplineSet
EndChar

StartChar: numbersign
Encoding: 35 35 3
Width: 556
Flags: MW
HStem: 172 100<60 116 39 157 60 222 262 324 471 549> 424 100<142 219 120 260 142 325 365 427 573 639>
LayerCount: 2
Fore
SplineSet
138 -32 m 1
 33 -32 l 1
 116 172 l 1
 39 172 l 1
 60 272 l 1
 157 272 l 1
 219 424 l 1
 120 424 l 1
 142 524 l 1
 260 524 l 1
 331 697 l 1
 437 697 l 1
 365 524 l 1
 468 524 l 1
 539 697 l 1
 645 697 l 1
 573 524 l 1
 660 524 l 1
 639 424 l 1
 533 424 l 1
 471 272 l 1
 570 272 l 1
 549 172 l 1
 430 172 l 1
 346 -32 l 1
 241 -32 l 1
 324 172 l 1
 222 172 l 1
 138 -32 l 1
262 272 m 1
 365 272 l 1
 427 424 l 1
 325 424 l 1
 262 272 l 1
EndSplineSet
EndChar

StartChar: dollar
Encoding: 36 36 4
Width: 556
Flags: W
VStem: 59 137<148.5 157> 142 130<484.5 515.5> 430 143<193 218> 498 130<539.5 557>
LayerCount: 2
Fore
SplineSet
623 498 m 1x50
 495 498 l 1
 497 517 498 526 498 538 c 0x50
 498 576 476 602 440 608 c 1
 397 407 l 1
 452 390 486 374 514 353 c 0
 552 324 573 283 573 237 c 0
 573 149 521 61 445 19 c 0
 406 -2 362 -15 306 -21 c 1
 284 -126 l 1
 216 -126 l 1
 239 -21 l 1
 123 -9 59 51 59 148 c 0
 59 166 61 182 67 207 c 1
 197 207 l 1
 196 188 196 181 196 174 c 0xa0
 196 123 217 95 261 86 c 1
 307 299 l 1
 196 327 142 384 142 475 c 0
 142 556 191 634 269 674 c 0
 307 694 342 704 394 709 c 1
 405 763 l 1
 473 763 l 1
 461 709 l 1
 517 704 551 692 578 669 c 0
 610 641 628 597 628 547 c 0
 628 532 627 520 623 498 c 1x50
334 427 m 1
 372 608 l 1
 346 603 333 599 319 589 c 0
 291 570 272 535 272 501 c 0
 272 468 293 443 334 427 c 1
371 282 m 1x20
 329 86 l 1
 393 101 430 142 430 198 c 0
 430 238 410 266 371 282 c 1x20
EndSplineSet
EndChar

StartChar: percent
Encoding: 37 37 5
Width: 889
Flags: W
HStem: -20 98<679.5 727 679.5 737> 246 98<702.5 750> 337 98<281.5 329 281.5 339> 603 98<304.5 352>
VStem: 129 100<482.5 527.5 482.5 538.5> 405 100<509.5 555> 527 100<125.5 170.5 125.5 181.5> 803 100<152.5 198>
LayerCount: 2
Fore
SplineSet
756 709 m 1x3f
 833 709 l 1
 282 -20 l 1
 206 -20 l 1
 756 709 l 1x3f
352 701 m 0
 441 701 505 640 505 557 c 0
 505 442 398 337 280 337 c 0
 194 337 129 399 129 482 c 0
 129 595 237 701 352 701 c 0
331 603 m 0
 278 603 229 554 229 501 c 0
 229 464 261 435 302 435 c 0
 356 435 405 483 405 536 c 0
 405 574 373 603 331 603 c 0
750 344 m 0xcf
 839 344 903 283 903 200 c 0
 903 85 796 -20 678 -20 c 0
 592 -20 527 42 527 125 c 0
 527 238 635 344 750 344 c 0xcf
729 246 m 0
 676 246 627 197 627 144 c 0
 627 107 659 78 700 78 c 0
 754 78 803 126 803 179 c 0
 803 217 771 246 729 246 c 0
EndSplineSet
EndChar

StartChar: ampersand
Encoding: 38 38 6
Width: 722
Flags: MW
HStem: -23 116<290.5 325.5> 615 108<429 464>
VStem: 89 137<161 193.5> 246 137<543 570.5 543 576.5> 499 125<582.5 586.5>
LayerCount: 2
Fore
SplineSet
607 373 m 1
 720 373 l 1
 709 300 661 213 602 160 c 1
 696 0 l 1
 536 0 l 1
 499 60 l 1
 407 -6 364 -23 287 -23 c 0
 163 -23 89 44 89 156 c 0
 89 231 126 297 195 344 c 0
 226 366 249 378 299 401 c 1
 263 452 246 492 246 523 c 0
 246 630 351 723 471 723 c 0
 562 723 624 676 624 605 c 0
 624 560 603 508 571 471 c 0
 549 446 519 424 465 392 c 1
 547 255 l 1
 581 286 596 316 607 373 c 1
347 319 m 1
 295 290 l 2
 246 262 226 233 226 187 c 0
 226 135 266 93 315 93 c 0
 349 93 380 107 446 152 c 1
 347 319 l 1
419 470 m 1
 471 497 499 533 499 574 c 0
 499 599 480 615 448 615 c 0
 410 615 383 589 383 552 c 0
 383 534 388 524 419 470 c 1
EndSplineSet
EndChar

StartChar: quotesingle
Encoding: 169 39 103
Width: 238
Flags: MW
HStem: 470 259<205 245 190 343>
LayerCount: 2
Fore
SplineSet
343 729 m 1
 315 599 l 1
 245 470 l 1
 190 470 l 1
 177 599 l 1
 205 729 l 1
 343 729 l 1
EndSplineSet
EndChar

StartChar: parenleft
Encoding: 40 40 8
Width: 333
Flags: MW
HStem: 709 20<358 458 458 458>
VStem: 84 119<73.5 178.5 66 223>
LayerCount: 2
Fore
SplineSet
358 729 m 1
 458 729 l 1
 387 632 351 577 315 513 c 0
 240 377 203 245 203 112 c 0
 203 20 217 -56 261 -200 c 1
 161 -200 l 1
 110 -83 84 25 84 122 c 0
 84 324 168 510 358 729 c 1
EndSplineSet
EndChar

StartChar: parenright
Encoding: 41 41 9
Width: 333
Flags: MW
HStem: 709 20<176 276 276 276>
VStem: 237 119<350 455 337 462.5>
LayerCount: 2
Fore
SplineSet
79 -200 m 1
 -21 -200 l 1
 56 -96 88 -48 124 16 c 0
 200 152 237 284 237 416 c 0
 237 509 223 582 176 729 c 1
 276 729 l 1
 331 608 356 504 356 406 c 0
 356 268 310 123 226 -9 c 0
 190 -64 136 -135 79 -200 c 1
EndSplineSet
EndChar

StartChar: asterisk
Encoding: 42 42 10
Width: 389
Flags: MW
HStem: 709 20<307 379 379 379>
LayerCount: 2
Fore
SplineSet
246 544 m 1
 145 580 l 1
 182 649 l 1
 283 613 l 1
 307 729 l 1
 379 729 l 1
 354 613 l 1
 471 649 l 1
 478 579 l 1
 362 544 l 1
 409 450 l 1
 342 407 l 1
 295 501 l 1
 208 407 l 1
 159 450 l 1
 246 544 l 1
EndSplineSet
EndChar

StartChar: plus
Encoding: 43 43 11
Width: 584
Flags: MW
HStem: -10 20 172 120<112 269 87 294 413 571 112 388>
LayerCount: 2
Fore
SplineSet
596 292 m 1
 571 172 l 1
 388 172 l 1
 349 -10 l 1
 230 -10 l 1
 269 172 l 1
 87 172 l 1
 112 292 l 1
 294 292 l 1
 333 473 l 1
 452 473 l 1
 413 292 l 1
 596 292 l 1
EndSplineSet
EndChar

StartChar: comma
Encoding: 44 44 12
Width: 278
Flags: MW
HStem: 0 146<95 150 64 245>
LayerCount: 2
Fore
SplineSet
95 146 m 1
 245 146 l 1
 216 9 l 1
 197 -101 137 -158 27 -174 c 1
 39 -118 l 1
 101 -107 137 -68 150 0 c 1
 64 0 l 1
 95 146 l 1
EndSplineSet
EndChar

StartChar: hyphen
Encoding: 45 45 13
Width: 333
Flags: MW
HStem: 207 135<99 342 70 371>
LayerCount: 2
Fore
SplineSet
371 342 m 1
 342 207 l 1
 70 207 l 1
 99 342 l 1
 371 342 l 1
EndSplineSet
EndChar

StartChar: period
Encoding: 46 46 14
Width: 278
Flags: MW
HStem: 0 146<95 214 64 245>
LayerCount: 2
Fore
SplineSet
245 146 m 1
 214 0 l 1
 64 0 l 1
 95 146 l 1
 245 146 l 1
EndSplineSet
EndChar

StartChar: slash
Encoding: 47 47 15
Width: 278
Flags: MW
HStem: -14 20
LayerCount: 2
Fore
SplineSet
360 714 m 1
 427 714 l 1
 66 -14 l 1
 -1 -14 l 1
 360 714 l 1
EndSplineSet
EndChar

StartChar: zero
Encoding: 48 48 16
Width: 556
Flags: MW
HStem: -23 122<277 329> 612 112<376.5 417.5>
VStem: 81 143<157.5 226.5> 471 143<497 553.5>
LayerCount: 2
Fore
SplineSet
421 724 m 0
 541 724 614 649 614 526 c 0
 614 425 576 251 534 160 c 0
 479 41 387 -23 271 -23 c 0
 153 -23 81 53 81 176 c 0
 81 277 119 449 161 541 c 0
 216 659 308 724 421 724 c 0
394 612 m 0
 359 612 330 593 306 555 c 0
 273 502 224 280 224 183 c 0
 224 132 254 99 300 99 c 0
 359 99 393 138 421 237 c 0
 448 332 471 466 471 528 c 0
 471 579 441 612 394 612 c 0
EndSplineSet
EndChar

StartChar: one
Encoding: 49 49 17
Width: 556
Flags: MW
HStem: 0 20
LayerCount: 2
Fore
SplineSet
342 489 m 1
 172 489 l 1
 192 582 l 1
 314 582 396 625 436 709 c 1
 529 709 l 1
 378 0 l 1
 238 0 l 1
 342 489 l 1
EndSplineSet
EndChar

StartChar: two
Encoding: 50 50 18
Width: 556
Flags: MW
HStem: 0 125<238 512> 612 112<364.5 426>
VStem: 485 143<520.5 557>
LayerCount: 2
Fore
SplineSet
538 125 m 1
 512 0 l 1
 30 0 l 1
 65 132 114 194 253 277 c 1
 367 348 400 371 431 404 c 1
 465 438 485 486 485 532 c 0
 485 582 453 612 399 612 c 0
 330 612 285 559 272 462 c 1
 138 462 l 1
 164 630 266 724 421 724 c 0
 551 724 628 660 628 552 c 0
 628 489 605 428 563 378 c 0
 531 340 494 311 411 259 c 0
 292 184 263 162 238 125 c 1
 538 125 l 1
EndSplineSet
EndChar

StartChar: three
Encoding: 51 51 19
Width: 556
Flags: W
HStem: -23 122<271.5 321> 612 112<370.5 410.5>
VStem: 422 143<225 250.5> 465 148<533.5 562.5>
LayerCount: 2
Fore
SplineSet
284 317 m 1xe0
 304 411 l 1
 316 411 l 2
 406 411 465 463 465 542 c 0
 465 583 433 612 388 612 c 0
 348 612 315 593 296 561 c 0
 286 544 280 525 271 486 c 1
 142 486 l 1
 157 564 175 607 212 647 c 0
 258 697 328 724 413 724 c 0
 540 724 613 669 613 573 c 0xd0
 613 494 573 429 493 380 c 1
 542 350 565 311 565 257 c 0
 565 193 540 122 500 72 c 0
 449 10 370 -23 272 -23 c 0
 142 -23 67 41 67 151 c 0
 67 170 69 185 73 208 c 1
 209 208 l 1
 210 198 l 1
 210 176 l 1
 211 127 243 99 300 99 c 0
 367 99 422 159 422 230 c 0
 422 271 401 300 365 310 c 0
 342 316 333 317 284 317 c 1xe0
EndSplineSet
EndChar

StartChar: four
Encoding: 52 52 20
Width: 556
Flags: MW
HStem: 0 20 157 116<182 342 506 555>
LayerCount: 2
Fore
SplineSet
580 273 m 1
 555 157 l 1
 482 157 l 1
 448 0 l 1
 308 0 l 1
 342 157 l 1
 57 157 l 1
 82 275 l 1
 434 709 l 1
 599 709 l 1
 506 273 l 1
 580 273 l 1
366 273 m 1
 431 577 l 1
 182 273 l 1
 366 273 l 1
EndSplineSet
EndChar

StartChar: five
Encoding: 53 53 21
Width: 556
Flags: MW
HStem: -23 122<261.5 309.5> 367 112<318 450.5> 584 125<318 614 318 318>
VStem: 59 141<143.5 147.5> 429 143<265.5 305>
LayerCount: 2
Fore
SplineSet
641 709 m 1
 614 584 l 1
 318 584 l 1
 264 436 l 1
 311 467 349 479 396 479 c 0
 505 479 572 410 572 300 c 0
 572 231 548 158 506 101 c 0
 448 21 360 -23 259 -23 c 0
 139 -23 59 42 59 141 c 0
 59 154 60 165 64 185 c 1
 202 185 l 1
 201 176 200 168 200 163 c 0
 200 124 235 99 288 99 c 0
 369 99 429 175 429 276 c 0
 429 334 397 367 339 367 c 0
 297 367 260 348 238 314 c 1
 112 314 l 1
 258 709 l 1
 641 709 l 1
EndSplineSet
EndChar

StartChar: six
Encoding: 54 54 22
Width: 556
Flags: MW
HStem: -23 122<275.5 327> 355 112<315 461.5> 612 112<389.5 438>
VStem: 85 130<162 232> 434 143<264.5 294.5>
LayerCount: 2
Fore
SplineSet
624 548 m 1
 494 548 l 1
 485 594 462 612 414 612 c 0
 357 612 320 582 292 512 c 0
 279 480 277 473 260 411 c 1
 310 449 357 467 409 467 c 0
 514 467 577 404 577 300 c 0
 577 229 549 148 503 88 c 0
 450 17 370 -23 284 -23 c 0
 163 -23 85 53 85 171 c 0
 85 293 132 477 185 564 c 0
 250 670 336 724 443 724 c 0
 556 724 625 666 625 571 c 0
 625 566 625 557 624 548 c 1
352 355 m 0
 278 355 215 278 215 188 c 0
 215 136 250 99 301 99 c 0
 374 99 434 176 434 269 c 0
 434 320 401 355 352 355 c 0
EndSplineSet
EndChar

StartChar: seven
Encoding: 55 55 23
Width: 556
Flags: MW
HStem: 0 20 584 125<178 504 151 679>
LayerCount: 2
Fore
SplineSet
679 709 m 1
 656 599 l 1
 551 491 l 1
 404 328 326 191 273 0 c 1
 131 0 l 1
 211 242 309 396 504 584 c 1
 151 584 l 1
 178 709 l 1
 679 709 l 1
EndSplineSet
EndChar

StartChar: eight
Encoding: 56 56 24
Width: 556
Flags: W
HStem: -23 122<270 317.5> 330 95<337.5 369.5> 612 112<364.5 425.5>
VStem: 60 143<156.5 182.5> 156 122<477.5 531.5 477.5 557.5> 432 143<219 272.5> 490 130<546 561.5>
LayerCount: 2
Fore
SplineSet
491 386 m 1xea
 552 349 575 313 575 253 c 0
 575 185 542 110 489 59 c 0
 435 6 359 -23 276 -23 c 0
 143 -23 60 46 60 155 c 0xf4
 60 210 82 269 119 313 c 0
 145 343 171 361 221 386 c 1
 174 422 156 452 156 495 c 0
 156 620 277 724 422 724 c 0
 539 724 620 661 620 570 c 0
 620 522 598 473 560 436 c 1
 544 419 525 406 491 386 c 1xea
398 612 m 0
 331 612 278 563 278 500 c 0
 278 455 312 425 363 425 c 0
 433 425 490 476 490 540 c 0
 490 583 453 612 398 612 c 0
342 330 m 0xf4
 264 330 203 264 203 180 c 0
 203 133 243 99 297 99 c 0
 376 99 432 161 432 247 c 0
 432 298 397 330 342 330 c 0xf4
EndSplineSet
EndChar

StartChar: nine
Encoding: 57 57 25
Width: 556
Flags: W
HStem: -23 122<261.5 303> 228 116<312.5 317> 612 112<352 417>
VStem: 68 138<86 154.5> 120 137<404.5 481.5 404.5 492.5> 481 130<470.5 547.5>
LayerCount: 2
Fore
SplineSet
72 165 m 1xf4
 207 165 l 1
 206 160 206 156 206 153 c 0xf4
 206 121 238 99 285 99 c 0
 335 99 378 129 402 182 c 0
 414 210 425 243 436 291 c 1
 380 243 345 228 289 228 c 0
 185 228 120 295 120 403 c 0xe8
 120 582 249 724 413 724 c 0
 533 724 611 643 611 519 c 0
 611 398 568 241 507 135 c 0
 447 31 358 -23 248 -23 c 0
 141 -23 68 40 68 132 c 0
 68 142 69 149 72 165 c 1xf4
389 612 m 0
 315 612 257 532 257 431 c 0xe8
 257 378 288 344 337 344 c 0
 417 344 481 422 481 519 c 0
 481 576 445 612 389 612 c 0
EndSplineSet
EndChar

StartChar: colon
Encoding: 58 58 26
Width: 333
Flags: MW
HStem: 0 146<144 263 113 294> 374 146<224 343 193 374>
LayerCount: 2
Fore
SplineSet
294 146 m 1
 263 0 l 1
 113 0 l 1
 144 146 l 1
 294 146 l 1
374 520 m 1
 343 374 l 1
 193 374 l 1
 224 520 l 1
 374 520 l 1
EndSplineSet
EndChar

StartChar: semicolon
Encoding: 59 59 27
Width: 333
Flags: MW
HStem: 0 146<144 199 113 294> 374 146<224 343 193 374>
LayerCount: 2
Fore
SplineSet
144 146 m 1
 294 146 l 1
 265 9 l 1
 246 -101 186 -158 76 -174 c 1
 88 -118 l 1
 150 -107 186 -68 199 0 c 1
 113 0 l 1
 144 146 l 1
374 520 m 1
 343 374 l 1
 193 374 l 1
 224 520 l 1
 374 520 l 1
EndSplineSet
EndChar

StartChar: less
Encoding: 60 60 28
Width: 584
Flags: MW
HStem: -10 20
LayerCount: 2
Fore
SplineSet
630 474 m 1
 603 345 l 1
 263 232 l 1
 555 121 l 1
 527 -10 l 1
 77 172 l 1
 103 293 l 1
 630 474 l 1
EndSplineSet
EndChar

StartChar: equal
Encoding: 61 61 29
Width: 584
Flags: MW
HStem: 52 120<86 546 61 571> 292 120<137 597 112 622>
LayerCount: 2
Fore
SplineSet
622 412 m 1
 597 292 l 1
 112 292 l 1
 137 412 l 1
 622 412 l 1
571 172 m 1
 546 52 l 1
 61 52 l 1
 86 172 l 1
 571 172 l 1
EndSplineSet
EndChar

StartChar: greater
Encoding: 62 62 30
Width: 584
Flags: MW
HStem: -10 20
LayerCount: 2
Fore
SplineSet
38 -10 m 1
 65 119 l 1
 405 232 l 1
 113 343 l 1
 141 474 l 1
 591 292 l 1
 565 171 l 1
 38 -10 l 1
EndSplineSet
EndChar

StartChar: question
Encoding: 63 63 31
Width: 611
Flags: MW
HStem: 0 146<268 387 237 418> 620 124<414 464.5>
VStem: 529 143<539 558.5>
LayerCount: 2
Fore
SplineSet
414 201 m 1
 292 201 l 1
 299 277 338 333 432 399 c 0
 488 438 497 447 512 473 c 0
 523 492 529 513 529 533 c 0
 529 584 491 620 438 620 c 0
 370 620 321 569 304 481 c 1
 168 481 l 1
 187 565 209 614 248 657 c 0
 301 714 372 744 456 744 c 0
 520 744 574 729 609 700 c 1
 649 669 672 618 672 566 c 0
 672 512 652 452 621 413 c 1
 601 386 564 356 505 320 c 0
 437 278 428 267 414 201 c 1
418 146 m 1
 387 0 l 1
 237 0 l 1
 268 146 l 1
 418 146 l 1
EndSplineSet
EndChar

StartChar: at
Encoding: 64 64 32
Width: 975
Flags: W
HStem: -137 83<390 500.5> -13 20 53 83<448 465.5> 56 83<712.5 745 712.5 746> 662 83<588 693.5>
VStem: 73 100<138.5 241 123 246> 301 100<191.5 219> 939 93<394 450.5>
LayerCount: 2
Fore
SplineSet
750 508 m 1x27
 840 508 l 1
 704 228 l 2
 687 195 685 188 685 174 c 0
 685 153 701 139 724 139 c 0
 766 139 825 179 870 237 c 0
 913 293 939 363 939 425 c 0
 939 476 918 526 876 571 c 0
 817 634 746 662 641 662 c 0
 490 662 360 596 272 475 c 0
 210 389 173 286 173 196 c 0
 173 50 298 -54 476 -54 c 0
 539 -54 594 -43 688 -13 c 1
 700 -92 l 1
 624 -123 548 -137 453 -137 c 0
 327 -137 236 -107 168 -42 c 0
 107 15 73 96 73 181 c 0
 73 311 133 450 235 557 c 0
 349 677 506 745 670 745 c 0
 798 745 896 703 965 618 c 0
 1010 564 1032 504 1032 439 c 0
 1032 349 1002 264 944 193 c 0
 873 106 787 56 705 56 c 0xdf
 649 56 612 80 597 126 c 1
 548 78 493 53 438 53 c 0
 357 53 301 109 301 189 c 0
 301 249 335 324 391 390 c 0
 460 470 548 518 626 518 c 0
 676 518 703 499 723 449 c 1
 750 508 l 1x27
606 446 m 0x27
 520 451 401 317 401 215 c 0
 401 168 428 136 468 136 c 0
 513 136 565 169 608 227 c 0
 646 277 671 335 671 376 c 0
 671 416 645 444 606 446 c 0x27
EndSplineSet
EndChar

StartChar: B
Encoding: 66 66 34
Width: 722
Flags: W
HStem: 0 125<259 410> 314 125<325 477 299 489> 604 125<360 524 360 360>
VStem: 568 148<232.5 268.5> 613 149<536.5 563.5>
LayerCount: 2
Fore
SplineSet
82 0 m 1xf0
 237 729 l 1
 562 729 l 2
 636 729 686 712 721 676 c 0
 747 649 762 610 762 571 c 0xe8
 762 502 721 438 645 388 c 1
 696 348 716 310 716 255 c 0
 716 196 684 126 635 78 c 0
 579 24 510 0 410 0 c 2
 82 0 l 1xf0
325 439 m 1
 489 439 l 2
 541 439 563 446 585 471 c 0
 602 490 613 517 613 542 c 0
 613 585 586 604 524 604 c 2
 360 604 l 1
 325 439 l 1
259 125 m 1xf0
 437 125 l 2
 494 125 522 137 545 171 c 0
 559 192 568 220 568 245 c 0
 568 292 539 314 477 314 c 2
 299 314 l 1
 259 125 l 1xf0
EndSplineSet
EndChar

StartChar: C
Encoding: 67 67 35
Width: 722
Flags: MW
HStem: -23 128<354.5 451 354.5 473> 613 128<476 542.5>
VStem: 107 149<211.5 299.5>
LayerCount: 2
Fore
SplineSet
789 482 m 1
 648 482 l 1
 648 521 644 540 631 560 c 0
 610 594 569 613 516 613 c 0
 436 613 374 578 327 504 c 0
 282 434 256 346 256 264 c 0
 256 159 306 105 403 105 c 0
 499 105 570 157 599 249 c 1
 742 249 l 1
 698 78 564 -23 382 -23 c 0
 211 -23 107 75 107 235 c 0
 107 364 151 499 222 587 c 0
 303 688 410 741 533 741 c 0
 688 741 793 656 793 532 c 0
 793 521 792 510 789 482 c 1
EndSplineSet
EndChar

StartChar: D
Encoding: 68 68 36
Width: 722
Flags: MW
HStem: 0 125<254 362> 604 125<355 490 355 355>
VStem: 627 149<429.5 514.5>
LayerCount: 2
Fore
SplineSet
77 0 m 1
 232 729 l 1
 517 729 l 2
 698 729 776 654 776 479 c 0
 776 361 735 238 664 140 c 0
 591 39 507 0 362 0 c 2
 77 0 l 1
254 125 m 1
 388 125 l 2
 475 125 524 153 567 228 c 0
 601 287 627 390 627 469 c 0
 627 560 582 604 490 604 c 2
 355 604 l 1
 254 125 l 1
EndSplineSet
EndChar

StartChar: F
Encoding: 70 70 38
Width: 611
Flags: MW
HStem: 0 20 314 125<291 637 317 610> 604 125<352 714 352 352>
LayerCount: 2
Fore
SplineSet
291 314 m 1
 224 0 l 1
 74 0 l 1
 229 729 l 1
 741 729 l 1
 714 604 l 1
 352 604 l 1
 317 439 l 1
 637 439 l 1
 610 314 l 1
 291 314 l 1
EndSplineSet
EndChar

StartChar: G
Encoding: 71 71 39
Width: 778
Flags: MW
HStem: -23 128<377 441.5> 267 125<503 642 476 795> 613 128<485.5 566.5>
VStem: 107 149<232.5 319.5 232.5 320>
LayerCount: 2
Fore
SplineSet
795 392 m 1
 711 -2 l 1
 621 -2 l 1
 628 88 l 1
 554 9 488 -23 395 -23 c 0
 219 -23 107 88 107 262 c 0
 107 378 155 505 233 596 c 0
 315 691 424 741 547 741 c 0
 710 741 819 655 819 529 c 0
 819 521 818 510 817 496 c 1
 679 496 l 1
 671 571 614 613 519 613 c 0
 434 613 366 575 318 501 c 0
 282 446 256 355 256 284 c 0
 256 181 328 105 426 105 c 0
 484 105 543 130 588 175 c 0
 615 201 629 226 642 267 c 1
 476 267 l 1
 503 392 l 1
 795 392 l 1
EndSplineSet
EndChar

StartChar: H
Encoding: 72 72 40
Width: 722
Flags: MW
HStem: 0 20 331 125<315 577 288 603> 709 20<223 373 373 373 661 812 812 812>
LayerCount: 2
Fore
SplineSet
577 331 m 1
 288 331 l 1
 218 0 l 1
 68 0 l 1
 223 729 l 1
 373 729 l 1
 315 456 l 1
 603 456 l 1
 661 729 l 1
 812 729 l 1
 657 0 l 1
 507 0 l 1
 577 331 l 1
EndSplineSet
EndChar

StartChar: I
Encoding: 73 73 41
Width: 278
Flags: MW
HStem: 0 20 709 20<218 368 368 368>
LayerCount: 2
Fore
SplineSet
368 729 m 1
 213 0 l 1
 63 0 l 1
 218 729 l 1
 368 729 l 1
EndSplineSet
EndChar

StartChar: J
Encoding: 74 74 42
Width: 556
Flags: MW
HStem: -23 128<257.5 280> 709 20<491 641 641 641>
VStem: 59 152<143 143.5>
LayerCount: 2
Fore
SplineSet
491 729 m 1
 641 729 l 1
 526 190 l 2
 510 114 475 55 426 23 c 0
 383 -5 313 -23 247 -23 c 0
 130 -23 59 36 59 133 c 0
 59 154 61 176 66 198 c 2
 81 270 l 1
 231 270 l 1
 215 193 l 2
 212 180 211 169 211 159 c 0
 211 127 238 105 277 105 c 0
 330 105 365 135 376 190 c 2
 491 729 l 1
EndSplineSet
EndChar

StartChar: K
Encoding: 75 75 43
Width: 722
Flags: MW
HStem: 0 20 709 20<229 379 379 379 665 843 843 843>
LayerCount: 2
Fore
SplineSet
274 234 m 1
 224 0 l 1
 74 0 l 1
 229 729 l 1
 379 729 l 1
 311 409 l 1
 665 729 l 1
 843 729 l 1
 482 410 l 1
 717 0 l 1
 538 0 l 1
 365 314 l 1
 274 234 l 1
EndSplineSet
EndChar

StartChar: L
Encoding: 76 76 44
Width: 611
Flags: MW
HStem: 0 125<257 579> 709 20<235 385 385 385>
LayerCount: 2
Fore
SplineSet
385 729 m 1
 257 125 l 1
 606 125 l 1
 579 0 l 1
 80 0 l 1
 235 729 l 1
 385 729 l 1
EndSplineSet
EndChar

StartChar: M
Encoding: 77 77 45
Width: 833
Flags: MW
HStem: 0 20 709 20<221 438 438 438 712 931 931 931>
LayerCount: 2
Fore
SplineSet
497 0 m 1
 347 0 l 1
 340 619 l 1
 208 0 l 1
 66 0 l 1
 221 729 l 1
 438 729 l 1
 458 169 l 1
 712 729 l 1
 931 729 l 1
 776 0 l 1
 634 0 l 1
 766 619 l 1
 497 0 l 1
EndSplineSet
EndChar

StartChar: N
Encoding: 78 78 46
Width: 722
Flags: MW
HStem: 0 20 709 20<223 373 373 373 674 816 816 816>
LayerCount: 2
Fore
SplineSet
816 729 m 1
 661 0 l 1
 513 0 l 1
 321 523 l 1
 210 0 l 1
 68 0 l 1
 223 729 l 1
 373 729 l 1
 565 214 l 1
 674 729 l 1
 816 729 l 1
EndSplineSet
EndChar

StartChar: P
Encoding: 80 80 48
Width: 667
Flags: MW
HStem: 0 20 260 125<281 461 308 461 461 468> 604 125<354 508 354 354>
VStem: 598 149<521.5 548.5>
LayerCount: 2
Fore
SplineSet
281 260 m 1
 226 0 l 1
 76 0 l 1
 231 729 l 1
 539 729 l 2
 606 729 647 718 683 690 c 0
 724 659 747 612 747 560 c 0
 747 483 712 398 658 341 c 0
 605 284 547 260 468 260 c 2
 281 260 l 1
308 385 m 1
 461 385 l 2
 514 385 548 401 572 436 c 0
 587 457 598 496 598 525 c 0
 598 572 562 604 508 604 c 2
 354 604 l 1
 308 385 l 1
EndSplineSet
EndChar

StartChar: Q
Encoding: 81 81 49
Width: 778
Flags: MW
HStem: -23 128<368.5 432.5> 613 128<480 569.5>
VStem: 109 149<227.5 320> 682 149<395 491.5>
LayerCount: 2
Fore
SplineSet
686 103 m 1
 750 27 l 1
 657 -54 l 1
 588 27 l 1
 527 -7 468 -23 397 -23 c 0
 220 -23 109 87 109 262 c 0
 109 378 156 504 232 594 c 1
 315 694 414 741 538 741 c 0
 721 741 831 632 831 453 c 0
 831 330 771 185 686 103 c 1
539 278 m 1
 604 200 l 1
 650 258 682 354 682 436 c 0
 682 547 621 613 518 613 c 0
 442 613 379 578 329 508 c 0
 285 447 258 361 258 282 c 0
 258 173 319 105 418 105 c 0
 450 105 482 112 507 124 c 1
 445 197 l 1
 539 278 l 1
EndSplineSet
EndChar

StartChar: R
Encoding: 82 82 50
Width: 722
Flags: W
HStem: 0 20 289 125<291 499 318 463> 604 125<358 526 358 358>
VStem: 510 155<35 64> 548 148<228 289> 636 149<520 598>
LayerCount: 2
Fore
SplineSet
291 289 m 1xe8
 230 0 l 1
 80 0 l 1
 235 729 l 1
 612 729 l 2
 670 729 710 715 742 683 c 0
 769 656 785 617 785 579 c 0xe4
 785 523 760 460 721 420 c 0
 697 395 671 378 618 352 c 1
 670 335 696 308 696 270 c 0xe8
 696 245 691 210 668 87 c 0
 666 77 665 67 665 61 c 0
 665 47 670 37 683 27 c 1
 677 0 l 1
 518 0 l 1
 512 19 510 29 510 41 c 0xf0
 510 67 517 104 536 173 c 0
 545 209 548 222 548 234 c 0
 548 271 520 289 463 289 c 2
 291 289 l 1xe8
318 414 m 1
 499 414 l 2
 549 414 580 426 606 455 c 0
 624 475 636 506 636 534 c 0
 636 553 628 570 614 583 c 1
 595 598 572 604 526 604 c 2
 358 604 l 1
 318 414 l 1
EndSplineSet
EndChar

StartChar: T
Encoding: 84 84 52
Width: 611
Flags: MW
HStem: 0 20 604 125<169 364 142 753 514 726 514 514>
LayerCount: 2
Fore
SplineSet
514 604 m 1
 385 0 l 1
 235 0 l 1
 364 604 l 1
 142 604 l 1
 169 729 l 1
 753 729 l 1
 726 604 l 1
 514 604 l 1
EndSplineSet
EndChar

StartChar: U
Encoding: 85 85 53
Width: 722
Flags: MW
HStem: -23 128<355 410> 709 20<231 381 381 381 659 809 809 809>
VStem: 119 152<163.5 178>
LayerCount: 2
Fore
SplineSet
659 729 m 1
 809 729 l 1
 704 235 l 2
 686 152 654 96 597 51 c 0
 536 3 454 -23 366 -23 c 0
 215 -23 119 51 119 167 c 0
 119 189 123 222 130 255 c 2
 231 729 l 1
 381 729 l 1
 276 235 l 2
 273 219 271 205 271 190 c 0
 271 137 316 105 394 105 c 0
 485 105 535 145 554 235 c 2
 659 729 l 1
EndSplineSet
EndChar

StartChar: V
Encoding: 86 86 54
Width: 667
Flags: MW
HStem: 0 20 709 20<179 330 330 330 651 802 802 802>
LayerCount: 2
Fore
SplineSet
400 0 m 1
 273 0 l 1
 179 729 l 1
 330 729 l 1
 375 180 l 1
 651 729 l 1
 802 729 l 1
 400 0 l 1
EndSplineSet
EndChar

StartChar: W
Encoding: 87 87 55
Width: 944
Flags: MW
HStem: 0 20 709 20<168 327 327 327 548 706 706 706 928 1087 1087 1087>
LayerCount: 2
Fore
SplineSet
730 0 m 1
 595 0 l 1
 591 555 l 1
 354 0 l 1
 219 0 l 1
 168 729 l 1
 327 729 l 1
 324 183 l 1
 548 729 l 1
 706 729 l 1
 703 181 l 1
 928 729 l 1
 1087 729 l 1
 730 0 l 1
EndSplineSet
EndChar

StartChar: X
Encoding: 88 88 56
Width: 667
Flags: MW
HStem: 0 20 709 20<187 365 365 365 627 802 802 802>
LayerCount: 2
Fore
SplineSet
499 372 m 1
 655 0 l 1
 476 0 l 1
 386 249 l 1
 197 0 l 1
 22 0 l 1
 332 367 l 1
 187 729 l 1
 365 729 l 1
 444 493 l 1
 627 729 l 1
 802 729 l 1
 499 372 l 1
EndSplineSet
EndChar

StartChar: Y
Encoding: 89 89 57
Width: 667
Flags: MW
HStem: 0 20 709 20<182 349 349 349 638 805 805 805>
LayerCount: 2
Fore
SplineSet
477 270 m 1
 419 0 l 1
 269 0 l 1
 327 270 l 1
 182 729 l 1
 349 729 l 1
 431 414 l 1
 638 729 l 1
 805 729 l 1
 477 270 l 1
EndSplineSet
EndChar

StartChar: Z
Encoding: 90 90 58
Width: 611
Flags: MW
HStem: 0 125<57 57 232 578 30 57> 604 125<185 531 158 733 706 706>
LayerCount: 2
Fore
SplineSet
733 729 m 1
 706 604 l 1
 232 125 l 1
 605 125 l 1
 578 0 l 1
 30 0 l 1
 57 125 l 1
 531 604 l 1
 158 604 l 1
 185 729 l 1
 733 729 l 1
EndSplineSet
EndChar

StartChar: bracketleft
Encoding: 91 91 59
Width: 333
Flags: MW
HStem: -200 100<174 266> 629 100<328 441 328 328>
LayerCount: 2
Fore
SplineSet
463 729 m 1
 441 629 l 1
 328 629 l 1
 174 -100 l 1
 287 -100 l 1
 266 -200 l 1
 23 -200 l 1
 220 729 l 1
 463 729 l 1
EndSplineSet
EndChar

StartChar: backslash
Encoding: 92 92 60
Width: 278
Flags: W
LayerCount: 2
Fore
SplineSet
138 709 m 1
 212 709 l 1
 285 -23 l 1
 210 -23 l 1
 138 709 l 1
EndSplineSet
EndChar

StartChar: bracketright
Encoding: 93 93 61
Width: 333
Flags: MW
HStem: -200 100<-25 110 -3 110 -3 218> 629 100<172 264 151 415>
LayerCount: 2
Fore
SplineSet
-25 -200 m 1
 -3 -100 l 1
 110 -100 l 1
 264 629 l 1
 151 629 l 1
 172 729 l 1
 415 729 l 1
 218 -200 l 1
 -25 -200 l 1
EndSplineSet
EndChar

StartChar: asciicircum
Encoding: 94 94 62
Width: 584
Flags: W
LayerCount: 2
Fore
SplineSet
580 270 m 1
 467 270 l 1
 409 570 l 1
 231 270 l 1
 119 270 l 1
 374 695 l 1
 499 695 l 1
 580 270 l 1
EndSplineSet
EndChar

StartChar: underscore
Encoding: 95 95 63
Width: 556
Flags: MW
HStem: -145 69<-50 535 -65 550>
LayerCount: 2
Fore
SplineSet
550 -76 m 1
 535 -145 l 1
 -65 -145 l 1
 -50 -76 l 1
 550 -76 l 1
EndSplineSet
EndChar

StartChar: grave
Encoding: 193 96 123
Width: 333
Flags: MW
HStem: 607 150<276 294 175 339 276 276>
LayerCount: 2
Fore
SplineSet
175 757 m 1
 294 757 l 1
 339 607 l 1
 276 607 l 1
 175 757 l 1
EndSplineSet
EndChar

StartChar: a
Encoding: 97 97 65
Width: 556
Flags: W
HStem: -23 112<177.5 300> 437 112<331 388.5>
VStem: 50 143<122.5 138> 363 143<22 65> 436 142<383.5 442.5>
LayerCount: 2
Fore
SplineSet
527 17 m 1xf0
 523 0 l 1
 370 0 l 1
 365 11 363 17 363 27 c 0xf0
 363 34 363 39 366 54 c 1
 306 0 257 -23 199 -23 c 0
 156 -23 122 -13 97 8 c 0
 68 32 50 70 50 108 c 0
 50 168 83 229 136 267 c 0
 167 289 204 303 252 311 c 2
 310 320 l 1
 382 330 382 330 402 341 c 0
 422 351 436 373 436 394 c 0
 436 424 414 437 363 437 c 0
 299 437 268 417 251 362 c 1
 120 362 l 1
 148 492 229 549 386 549 c 0
 456 549 505 537 537 511 c 0
 560 492 578 457 578 428 c 0xe8
 578 416 576 401 572 383 c 2
 509 83 l 2
 507 75 506 68 506 62 c 0
 506 47 512 34 527 17 c 1xf0
400 217 m 2
 408 255 l 1
 396 248 393 247 382 245 c 0
 378 244 371 243 361 241 c 2
 345 238 l 1
 295 230 l 2
 230 219 193 186 193 139 c 0
 193 106 218 89 266 89 c 0
 334 89 382 135 400 217 c 2
EndSplineSet
EndChar

StartChar: b
Encoding: 98 98 66
Width: 611
Flags: MW
HStem: -23 112<309.5 378.5 309.5 420> 437 112<431 436> 709 20<214 354 354 354>
VStem: 497 143<258 355.5>
LayerCount: 2
Fore
SplineSet
214 729 m 1
 354 729 l 1
 299 470 l 1
 344 524 397 549 465 549 c 0
 571 549 640 467 640 342 c 0
 640 152 497 -23 343 -23 c 0
 276 -23 233 2 211 55 c 1
 199 0 l 1
 59 0 l 1
 214 729 l 1
409 437 m 0
 323 437 248 327 248 202 c 0
 248 134 283 89 336 89 c 0
 421 89 497 197 497 319 c 0
 497 392 463 437 409 437 c 0
EndSplineSet
EndChar

StartChar: d
Encoding: 100 100 68
Width: 611
Flags: MW
HStem: -23 112<282.5 284.5> 437 112<338.5 406 331.5 407> 709 20<560 700 700 700>
VStem: 79 143<170 226>
LayerCount: 2
Fore
SplineSet
405 0 m 1
 417 55 l 1
 371 2 318 -23 251 -23 c 0
 147 -23 79 59 79 185 c 0
 79 267 108 357 157 428 c 0
 209 503 291 549 372 549 c 0
 440 549 482 524 505 470 c 1
 560 729 l 1
 700 729 l 1
 545 0 l 1
 405 0 l 1
380 437 m 0
 297 437 222 327 222 206 c 0
 222 134 256 89 309 89 c 0
 394 89 468 197 468 323 c 0
 468 393 434 437 380 437 c 0
EndSplineSet
EndChar

StartChar: f
Encoding: 102 102 70
Width: 333
Flags: MW
HStem: 0 20 436 93<126 183 106 202 342 405> 625 104<387.5 396 338 405>
LayerCount: 2
Fore
SplineSet
425 529 m 1
 405 436 l 1
 323 436 l 1
 230 0 l 1
 90 0 l 1
 183 436 l 1
 106 436 l 1
 126 529 l 1
 202 529 l 1
 216 594 l 2
 236 687 289 729 387 729 c 0
 405 729 422 728 464 726 c 1
 442 621 l 1
 415 624 410 625 400 625 c 0
 375 625 360 611 354 582 c 2
 342 529 l 1
 425 529 l 1
EndSplineSet
EndChar

StartChar: g
Encoding: 103 103 71
Width: 611
Flags: W
HStem: -218 90<233.5 294.5 233.5 318> -23 112<280 285> 437 112<340 407>
VStem: 26 146<-115 -77> 79 143<166.5 215.5>
LayerCount: 2
Fore
SplineSet
523 540 m 1xe8
 656 540 l 1
 537 -18 l 2
 510 -146 401 -218 235 -218 c 0
 173 -218 129 -210 93 -192 c 0
 52 -172 26 -134 26 -96 c 0
 26 -88 27 -77 29 -65 c 1
 173 -65 l 1
 172 -77 l 1xf0
 172 -106 209 -128 258 -128 c 0
 331 -128 390 -83 404 -18 c 2
 420 55 l 1
 356 -4 316 -23 254 -23 c 0
 153 -23 79 57 79 167 c 0
 79 264 116 374 174 445 c 0
 227 511 302 549 378 549 c 0
 437 549 478 519 505 457 c 1
 523 540 l 1xe8
379 437 m 0xe8
 297 437 222 324 222 201 c 0
 222 132 254 89 306 89 c 0
 395 89 471 193 471 315 c 0
 471 389 435 437 379 437 c 0xe8
EndSplineSet
EndChar

StartChar: h
Encoding: 104 104 72
Width: 611
Flags: MW
HStem: 0 20 437 112<374 527.5> 709 20<222 362 362 362>
VStem: 479 150<354.5 456.5>
LayerCount: 2
Fore
SplineSet
222 729 m 1
 362 729 l 1
 304 458 l 1
 357 521 413 549 484 549 c 0
 571 549 629 496 629 417 c 0
 629 399 627 381 623 362 c 2
 546 0 l 1
 406 0 l 1
 473 313 l 2
 477 334 479 348 479 361 c 0
 479 410 453 437 406 437 c 0
 342 437 289 385 272 304 c 2
 207 0 l 1
 67 0 l 1
 222 729 l 1
EndSplineSet
EndChar

StartChar: i
Encoding: 105 105 73
Width: 278
Flags: MW
HStem: 0 20 604 125<222 335 195 362>
LayerCount: 2
Fore
SplineSet
322 540 m 1
 207 0 l 1
 67 0 l 1
 182 540 l 1
 322 540 l 1
362 729 m 1
 335 604 l 1
 195 604 l 1
 222 729 l 1
 362 729 l 1
EndSplineSet
EndChar

StartChar: j
Encoding: 106 106 74
Width: 278
Flags: MW
HStem: -218 112<-1 21 -1 59> 604 125<225 338 198 365>
LayerCount: 2
Fore
SplineSet
365 729 m 1
 338 604 l 1
 198 604 l 1
 225 729 l 1
 365 729 l 1
325 540 m 1
 190 -94 l 2
 172 -181 116 -218 2 -218 c 0
 -17 -218 -29 -217 -43 -213 c 1
 -19 -102 l 1
 -15 -105 -8 -106 6 -106 c 0
 36 -106 50 -94 57 -62 c 2
 185 540 l 1
 325 540 l 1
EndSplineSet
EndChar

StartChar: k
Encoding: 107 107 75
Width: 556
Flags: MW
HStem: 0 20 709 20<214 354 354 354>
LayerCount: 2
Fore
SplineSet
354 729 m 1
 269 330 l 1
 492 540 l 1
 651 540 l 1
 419 334 l 1
 548 0 l 1
 384 0 l 1
 305 239 l 1
 237 177 l 1
 199 0 l 1
 59 0 l 1
 214 729 l 1
 354 729 l 1
EndSplineSet
EndChar

StartChar: l
Encoding: 108 108 76
Width: 278
Flags: MW
HStem: 0 20 709 20<222 362 362 362>
LayerCount: 2
Fore
SplineSet
362 729 m 1
 207 0 l 1
 67 0 l 1
 222 729 l 1
 362 729 l 1
EndSplineSet
EndChar

StartChar: m
Encoding: 109 109 77
Width: 889
Flags: W
HStem: 0 20 437 112<358 499> 520 20<175 314 314 314>
VStem: 763 148<375 462.5>
LayerCount: 2
Fore
SplineSet
175 540 m 1xb0
 314 540 l 1x30
 297 459 l 1
 356 524 403 549 468 549 c 0
 530 549 578 517 592 467 c 1
 647 524 701 549 769 549 c 0
 859 549 911 502 911 423 c 0
 911 405 909 391 903 362 c 2
 826 0 l 1
 686 0 l 1
 758 340 l 2
 761 354 763 369 763 381 c 0
 763 417 742 437 705 437 c 0
 642 437 597 396 582 324 c 2
 513 0 l 1
 373 0 l 1
 447 346 l 2
 449 357 450 367 450 379 c 0
 450 414 425 437 387 437 c 0xd0
 329 437 284 394 269 324 c 2
 200 0 l 1
 60 0 l 1
 175 540 l 1xb0
EndSplineSet
EndChar

StartChar: n
Encoding: 110 110 78
Width: 611
Flags: W
HStem: 0 20 437 112<371.5 526.5> 520 20<178 318 318 318>
VStem: 479 150<355.5 457>
LayerCount: 2
Fore
SplineSet
178 540 m 1xb0
 318 540 l 1x30
 300 458 l 1
 354 522 408 549 482 549 c 0
 571 549 629 497 629 417 c 0
 629 399 627 381 623 362 c 2
 546 0 l 1
 406 0 l 1
 473 313 l 2
 477 335 479 349 479 362 c 0
 479 410 453 437 405 437 c 0xd0
 338 437 285 386 268 304 c 2
 203 0 l 1
 63 0 l 1
 178 540 l 1xb0
EndSplineSet
EndChar

StartChar: p
Encoding: 112 112 80
Width: 611
Flags: MW
HStem: -218 20 -24 112<309 377 307.5 424.5> 437 112<430.5 433>
VStem: 494 143<259.5 357.5>
LayerCount: 2
Fore
SplineSet
312 540 m 1
 295 460 l 1
 341 519 397 549 464 549 c 0
 570 549 637 469 637 342 c 0
 637 141 505 -24 344 -24 c 0
 274 -24 232 4 211 64 c 1
 151 -218 l 1
 11 -218 l 1
 172 540 l 1
 312 540 l 1
406 437 m 0
 320 437 246 327 246 201 c 0
 246 133 281 88 334 88 c 0
 420 88 494 196 494 323 c 0
 494 392 460 437 406 437 c 0
EndSplineSet
EndChar

StartChar: q
Encoding: 113 113 81
Width: 611
Flags: MW
HStem: -218 20 -24 112<277 282> 437 112<334 403.5 327.5 404>
VStem: 72 143<167.5 223>
LayerCount: 2
Fore
SplineSet
519 540 m 1
 659 540 l 1
 498 -218 l 1
 358 -218 l 1
 418 64 l 1
 373 5 316 -24 248 -24 c 0
 142 -24 72 57 72 180 c 0
 72 266 102 359 152 430 c 0
 206 505 286 549 369 549 c 0
 438 549 482 520 502 460 c 1
 519 540 l 1
377 437 m 0
 291 437 215 327 215 202 c 0
 215 133 250 88 304 88 c 0
 391 88 466 197 466 324 c 0
 466 393 431 437 377 437 c 0
EndSplineSet
EndChar

StartChar: r
Encoding: 114 114 82
Width: 389
Flags: W
HStem: 0 20 410 139<373 472> 520 20<178 318 318 318>
LayerCount: 2
Fore
SplineSet
178 540 m 1xa0
 318 540 l 1x20
 295 434 l 1
 342 507 406 549 470 549 c 0
 474 549 479 549 487 548 c 1
 457 406 l 1
 439 409 429 410 414 410 c 0x40
 332 410 281 369 264 287 c 2
 203 0 l 1
 63 0 l 1
 178 540 l 1xa0
EndSplineSet
EndChar

StartChar: s
Encoding: 115 115 83
Width: 556
Flags: W
HStem: -23 112<289.5 337.5 289.5 366> 437 112<347.5 391.5>
VStem: 127 149<317 400> 411 148<128 155.5> 452 137<398.5 401>
LayerCount: 2
Fore
SplineSet
584 366 m 1xe8
 449 366 l 1
 451 375 452 379 452 385 c 0xc8
 452 417 419 437 364 437 c 0
 311 437 276 416 276 384 c 0
 276 364 290 354 341 339 c 2
 437 311 l 2
 520 286 559 247 559 187 c 0
 559 59 451 -23 281 -23 c 0
 219 -23 172 -13 133 10 c 0
 89 35 60 82 60 127 c 0
 60 136 61 142 64 157 c 1
 201 157 l 1
 202 134 208 123 222 111 c 1
 241 97 272 89 307 89 c 0
 368 89 411 112 411 144 c 0xf0
 411 167 398 176 335 196 c 2
 256 221 l 1
 168 250 127 289 127 345 c 0
 127 395 155 452 198 490 c 0
 241 528 308 549 387 549 c 0
 513 549 589 494 589 404 c 0
 589 393 588 384 584 366 c 1xe8
EndSplineSet
EndChar

StartChar: t
Encoding: 116 116 84
Width: 333
Flags: MW
HStem: -23 20 436 93<127 176 107 196 336 394>
VStem: 101 147<35.5 110.5>
LayerCount: 2
Fore
SplineSet
414 529 m 1
 394 436 l 1
 316 436 l 1
 254 142 l 2
 250 125 248 113 248 108 c 0
 248 93 263 83 286 83 c 0
 297 83 305 84 319 86 c 1
 299 -12 l 1
 271 -20 247 -23 214 -23 c 0
 141 -23 101 8 101 63 c 0
 101 76 103 90 106 104 c 2
 176 436 l 1
 107 436 l 1
 127 529 l 1
 196 529 l 1
 227 674 l 1
 367 674 l 1
 336 529 l 1
 414 529 l 1
EndSplineSet
EndChar

StartChar: u
Encoding: 117 117 85
Width: 611
Flags: MW
HStem: -23 112<190 346.5> 520 20<174 314 314 314 516 656 656 656>
VStem: 88 150<69 171>
LayerCount: 2
Fore
SplineSet
541 0 m 1
 401 0 l 1
 416 68 l 1
 362 4 308 -23 234 -23 c 0
 146 -23 88 29 88 109 c 0
 88 127 90 145 94 164 c 2
 174 540 l 1
 314 540 l 1
 244 213 l 2
 240 190 238 178 238 164 c 0
 238 115 264 89 314 89 c 0
 379 89 431 141 448 222 c 2
 516 540 l 1
 656 540 l 1
 541 0 l 1
EndSplineSet
EndChar

StartChar: v
Encoding: 118 118 86
Width: 556
Flags: MW
HStem: 0 20 520 20<129 277 277 277 503 651 651 651>
LayerCount: 2
Fore
SplineSet
350 0 m 1
 203 0 l 1
 129 540 l 1
 277 540 l 1
 307 145 l 1
 503 540 l 1
 651 540 l 1
 350 0 l 1
EndSplineSet
EndChar

StartChar: w
Encoding: 119 119 87
Width: 778
Flags: MW
HStem: 0 20 520 20<120 265 265 265 429 573 573 573 736 881 881 881>
LayerCount: 2
Fore
SplineSet
617 0 m 1
 472 0 l 1
 467 380 l 1
 301 0 l 1
 157 0 l 1
 120 540 l 1
 265 540 l 1
 270 162 l 1
 429 540 l 1
 573 540 l 1
 573 162 l 1
 736 540 l 1
 881 540 l 1
 617 0 l 1
EndSplineSet
EndChar

StartChar: x
Encoding: 120 120 88
Width: 556
Flags: MW
HStem: 0 20 520 20<138 306 306 306 480 648 648 648>
LayerCount: 2
Fore
SplineSet
411 274 m 1
 534 0 l 1
 366 0 l 1
 307 168 l 1
 184 0 l 1
 16 0 l 1
 249 274 l 1
 138 540 l 1
 306 540 l 1
 357 377 l 1
 480 540 l 1
 648 540 l 1
 411 274 l 1
EndSplineSet
EndChar

StartChar: y
Encoding: 121 121 89
Width: 556
Flags: MW
HStem: -219 111<82 103> 520 20<124 278 278 278 509 653 653 653>
LayerCount: 2
Fore
SplineSet
509 540 m 1
 653 540 l 1
 295 -98 l 2
 259 -163 237 -185 194 -202 c 0
 164 -213 125 -219 81 -219 c 0
 60 -219 50 -218 37 -215 c 1
 60 -106 l 1
 71 -108 76 -108 88 -108 c 0
 157 -108 201 -72 201 -15 c 1
 200 0 l 1
 124 540 l 1
 278 540 l 1
 314 147 l 1
 509 540 l 1
EndSplineSet
EndChar

StartChar: z
Encoding: 122 122 90
Width: 500
Flags: MW
HStem: 0 113<45 45 219 469 21 45> 427 113<154 379 130 575 551 551>
LayerCount: 2
Fore
SplineSet
575 540 m 1
 551 427 l 1
 219 113 l 1
 493 113 l 1
 469 0 l 1
 21 0 l 1
 45 113 l 1
 379 427 l 1
 130 427 l 1
 154 540 l 1
 575 540 l 1
EndSplineSet
EndChar

StartChar: braceleft
Encoding: 123 123 91
Width: 389
Flags: W
HStem: -200 99<169 296 261 275> 630 99<396 414 414 451>
VStem: 101 121<-129 -71> 155 119<195 196>
LayerCount: 2
Fore
SplineSet
472 729 m 1xd0
 451 630 l 1
 414 630 l 2
 377 630 367 620 357 573 c 2
 316 378 l 2
 300 306 268 277 195 269 c 1
 220 265 228 263 240 257 c 0
 261 248 274 227 274 200 c 0xd0
 274 190 272 174 269 159 c 2
 227 -36 l 2
 224 -53 222 -66 222 -76 c 0
 222 -92 236 -101 261 -101 c 2
 296 -101 l 1
 275 -200 l 1
 198 -200 l 2
 140 -200 101 -159 101 -99 c 0xe0
 101 -86 102 -73 105 -60 c 2
 150 150 l 2
 153 165 155 178 155 184 c 0
 155 208 135 222 101 222 c 2
 88 222 l 1
 84 223 l 1
 104 315 l 1
 108 315 l 1
 120 315 l 2
 164 315 190 336 198 378 c 2
 243 589 l 2
 262 679 317 729 396 729 c 2
 472 729 l 1xd0
EndSplineSet
EndChar

StartChar: bar
Encoding: 124 124 92
Width: 280
Flags: MW
HStem: 709 20<255 335 335 335>
LayerCount: 2
Fore
SplineSet
335 729 m 1
 137 -200 l 1
 57 -200 l 1
 255 729 l 1
 335 729 l 1
EndSplineSet
EndChar

StartChar: braceright
Encoding: 125 125 93
Width: 389
Flags: W
HStem: -200 99<29 88 50 88 88 106> 630 99<226 241 205 304>
VStem: 228 119<333 334> 280 121
LayerCount: 2
Fore
SplineSet
29 -200 m 1xe0
 50 -101 l 1
 88 -101 l 2
 125 -101 135 -91 145 -44 c 2
 186 151 l 2
 202 223 234 252 307 260 c 1
 282 264 274 266 262 272 c 0
 241 281 228 302 228 329 c 0xe0
 228 339 230 355 233 370 c 2
 275 565 l 2
 278 582 280 595 280 605 c 0
 280 621 266 630 241 630 c 2
 205 630 l 1
 226 729 l 1
 304 729 l 2
 362 729 401 688 401 628 c 0xd0
 401 615 400 602 397 589 c 2
 352 379 l 2
 349 364 347 351 347 345 c 0
 347 321 367 307 401 307 c 2
 415 307 l 1
 419 306 l 1
 399 214 l 1
 395 214 l 1
 382 214 l 2
 338 214 312 193 304 151 c 2
 259 -60 l 2
 240 -150 185 -200 106 -200 c 2
 29 -200 l 1xe0
EndSplineSet
EndChar

StartChar: asciitilde
Encoding: 126 126 94
Width: 584
Flags: MW
HStem: 142 80<426 456 426 463> 234 80<223 252>
LayerCount: 2
Fore
SplineSet
504 288 m 1
 581 288 l 1
 558 193 503 142 423 142 c 0
 390 142 367 150 346 168 c 2
 298 210 l 2
 278 227 262 234 242 234 c 0
 204 234 188 219 175 169 c 1
 97 169 l 1
 123 266 176 314 256 314 c 0
 288 314 312 306 332 289 c 2
 381 247 l 2
 402 228 415 222 437 222 c 0
 475 222 490 237 504 288 c 1
EndSplineSet
EndChar

StartChar: exclamdown
Encoding: 161 161 95
Width: 333
Flags: MW
HStem: 394 146<150 331 181 300>
LayerCount: 2
Fore
SplineSet
26 -186 m 1
 71 24 l 1
 178 333 l 1
 245 333 l 1
 221 24 l 1
 176 -186 l 1
 26 -186 l 1
150 394 m 1
 181 540 l 1
 331 540 l 1
 300 394 l 1
 150 394 l 1
EndSplineSet
EndChar

StartChar: cent
Encoding: 162 162 96
Width: 556
Flags: MW
VStem: 79 143<163.5 214>
LayerCount: 2
Fore
SplineSet
410 435 m 1
 337 89 l 1
 378 99 404 128 428 187 c 1
 562 187 l 1
 526 65 430 -16 313 -22 c 1
 292 -124 l 1
 226 -124 l 1
 248 -20 l 1
 224 -16 207 -12 191 -5 c 0
 123 21 79 92 79 172 c 0
 79 256 113 363 163 433 c 0
 212 503 280 541 368 548 c 1
 387 634 l 1
 453 634 l 1
 434 547 l 1
 458 544 473 541 489 535 c 0
 554 509 598 447 598 381 c 0
 598 371 597 362 594 338 c 1
 460 338 l 1
 460 398 448 423 410 435 c 1
272 93 m 1
 344 435 l 1
 318 428 297 414 282 393 c 0
 246 344 222 263 222 191 c 0
 222 136 236 109 272 93 c 1
EndSplineSet
EndChar

StartChar: sterling
Encoding: 163 163 97
Width: 556
Flags: W
HStem: -23 125<403 412.5> 7 112<178.5 289> 316 55<111 171 111 188 99 171 321 443 321 321> 603 112<384.5 433>
VStem: 145 143<489 506> 193 130<254.5 268.5> 495 134<530.5 541>
LayerCount: 2
Fore
SplineSet
455 371 m 1x7a
 443 316 l 1
 321 316 l 1
 323 303 323 297 323 290 c 0
 323 219 282 163 172 86 c 1
 236 115 250 119 280 119 c 0x64
 298 119 299 119 345 110 c 0
 371 105 395 102 411 102 c 0
 447 102 480 111 525 131 c 1
 543 22 l 1
 479 -11 437 -23 388 -23 c 0x84
 361 -23 341 -20 292 -8 c 0
 247 3 224 7 197 7 c 0
 160 7 131 0 82 -21 c 1
 49 80 l 1
 153 141 193 191 193 261 c 0x74
 193 276 192 288 188 316 c 1
 99 316 l 1
 111 371 l 1
 171 371 l 1
 150 432 145 451 145 478 c 0
 145 534 176 597 224 642 c 0
 276 690 344 715 425 715 c 0
 559 715 629 655 629 539 c 0
 629 522 628 509 625 484 c 1
 494 484 l 1
 495 494 495 505 495 510 c 0
 495 572 464 603 402 603 c 0
 341 603 288 553 288 496 c 0
 288 482 289 475 300 436 c 0
 309 402 313 386 316 371 c 1
 455 371 l 1x7a
EndSplineSet
EndChar

StartChar: currency
Encoding: 168 164 102
Width: 556
Flags: MW
HStem: 147 98<309.5 335.5> 460 98<384.5 402>
VStem: 149 100<305 335> 463 100<371.5 400>
LayerCount: 2
Fore
SplineSet
501 528 m 1
 590 601 l 1
 644 532 l 1
 553 457 l 1
 560 434 563 416 563 397 c 0
 563 346 543 292 507 246 c 1
 567 170 l 1
 484 102 l 1
 425 177 l 1
 377 153 354 147 317 147 c 0
 279 147 235 160 214 178 c 1
 120 100 l 1
 66 169 l 1
 160 246 l 1
 152 270 149 288 149 310 c 0
 149 360 170 415 204 457 c 1
 142 536 l 1
 225 604 l 1
 286 527 l 1
 320 546 365 558 404 558 c 0
 439 558 476 546 501 528 c 1
377 460 m 0
 305 460 249 403 249 330 c 0
 249 280 284 245 335 245 c 0
 406 245 463 303 463 375 c 0
 463 425 427 460 377 460 c 0
EndSplineSet
EndChar

StartChar: yen
Encoding: 165 165 99
Width: 556
Flags: MW
HStem: 0 20 180 60<120 253 107 266 406 537> 292 60<143 277 131 283 435 561>
LayerCount: 2
Fore
SplineSet
574 352 m 1
 561 292 l 1
 417 292 l 1
 406 240 l 1
 550 240 l 1
 537 180 l 1
 393 180 l 1
 355 0 l 1
 215 0 l 1
 253 180 l 1
 107 180 l 1
 120 240 l 1
 266 240 l 1
 277 292 l 1
 131 292 l 1
 143 352 l 1
 283 352 l 1
 155 704 l 1
 294 704 l 1
 379 450 l 1
 566 704 l 1
 702 704 l 1
 435 352 l 1
 574 352 l 1
EndSplineSet
EndChar

StartChar: brokenbar
Encoding: 420 166 313
Width: 280
Flags: MW
HStem: 709 20<255 335 335 335>
LayerCount: 2
Fore
SplineSet
335 729 m 1
 252 340 l 1
 172 340 l 1
 255 729 l 1
 335 729 l 1
220 189 m 1
 137 -200 l 1
 57 -200 l 1
 140 189 l 1
 220 189 l 1
EndSplineSet
EndChar

StartChar: section
Encoding: 167 167 101
Width: 556
Flags: W
HStem: -201 112<237 276> 621 102<388.5 421>
VStem: 56 137<-52 -49.5> 89 130<227.5 318> 178 148<504.5 576.5> 348 148<-36 47.5> 448 130<230.5 326> 463 133<560 634.5>
LayerCount: 2
Fore
SplineSet
589 544 m 1xc9
 462 544 l 1
 463 551 463 558 463 562 c 0xd1
 463 600 441 621 401 621 c 0
 358 621 326 594 326 559 c 0
 326 538 347 516 397 485 c 2
 509 415 l 2
 557 385 578 350 578 302 c 0xca
 578 254 564 212 539 183 c 0
 517 157 496 144 448 126 c 1
 481 99 496 68 496 27 c 0
 496 -19 476 -71 441 -111 c 1
 392 -170 320 -201 232 -201 c 0
 124 -201 56 -146 56 -59 c 0
 56 -40 58 -26 65 0 c 1
 196 0 l 1
 194 -17 193 -24 193 -34 c 0xe4
 193 -70 216 -89 258 -89 c 0
 309 -89 348 -57 348 -15 c 0
 348 12 343 18 293 49 c 1
 143 149 l 2
 109 172 89 208 89 247 c 0xd4
 89 291 102 329 128 359 c 0
 149 383 163 395 216 428 c 1
 190 455 178 485 178 524 c 0
 178 571 202 622 243 659 c 0
 287 700 352 723 425 723 c 0
 532 723 596 675 596 594 c 0
 596 580 594 569 589 544 c 1xc9
258 247 m 2
 383 170 l 1
 430 192 448 214 448 247 c 0xc2
 448 271 437 285 402 306 c 2
 275 382 l 1
 237 362 219 335 219 301 c 0
 219 279 229 264 258 247 c 2
EndSplineSet
EndChar

StartChar: dieresis
Encoding: 200 168 130
Width: 333
Flags: MW
HStem: 621 120<173 257 147 283 173 333 359 443>
LayerCount: 2
Fore
SplineSet
283 741 m 1
 257 621 l 1
 147 621 l 1
 173 741 l 1
 283 741 l 1
469 741 m 1
 443 621 l 1
 333 621 l 1
 359 741 l 1
 469 741 l 1
EndSplineSet
EndChar

StartChar: copyright
Encoding: 409 169 302
Width: 737
Flags: MW
HStem: -22 72<307 475 307 483.5> 128 83<383.5 439.5 383.5 447> 509 83<455 504.5> 671 72<416 584>
VStem: 54 80<224.5 392 224.5 400.5> 232 93<274.5 324.5> 757 80<329.5 497.5>
LayerCount: 2
Fore
SplineSet
644 431 m 1
 554 431 l 1
 554 485 531 509 478 509 c 0
 432 509 395 488 366 446 c 1
 341 408 325 353 325 305 c 0
 325 244 356 211 411 211 c 0
 468 211 508 241 526 297 c 1
 618 297 l 1
 590 192 504 128 390 128 c 0
 292 128 232 189 232 287 c 0
 232 362 259 444 302 498 c 0
 350 559 417 592 493 592 c 0
 586 592 647 541 647 464 c 0
 647 456 646 448 644 431 c 1
530 743 m 0
 707 743 837 615 837 440 c 0
 837 201 607 -22 360 -22 c 0
 184 -22 54 106 54 281 c 0
 54 520 284 743 530 743 c 0
514 671 m 0
 318 671 134 489 134 295 c 0
 134 154 237 50 377 50 c 0
 573 50 757 232 757 427 c 0
 757 568 654 671 514 671 c 0
EndSplineSet
EndChar

StartChar: ordfeminine
Encoding: 227 170 138
Width: 370
Flags: W
HStem: 262 80<113 380 96 396> 385 68<191.5 283.5> 661 68<303 337.5>
VStem: 134 87<473.5 494.5> 322 86<412 438.5> 366 85<629.5 679.5>
LayerCount: 2
Fore
SplineSet
396 342 m 1xf8
 380 262 l 1
 96 262 l 1
 113 342 l 1
 396 342 l 1xf8
420 409 m 1
 418 399 l 1
 326 399 l 1
 323 405 322 409 322 415 c 0xf8
 322 419 322 421 324 431 c 1
 288 399 257 385 217 385 c 0
 166 385 134 415 134 463 c 0
 134 526 182 575 256 586 c 1
 290 592 l 1
 333 598 333 598 346 604 c 0
 358 610 366 623 366 636 c 0
 366 653 353 661 322 661 c 0
 284 661 265 649 255 617 c 1
 176 617 l 1
 193 692 247 729 337 729 c 0
 408 729 451 702 451 657 c 0xf4
 451 649 450 640 448 629 c 2
 409 449 l 2
 408 444 408 441 408 436 c 0
 408 428 412 419 420 409 c 1
344 529 m 2
 349 552 l 1
 342 549 340 548 333 546 c 0
 331 546 327 545 321 544 c 2
 311 543 l 1
 281 537 l 1
 243 531 221 511 221 483 c 0
 221 464 236 453 263 453 c 0
 304 453 334 481 344 529 c 2
EndSplineSet
EndChar

StartChar: guillemotleft
Encoding: 171 171 105
Width: 556
Flags: W
LayerCount: 2
Fore
SplineSet
135 218 m 1
 159 332 l 1
 358 481 l 1
 333 364 l 1
 213 275 l 1
 295 186 l 1
 271 72 l 1
 135 218 l 1
348 218 m 1
 372 332 l 1
 571 481 l 1
 546 364 l 1
 426 275 l 1
 508 186 l 1
 484 72 l 1
 348 218 l 1
EndSplineSet
EndChar

StartChar: logicalnot
Encoding: 417 172 310
Width: 584
Flags: MW
HStem: 256 120<128 488 103 632>
LayerCount: 2
Fore
SplineSet
128 376 m 1
 632 376 l 1
 571 86 l 1
 452 86 l 1
 488 256 l 1
 103 256 l 1
 128 376 l 1
EndSplineSet
EndChar

StartChar: registered
Encoding: 410 174 303
Width: 737
Flags: W
HStem: -22 72<307 475.5 307 484.5> 313 81<356 475 373 447> 502 80<396 498 396 396> 671 72<416 584>
VStem: 55 80<224.5 392 224.5 400.5> 480 100<163.5 182> 500 96<275 315> 553 101<461 481> 757 80<329.5 497.5>
LayerCount: 2
Fore
SplineSet
356 313 m 1xf2
 319 140 l 1
 223 140 l 1
 317 582 l 1
 555 582 l 2
 621 582 654 552 654 493 c 0xf980
 654 429 621 382 557 353 c 1
 585 340 596 326 596 304 c 0xf2
 596 287 593 266 581 195 c 1
 580 182 l 2
 580 173 583 167 592 161 c 1
 587 140 l 1
 485 140 l 1
 481 153 480 159 480 168 c 0xf4
 480 183 485 213 494 247 c 0
 498 264 500 272 500 278 c 0
 500 302 483 313 447 313 c 2
 356 313 l 1xf2
373 394 m 1
 475 394 l 2
 508 394 526 400 537 415 c 0
 546 426 553 450 553 469 c 0
 553 493 538 502 498 502 c 2
 396 502 l 1
 373 394 l 1
530 743 m 0
 708 743 837 615 837 440 c 0
 837 201 608 -22 361 -22 c 0
 185 -22 55 106 55 281 c 0
 55 520 284 743 530 743 c 0
514 671 m 0
 318 671 135 489 135 295 c 0
 135 154 237 50 377 50 c 0
 574 50 757 232 757 427 c 0
 757 568 654 671 514 671 c 0
EndSplineSet
EndChar

StartChar: macron
Encoding: 197 175 127
Width: 333
Flags: MW
HStem: 642 80<167 450 150 467>
LayerCount: 2
Fore
SplineSet
467 722 m 1
 450 642 l 1
 150 642 l 1
 167 722 l 1
 467 722 l 1
EndSplineSet
EndChar

StartChar: degree
Encoding: 399 176 292
Width: 606
Flags: MW
HStem: 383 63<366.5 415 366.5 432.5> 623 63<367.5 416>
VStem: 240 63<510.5 558.5 510.5 576.5> 480 63<510 559>
LayerCount: 2
Fore
SplineSet
391 686 m 0
 475 686 543 618 543 535 c 0
 543 450 475 383 390 383 c 0
 308 383 240 452 240 535 c 0
 240 618 308 686 391 686 c 0
392 623 m 0
 343 623 303 583 303 534 c 0
 303 487 343 446 390 446 c 0
 440 446 480 485 480 535 c 0
 480 583 440 623 392 623 c 0
EndSplineSet
EndChar

StartChar: plusminus
Encoding: 404 177 297
Width: 584
Flags: MW
HStem: 0 119<75 534 50 559> 332 120<146 303 121 328 447 605 146 422>
LayerCount: 2
Fore
SplineSet
630 452 m 1
 605 332 l 1
 422 332 l 1
 387 170 l 1
 268 170 l 1
 303 332 l 1
 121 332 l 1
 146 452 l 1
 328 452 l 1
 367 633 l 1
 486 633 l 1
 447 452 l 1
 630 452 l 1
559 119 m 1
 534 0 l 1
 50 0 l 1
 75 119 l 1
 559 119 l 1
EndSplineSet
EndChar

StartChar: twosuperior
Encoding: 397 178 290
Width: 444
Flags: MW
HStem: 284 80<263 430> 646 72<332.5 370.5>
VStem: 406 93<594 614.5>
LayerCount: 2
Fore
SplineSet
447 364 m 1
 430 284 l 1
 124 284 l 1
 145 365 177 404 264 454 c 0
 334 495 354 509 374 528 c 0
 394 547 406 574 406 600 c 0
 406 629 387 646 354 646 c 0
 311 646 285 615 279 557 c 1
 188 557 l 1
 204 661 267 718 366 718 c 0
 450 718 499 679 499 613 c 0
 499 575 485 539 459 508 c 1
 439 486 416 468 364 437 c 0
 296 396 277 382 263 364 c 1
 447 364 l 1
EndSplineSet
EndChar

StartChar: threesuperior
Encoding: 398 179 291
Width: 444
Flags: W
HStem: 271 78<277.5 316 277.5 332.5> 646 72<326 358.5>
VStem: 147 93<380.5 384> 369 93<402 439> 390 100<602 618>
LayerCount: 2
Fore
SplineSet
280 471 m 1xf0
 293 534 l 1
 297 533 302 533 303 533 c 0
 356 533 390 561 390 606 c 0
 390 630 372 646 345 646 c 0
 307 646 289 627 277 571 c 1
 190 571 l 1
 210 673 263 718 362 718 c 0
 443 718 490 684 490 625 c 0xc8
 490 579 466 541 419 512 c 1
 448 494 462 471 462 439 c 0
 462 340 387 271 278 271 c 0
 195 271 147 310 147 378 c 0
 147 390 148 398 151 414 c 1
 242 414 l 1
 240 406 240 402 240 396 c 0
 240 365 259 349 296 349 c 0
 336 349 369 382 369 422 c 0
 369 456 347 470 293 471 c 1
 280 471 l 1xf0
EndSplineSet
EndChar

StartChar: acute
Encoding: 194 180 124
Width: 333
Flags: W
LayerCount: 2
Fore
SplineSet
475 757 m 1
 317 607 l 1
 247 607 l 1
 349 757 l 1
 475 757 l 1
EndSplineSet
EndChar

StartChar: paragraph
Encoding: 182 182 114
Width: 556
Flags: MW
HStem: 656 73<465 527 465 465 625 669 625 625>
LayerCount: 2
Fore
SplineSet
684 729 m 1
 669 656 l 1
 625 656 l 1
 445 -191 l 1
 347 -191 l 1
 527 656 l 1
 465 656 l 1
 285 -191 l 1
 187 -191 l 1
 284 267 l 1
 184 272 121 337 121 435 c 0
 121 512 153 588 210 649 c 0
 260 703 317 729 382 729 c 2
 684 729 l 1
EndSplineSet
EndChar

StartChar: periodcentered
Encoding: 180 183 113
Width: 278
Flags: MW
HStem: 182 100<165 248 143 270>
LayerCount: 2
Fore
SplineSet
270 282 m 1
 248 182 l 1
 143 182 l 1
 165 282 l 1
 270 282 l 1
EndSplineSet
EndChar

StartChar: cedilla
Encoding: 203 184 132
Width: 333
Flags: MW
HStem: -220 50<101 134 101 165>
VStem: 183 87<-138 -116>
LayerCount: 2
Fore
SplineSet
154 0 m 1
 204 0 l 1
 163 -62 l 1
 179 -58 191 -56 206 -56 c 0
 246 -56 270 -77 270 -113 c 0
 270 -178 210 -220 120 -220 c 0
 75 -220 43 -213 -13 -191 c 1
 17 -140 l 1
 64 -163 87 -170 115 -170 c 0
 153 -170 183 -150 183 -126 c 0
 183 -106 165 -93 139 -93 c 0
 122 -93 110 -96 86 -106 c 1
 154 0 l 1
EndSplineSet
EndChar

StartChar: onesuperior
Encoding: 396 185 289
Width: 444
Flags: W
LayerCount: 2
Fore
SplineSet
316 573 m 1
 210 573 l 1
 223 634 l 1
 301 634 351 659 375 709 c 1
 438 709 l 1
 348 284 l 1
 254 284 l 1
 316 573 l 1
EndSplineSet
EndChar

StartChar: ordmasculine
Encoding: 235 186 142
Width: 365
Flags: MW
HStem: 262 80<109 393 92 410> 386 63<267.5 301> 661 68<308.5 343.5>
VStem: 140 87<498.5 532> 384 87<584 611.5>
LayerCount: 2
Fore
SplineSet
410 342 m 1
 393 262 l 1
 92 262 l 1
 109 342 l 1
 410 342 l 1
339 729 m 0
 421 729 471 684 471 610 c 0
 471 558 452 497 423 460 c 0
 386 411 333 386 269 386 c 0
 190 386 140 432 140 506 c 0
 140 558 159 617 188 655 c 0
 223 702 278 729 339 729 c 0
326 661 m 0
 272 661 227 597 227 520 c 0
 227 477 250 449 285 449 c 0
 339 449 384 514 384 590 c 0
 384 633 361 661 326 661 c 0
EndSplineSet
EndChar

StartChar: guillemotright
Encoding: 187 187 119
Width: 556
Flags: W
LayerCount: 2
Fore
SplineSet
326 335 m 1
 302 220 l 1
 103 72 l 1
 128 189 l 1
 248 278 l 1
 166 367 l 1
 190 481 l 1
 326 335 l 1
533 335 m 1
 509 220 l 1
 310 72 l 1
 335 189 l 1
 455 278 l 1
 373 367 l 1
 397 481 l 1
 533 335 l 1
EndSplineSet
EndChar

StartChar: onequarter
Encoding: 406 188 299
Width: 1055
Flags: MW
HStem: -20 20 93 73<779 868 977 1007>
LayerCount: 2
Fore
SplineSet
316 573 m 1
 210 573 l 1
 223 634 l 1
 301 634 351 659 375 709 c 1
 438 709 l 1
 348 284 l 1
 254 284 l 1
 316 573 l 1
848 715 m 1
 933 715 l 1
 352 -20 l 1
 267 -20 l 1
 848 715 l 1
1023 166 m 1
 1007 93 l 1
 961 93 l 1
 942 0 l 1
 848 0 l 1
 868 93 l 1
 691 93 l 1
 707 165 l 1
 924 425 l 1
 1032 425 l 1
 977 166 l 1
 1023 166 l 1
884 166 m 1
 919 332 l 1
 779 166 l 1
 884 166 l 1
EndSplineSet
EndChar

StartChar: onehalf
Encoding: 405 189 298
Width: 1055
Flags: MW
HStem: -20 20 0 80<814 981> 362 72<883.5 921.5>
VStem: 957 93<310 330.5>
LayerCount: 2
Fore
SplineSet
316 573 m 1xf0
 210 573 l 1
 223 634 l 1
 301 634 351 659 375 709 c 1
 438 709 l 1
 348 284 l 1
 254 284 l 1
 316 573 l 1xf0
838 715 m 1
 923 715 l 1
 342 -20 l 1
 257 -20 l 1
 838 715 l 1
998 80 m 1
 981 0 l 1
 675 0 l 1
 696 81 728 120 815 170 c 0
 885 211 905 225 925 244 c 0
 945 263 957 290 957 316 c 0
 957 345 938 362 905 362 c 0
 862 362 836 331 830 273 c 1
 739 273 l 1
 755 377 818 434 917 434 c 0
 1001 434 1050 395 1050 329 c 0
 1050 291 1036 255 1010 224 c 1
 990 202 967 184 915 153 c 0
 847 112 828 98 814 80 c 1
 998 80 l 1
EndSplineSet
EndChar

StartChar: threequarters
Encoding: 407 190 300
Width: 1055
Flags: W
HStem: -20 20 93 73<779 868 977 1007> 271 78<277.5 316 277.5 332.5> 646 72<326 358.5>
VStem: 147 93<380.5 384> 369 93<402 439> 390 100<602 618>
LayerCount: 2
Fore
SplineSet
280 471 m 1xfc
 293 534 l 1
 297 533 302 533 303 533 c 0
 356 533 390 561 390 606 c 0
 390 630 372 646 345 646 c 0
 307 646 289 627 277 571 c 1
 190 571 l 1
 210 673 263 718 362 718 c 0
 443 718 490 684 490 625 c 0xf2
 490 579 466 541 419 512 c 1
 448 494 462 471 462 439 c 0
 462 340 387 271 278 271 c 0
 195 271 147 310 147 378 c 0
 147 390 148 398 151 414 c 1
 242 414 l 1
 240 406 240 402 240 396 c 0
 240 365 259 349 296 349 c 0
 336 349 369 382 369 422 c 0
 369 456 347 470 293 471 c 1
 280 471 l 1xfc
868 715 m 1
 953 715 l 1
 372 -20 l 1
 287 -20 l 1
 868 715 l 1
1023 166 m 1
 1007 93 l 1
 961 93 l 1
 942 0 l 1
 848 0 l 1
 868 93 l 1
 691 93 l 1
 707 165 l 1
 924 425 l 1
 1032 425 l 1
 977 166 l 1
 1023 166 l 1
884 166 m 1
 919 332 l 1
 779 166 l 1
 884 166 l 1
EndSplineSet
EndChar

StartChar: questiondown
Encoding: 191 191 122
Width: 611
Flags: MW
HStem: -204 124<260 310> 394 146<306 487 337 456>
VStem: 52 143<-18.5 -4>
LayerCount: 2
Fore
SplineSet
310 339 m 1
 432 339 l 1
 425 262 386 207 292 141 c 0
 236 102 226 93 211 67 c 0
 201 48 195 27 195 7 c 0
 195 -44 233 -80 287 -80 c 0
 354 -80 404 -28 420 59 c 1
 556 59 l 1
 537 -25 515 -74 476 -117 c 0
 423 -174 352 -204 268 -204 c 0
 135 -204 52 -135 52 -26 c 0
 52 18 66 69 89 108 c 0
 111 144 147 175 219 220 c 1
 287 261 296 273 310 339 c 1
306 394 m 1
 337 540 l 1
 487 540 l 1
 456 394 l 1
 306 394 l 1
EndSplineSet
EndChar

StartChar: Aacute
Encoding: 257 193 150
Width: 722
Flags: MW
HStem: 0 20 147 125<329 518 329 532 260 518> 535 20<483 483> 709 20<433 606 606 606>
LayerCount: 2
Fore
SplineSet
532 147 m 1
 260 147 l 1
 179 0 l 1
 26 0 l 1
 433 729 l 1
 606 729 l 1
 703 0 l 1
 550 0 l 1
 532 147 l 1
518 272 m 1
 483 555 l 1
 329 272 l 1
 518 272 l 1
714 936 m 1
 556 786 l 1
 486 786 l 1
 588 936 l 1
 714 936 l 1
EndSplineSet
EndChar

StartChar: Acircumflex
Encoding: 259 194 152
Width: 722
Flags: MW
HStem: 0 20 147 125<329 518 329 532 260 518> 535 20<483 483> 709 20<433 606 606 606>
LayerCount: 2
Fore
SplineSet
532 147 m 1
 260 147 l 1
 179 0 l 1
 26 0 l 1
 433 729 l 1
 606 729 l 1
 703 0 l 1
 550 0 l 1
 532 147 l 1
518 272 m 1
 483 555 l 1
 329 272 l 1
 518 272 l 1
511 936 m 1
 619 936 l 1
 690 789 l 1
 612 789 l 1
 551 886 l 1
 448 789 l 1
 372 789 l 1
 511 936 l 1
EndSplineSet
EndChar

StartChar: Atilde
Encoding: 261 195 154
Width: 722
Flags: W
HStem: 0 20 147 125<329 518 329 532 260 518> 535 20<483 483> 709 20<433 606 606 606> 801 72<597.5 642> 852 69<452 465>
LayerCount: 2
Fore
SplineSet
532 147 m 1xf0
 260 147 l 1
 179 0 l 1
 26 0 l 1
 433 729 l 1
 606 729 l 1
 703 0 l 1
 550 0 l 1
 532 147 l 1xf0
518 272 m 1
 483 555 l 1
 329 272 l 1
 518 272 l 1
685 923 m 1x08
 739 923 l 1
 728 883 717 862 698 842 c 0
 673 816 638 801 606 801 c 0x08
 589 801 568 806 555 812 c 2
 505 837 l 2
 488 846 469 852 461 852 c 0
 443 852 427 837 410 803 c 1
 356 803 l 1
 380 879 422 921 477 921 c 0x04
 503 921 512 919 548 903 c 2
 598 882 l 2
 616 874 619 873 631 873 c 0
 653 873 671 889 685 923 c 1x08
EndSplineSet
EndChar

StartChar: Adieresis
Encoding: 256 196 149
Width: 722
Flags: MW
HStem: 0 20 147 125<329 518 329 532 260 518> 535 20<483 483> 709 20<433 606 606 606> 800 120<412 496 386 522 412 572 598 682>
LayerCount: 2
Fore
SplineSet
532 147 m 1
 260 147 l 1
 179 0 l 1
 26 0 l 1
 433 729 l 1
 606 729 l 1
 703 0 l 1
 550 0 l 1
 532 147 l 1
518 272 m 1
 483 555 l 1
 329 272 l 1
 518 272 l 1
522 920 m 1
 496 800 l 1
 386 800 l 1
 412 920 l 1
 522 920 l 1
708 920 m 1
 682 800 l 1
 572 800 l 1
 598 920 l 1
 708 920 l 1
EndSplineSet
EndChar

StartChar: Aring
Encoding: 262 197 155
Width: 722
Flags: MW
HStem: 0 20 147 125<329 518 329 532 260 518> 535 20<483 483> 709 20<433 606 606 606> 773 50<525 548.5 525 553> 903 50<540.5 563.5>
VStem: 26 49 161 49
LayerCount: 2
Fore
SplineSet
532 147 m 1
 260 147 l 1
 179 0 l 1
 26 0 l 1
 433 729 l 1
 606 729 l 1
 703 0 l 1
 550 0 l 1
 532 147 l 1
518 272 m 1
 483 555 l 1
 329 272 l 1
 518 272 l 1
564 953 m 0
 606 953 636 923 636 882 c 0
 636 825 582 773 524 773 c 0
 482 773 452 803 452 844 c 0
 452 901 506 953 564 953 c 0
554 903 m 0
 527 903 501 880 501 855 c 0
 501 837 515 823 535 823 c 0
 562 823 587 847 587 872 c 0
 587 890 573 903 554 903 c 0
EndSplineSet
EndChar

StartChar: Ccedilla
Encoding: 264 199 157
Width: 722
Flags: MW
HStem: -220 50<301 334 301 364.5> -93 198<330.5 451> 613 128<476 542.5>
VStem: 107 149<212 299> 383 87<-138 -116>
LayerCount: 2
Fore
SplineSet
389 -23 m 1
 363 -63 l 1
 377 -58 391 -56 406 -56 c 0
 446 -56 470 -77 470 -113 c 0
 470 -178 410 -220 319 -220 c 0
 275 -220 243 -213 186 -191 c 1
 216 -140 l 1
 264 -163 287 -170 315 -170 c 0
 353 -170 383 -150 383 -126 c 0
 383 -106 365 -93 339 -93 c 0
 322 -93 310 -96 285 -106 c 1
 340 -22 l 1
 199 -11 107 90 107 235 c 0
 107 363 151 499 222 586 c 1
 303 688 410 741 533 741 c 0
 688 741 793 656 793 531 c 0
 793 520 792 508 789 482 c 1
 648 482 l 1
 648 521 644 540 631 560 c 0
 610 594 569 613 516 613 c 0
 436 613 374 578 327 504 c 0
 282 434 256 347 256 265 c 0
 256 159 306 105 403 105 c 0
 499 105 570 157 599 249 c 1
 742 249 l 1
 701 82 565 -22 389 -23 c 1
EndSplineSet
EndChar

StartChar: Eacute
Encoding: 269 201 162
Width: 667
Flags: MW
HStem: 0 125<256 624> 314 125<296 671 322 645> 604 125<357 735 357 357>
LayerCount: 2
Fore
SplineSet
296 314 m 1
 256 125 l 1
 651 125 l 1
 624 0 l 1
 79 0 l 1
 234 729 l 1
 762 729 l 1
 735 604 l 1
 357 604 l 1
 322 439 l 1
 671 439 l 1
 645 314 l 1
 296 314 l 1
675 936 m 1
 517 786 l 1
 447 786 l 1
 549 936 l 1
 675 936 l 1
EndSplineSet
EndChar

StartChar: Edieresis
Encoding: 268 203 161
Width: 667
Flags: MW
HStem: 0 125<256 624> 314 125<296 671 322 645> 604 125<357 735 357 357> 800 120<392 476 366 502 392 552 578 662>
LayerCount: 2
Fore
SplineSet
296 314 m 1
 256 125 l 1
 651 125 l 1
 624 0 l 1
 79 0 l 1
 234 729 l 1
 762 729 l 1
 735 604 l 1
 357 604 l 1
 322 439 l 1
 671 439 l 1
 645 314 l 1
 296 314 l 1
502 920 m 1
 476 800 l 1
 366 800 l 1
 392 920 l 1
 502 920 l 1
688 920 m 1
 662 800 l 1
 552 800 l 1
 578 920 l 1
 688 920 l 1
EndSplineSet
EndChar

StartChar: Igrave
Encoding: 278 204 171
Width: 278
Flags: MW
HStem: 0 20 709 20<218 368 368 368> 786 150<282 300 181 345 282 282>
LayerCount: 2
Fore
SplineSet
368 729 m 1
 213 0 l 1
 63 0 l 1
 218 729 l 1
 368 729 l 1
181 936 m 1
 300 936 l 1
 345 786 l 1
 282 786 l 1
 181 936 l 1
EndSplineSet
EndChar

StartChar: Iacute
Encoding: 277 205 170
Width: 278
Flags: MW
HStem: 0 20 709 20<218 368 368 368>
LayerCount: 2
Fore
SplineSet
368 729 m 1
 213 0 l 1
 63 0 l 1
 218 729 l 1
 368 729 l 1
489 936 m 1
 331 786 l 1
 261 786 l 1
 363 936 l 1
 489 936 l 1
EndSplineSet
EndChar

StartChar: Icircumflex
Encoding: 279 206 172
Width: 278
Flags: MW
HStem: 0 20 709 20<218 368 368 368>
LayerCount: 2
Fore
SplineSet
368 729 m 1
 213 0 l 1
 63 0 l 1
 218 729 l 1
 368 729 l 1
288 936 m 1
 396 936 l 1
 467 789 l 1
 389 789 l 1
 328 886 l 1
 225 789 l 1
 149 789 l 1
 288 936 l 1
EndSplineSet
EndChar

StartChar: Idieresis
Encoding: 276 207 169
Width: 278
Flags: MW
HStem: 0 20 709 20<218 368 368 368> 800 120<187 271 161 297 187 347 373 457>
LayerCount: 2
Fore
SplineSet
368 729 m 1
 213 0 l 1
 63 0 l 1
 218 729 l 1
 368 729 l 1
297 920 m 1
 271 800 l 1
 161 800 l 1
 187 920 l 1
 297 920 l 1
483 920 m 1
 457 800 l 1
 347 800 l 1
 373 920 l 1
 483 920 l 1
EndSplineSet
EndChar

StartChar: Ntilde
Encoding: 285 209 178
Width: 722
Flags: W
HStem: 0 20 709 20<223 373 373 373 674 816 816 816> 801 72<595.5 640> 852 69<450 463>
LayerCount: 2
Fore
SplineSet
816 729 m 1xc0
 661 0 l 1
 513 0 l 1
 321 523 l 1
 210 0 l 1
 68 0 l 1
 223 729 l 1
 373 729 l 1
 565 214 l 1
 674 729 l 1
 816 729 l 1xc0
683 923 m 1x20
 737 923 l 1
 726 883 715 862 696 842 c 0
 671 816 636 801 604 801 c 0x20
 587 801 566 806 553 812 c 2
 503 837 l 2
 486 846 467 852 459 852 c 0
 441 852 425 837 408 803 c 1
 354 803 l 1
 378 879 420 921 475 921 c 0x10
 501 921 510 919 546 903 c 2
 596 882 l 2
 614 874 617 873 629 873 c 0
 651 873 669 889 683 923 c 1x20
EndSplineSet
EndChar

StartChar: Ograve
Encoding: 288 210 181
Width: 778
Flags: MW
HStem: -23 128<368.5 457.5 368.5 459> 613 128<481 569> 786 150<551 569 450 614 551 551>
VStem: 106 149<227.5 318.5> 679 149<397.5 492>
LayerCount: 2
Fore
SplineSet
538 741 m 0
 721 741 828 635 828 455 c 0
 828 337 783 215 705 124 c 0
 619 22 523 -23 395 -23 c 0
 217 -23 106 86 106 261 c 0
 106 376 153 502 231 594 c 1
 313 693 414 741 538 741 c 0
519 613 m 0
 443 613 377 577 327 509 c 0
 283 448 255 360 255 282 c 0
 255 173 318 105 419 105 c 0
 496 105 559 140 609 210 c 0
 652 270 679 358 679 437 c 0
 679 547 619 613 519 613 c 0
450 936 m 1
 569 936 l 1
 614 786 l 1
 551 786 l 1
 450 936 l 1
EndSplineSet
EndChar

StartChar: Oacute
Encoding: 287 211 180
Width: 778
Flags: MW
HStem: -23 128<368.5 457.5 368.5 459> 613 128<481 569>
VStem: 106 149<227.5 318.5> 679 149<397.5 492>
LayerCount: 2
Fore
SplineSet
538 741 m 0
 721 741 828 635 828 455 c 0
 828 337 783 215 705 124 c 0
 619 22 523 -23 395 -23 c 0
 217 -23 106 86 106 261 c 0
 106 376 153 502 231 594 c 1
 313 693 414 741 538 741 c 0
519 613 m 0
 443 613 377 577 327 509 c 0
 283 448 255 360 255 282 c 0
 255 173 318 105 419 105 c 0
 496 105 559 140 609 210 c 0
 652 270 679 358 679 437 c 0
 679 547 619 613 519 613 c 0
732 936 m 1
 574 786 l 1
 504 786 l 1
 606 936 l 1
 732 936 l 1
EndSplineSet
EndChar

StartChar: Otilde
Encoding: 290 213 183
Width: 778
Flags: W
HStem: -23 128<368.5 457.5 368.5 459> 613 128<481 569> 801 72<627.5 672> 852 69<482 495>
VStem: 106 149<227.5 318.5> 679 149<397.5 492>
LayerCount: 2
Fore
SplineSet
538 741 m 0xcc
 721 741 828 635 828 455 c 0
 828 337 783 215 705 124 c 0
 619 22 523 -23 395 -23 c 0
 217 -23 106 86 106 261 c 0
 106 376 153 502 231 594 c 1
 313 693 414 741 538 741 c 0xcc
519 613 m 0
 443 613 377 577 327 509 c 0
 283 448 255 360 255 282 c 0
 255 173 318 105 419 105 c 0
 496 105 559 140 609 210 c 0
 652 270 679 358 679 437 c 0
 679 547 619 613 519 613 c 0
715 923 m 1x2c
 769 923 l 1
 758 883 747 862 728 842 c 0
 703 816 668 801 636 801 c 0x2c
 619 801 598 806 585 812 c 2
 535 837 l 2
 518 846 499 852 491 852 c 0
 473 852 457 837 440 803 c 1
 386 803 l 1
 410 879 452 921 507 921 c 0x1c
 533 921 542 919 578 903 c 2
 628 882 l 2
 646 874 649 873 661 873 c 0
 683 873 701 889 715 923 c 1x2c
EndSplineSet
EndChar

StartChar: Odieresis
Encoding: 286 214 179
Width: 778
Flags: MW
HStem: -23 128<368.5 457.5 368.5 459> 613 128<481 569> 800 120<440 524 414 550 440 600 626 710>
VStem: 106 149<227.5 318.5> 679 149<397.5 492>
LayerCount: 2
Fore
SplineSet
538 741 m 0
 721 741 828 635 828 455 c 0
 828 337 783 215 705 124 c 0
 619 22 523 -23 395 -23 c 0
 217 -23 106 86 106 261 c 0
 106 376 153 502 231 594 c 1
 313 693 414 741 538 741 c 0
519 613 m 0
 443 613 377 577 327 509 c 0
 283 448 255 360 255 282 c 0
 255 173 318 105 419 105 c 0
 496 105 559 140 609 210 c 0
 652 270 679 358 679 437 c 0
 679 547 619 613 519 613 c 0
550 920 m 1
 524 800 l 1
 414 800 l 1
 440 920 l 1
 550 920 l 1
736 920 m 1
 710 800 l 1
 600 800 l 1
 626 920 l 1
 736 920 l 1
EndSplineSet
EndChar

StartChar: multiply
Encoding: 401 215 294
Width: 584
Flags: W
LayerCount: 2
Fore
SplineSet
516 444 m 1
 582 360 l 1
 425 231 l 1
 526 102 l 1
 424 18 l 1
 323 147 l 1
 168 19 l 1
 102 103 l 1
 257 231 l 1
 156 359 l 1
 258 444 l 1
 359 315 l 1
 516 444 l 1
EndSplineSet
EndChar

StartChar: Oslash
Encoding: 233 216 140
Width: 778
Flags: W
HStem: -23 128<394 457> 613 128<484.5 549> 729 20<864 864>
VStem: 109 149<269.5 320 269.5 320> 683 149<398.5 449.5>
LayerCount: 2
Fore
SplineSet
181 56 m 1xb8
 75 -39 l 1
 34 7 l 1
 145 106 l 1
 122 150 109 204 109 263 c 0
 109 377 157 503 234 595 c 1
 317 692 422 741 547 741 c 0xd8
 641 741 713 714 763 659 c 1
 864 749 l 1
 906 704 l 1
 798 607 l 1
 821 560 832 510 832 452 c 0
 832 339 785 215 707 123 c 0
 625 27 519 -23 395 -23 c 0
 302 -23 228 4 181 56 c 1xb8
678 500 m 1
 294 157 l 1
 323 123 367 105 421 105 c 0
 497 105 561 140 611 210 c 1
 656 271 683 358 683 439 c 0
 683 460 682 478 678 500 c 1
264 213 m 1
 650 557 l 1
 620 594 577 613 521 613 c 0
 445 613 379 577 330 509 c 0
 286 448 258 359 258 281 c 0
 258 258 260 235 264 213 c 1
EndSplineSet
EndChar

StartChar: Ugrave
Encoding: 300 217 193
Width: 722
Flags: MW
HStem: -23 128<355 410> 709 20<231 381 381 381 659 809 809 809> 786 150<531 549 430 594 531 531>
VStem: 119 152<163.5 178>
LayerCount: 2
Fore
SplineSet
659 729 m 1
 809 729 l 1
 704 235 l 2
 686 152 654 96 597 51 c 0
 536 3 454 -23 366 -23 c 0
 215 -23 119 51 119 167 c 0
 119 189 123 222 130 255 c 2
 231 729 l 1
 381 729 l 1
 276 235 l 2
 273 219 271 205 271 190 c 0
 271 137 316 105 394 105 c 0
 485 105 535 145 554 235 c 2
 659 729 l 1
430 936 m 1
 549 936 l 1
 594 786 l 1
 531 786 l 1
 430 936 l 1
EndSplineSet
EndChar

StartChar: Uacute
Encoding: 299 218 192
Width: 722
Flags: MW
HStem: -23 128<355 410> 709 20<231 381 381 381 659 809 809 809>
VStem: 119 152<163.5 178>
LayerCount: 2
Fore
SplineSet
659 729 m 1
 809 729 l 1
 704 235 l 2
 686 152 654 96 597 51 c 0
 536 3 454 -23 366 -23 c 0
 215 -23 119 51 119 167 c 0
 119 189 123 222 130 255 c 2
 231 729 l 1
 381 729 l 1
 276 235 l 2
 273 219 271 205 271 190 c 0
 271 137 316 105 394 105 c 0
 485 105 535 145 554 235 c 2
 659 729 l 1
692 936 m 1
 534 786 l 1
 464 786 l 1
 566 936 l 1
 692 936 l 1
EndSplineSet
EndChar

StartChar: Udieresis
Encoding: 298 220 191
Width: 722
Flags: MW
HStem: -23 128<355 410> 709 20<231 381 381 381 659 809 809 809> 800 120<409 493 383 519 409 569 595 679>
VStem: 119 152<163.5 178>
LayerCount: 2
Fore
SplineSet
659 729 m 1
 809 729 l 1
 704 235 l 2
 686 152 654 96 597 51 c 0
 536 3 454 -23 366 -23 c 0
 215 -23 119 51 119 167 c 0
 119 189 123 222 130 255 c 2
 231 729 l 1
 381 729 l 1
 276 235 l 2
 273 219 271 205 271 190 c 0
 271 137 316 105 394 105 c 0
 485 105 535 145 554 235 c 2
 659 729 l 1
519 920 m 1
 493 800 l 1
 383 800 l 1
 409 920 l 1
 519 920 l 1
705 920 m 1
 679 800 l 1
 569 800 l 1
 595 920 l 1
 705 920 l 1
EndSplineSet
EndChar

StartChar: Yacute
Encoding: 304 221 197
Width: 667
Flags: MW
HStem: 0 20 709 20<182 349 349 349 638 805 805 805>
LayerCount: 2
Fore
SplineSet
477 270 m 1
 419 0 l 1
 269 0 l 1
 327 270 l 1
 182 729 l 1
 349 729 l 1
 431 414 l 1
 638 729 l 1
 805 729 l 1
 477 270 l 1
668 936 m 1
 510 786 l 1
 440 786 l 1
 542 936 l 1
 668 936 l 1
EndSplineSet
EndChar

StartChar: Thorn
Encoding: 391 222 284
Width: 667
Flags: MW
HStem: 0 20 140 125<256 435 282 435 435 443> 484 125<355 482 329 514> 709 20<231 381 381 381>
VStem: 572 149<401.5 428.5>
LayerCount: 2
Fore
SplineSet
256 140 m 1
 226 0 l 1
 76 0 l 1
 231 729 l 1
 381 729 l 1
 355 609 l 1
 514 609 l 2
 580 609 621 598 657 570 c 0
 698 539 721 492 721 440 c 0
 721 363 687 278 633 221 c 0
 579 164 522 140 443 140 c 2
 256 140 l 1
282 265 m 1
 435 265 l 2
 488 265 522 281 547 316 c 0
 561 337 572 376 572 405 c 0
 572 452 536 484 482 484 c 2
 329 484 l 1
 282 265 l 1
EndSplineSet
EndChar

StartChar: germandbls
Encoding: 251 223 148
Width: 611
Flags: W
HStem: -23 20 617 112<394.5 449.5>
VStem: 487 143<250 283.5> 511 143<543 572.5>
LayerCount: 2
Fore
SplineSet
359 349 m 1xe0
 379 444 l 1
 420 444 449 453 471 471 c 0
 495 490 511 522 511 552 c 0
 511 593 477 617 422 617 c 0
 367 617 332 590 321 537 c 2
 207 0 l 1
 67 0 l 1
 186 558 l 2
 208 662 312 729 452 729 c 0
 574 729 654 670 654 582 c 0xd0
 654 504 606 437 532 411 c 1
 594 397 630 348 630 277 c 0
 630 223 607 153 574 103 c 0
 519 22 439 -23 349 -23 c 0
 329 -23 313 -21 281 -16 c 1
 305 96 l 1
 319 96 l 1
 374 97 402 106 433 133 c 0
 467 163 487 207 487 251 c 0
 487 316 449 349 374 349 c 2
 359 349 l 1xe0
EndSplineSet
EndChar

StartChar: atilde
Encoding: 327 227 220
Width: 556
Flags: W
HStem: -23 112<177.5 300> 437 112<331 388.5> 622 71<470.5 515.5> 672 69<325 338> 724 20
VStem: 50 143<122.5 138> 363 143<22 65> 436 142<383.5 442.5>
LayerCount: 2
Fore
SplineSet
527 17 m 1xc6
 523 0 l 1
 370 0 l 1
 365 11 363 17 363 27 c 0xc6
 363 34 363 39 366 54 c 1
 306 0 257 -23 199 -23 c 0
 156 -23 122 -13 97 8 c 0
 68 32 50 70 50 108 c 0
 50 168 83 229 136 267 c 0
 167 289 204 303 252 311 c 2
 310 320 l 1
 382 330 382 330 402 341 c 0
 422 351 436 373 436 394 c 0
 436 424 414 437 363 437 c 0
 299 437 268 417 251 362 c 1
 120 362 l 1
 148 492 229 549 386 549 c 0
 456 549 505 537 537 511 c 0
 560 492 578 457 578 428 c 0xc5
 578 416 576 401 572 383 c 2
 509 83 l 2
 507 75 506 68 506 62 c 0
 506 47 512 34 527 17 c 1xc6
400 217 m 2
 408 255 l 1
 396 248 393 247 382 245 c 0
 378 244 371 243 361 241 c 2
 345 238 l 1
 295 230 l 2
 230 219 193 186 193 139 c 0
 193 106 218 89 266 89 c 0
 334 89 382 135 400 217 c 2
558 744 m 1x28
 612 744 l 1
 601 705 590 683 571 663 c 0
 546 637 511 622 479 622 c 0x28
 462 622 441 627 428 633 c 2
 378 658 l 2
 363 665 342 672 334 672 c 0
 316 672 300 657 283 624 c 1
 229 624 l 1
 252 699 296 741 350 741 c 0x10
 375 741 389 738 421 724 c 2
 471 703 l 2
 490 694 492 693 504 693 c 0
 527 693 544 710 558 744 c 1x28
EndSplineSet
EndChar

StartChar: aring
Encoding: 328 229 221
Width: 556
Flags: W
HStem: -23 112<177.5 300> 437 112<331 388.5> 593 50<402 425.5 402 430> 723 50<417.5 440.5>
VStem: 50 49 50 143<122.5 138> 185 49 363 143<22 65> 436 142<383.5 442.5>
LayerCount: 2
Fore
SplineSet
527 17 m 1xf5
 523 0 l 1
 370 0 l 1
 365 11 363 17 363 27 c 0xf5
 363 34 363 39 366 54 c 1
 306 0 257 -23 199 -23 c 0
 156 -23 122 -13 97 8 c 0
 68 32 50 70 50 108 c 0
 50 168 83 229 136 267 c 0
 167 289 204 303 252 311 c 2
 310 320 l 1
 382 330 382 330 402 341 c 0
 422 351 436 373 436 394 c 0
 436 424 414 437 363 437 c 0
 299 437 268 417 251 362 c 1
 120 362 l 1
 148 492 229 549 386 549 c 0
 456 549 505 537 537 511 c 0
 560 492 578 457 578 428 c 0xf480
 578 416 576 401 572 383 c 2
 509 83 l 2
 507 75 506 68 506 62 c 0
 506 47 512 34 527 17 c 1xf5
400 217 m 2
 408 255 l 1
 396 248 393 247 382 245 c 0
 378 244 371 243 361 241 c 2
 345 238 l 1
 295 230 l 2
 230 219 193 186 193 139 c 0
 193 106 218 89 266 89 c 0
 334 89 382 135 400 217 c 2
441 773 m 0xfa
 483 773 513 743 513 702 c 0
 513 645 459 593 401 593 c 0
 359 593 329 623 329 664 c 0
 329 721 383 773 441 773 c 0xfa
431 723 m 0
 404 723 378 700 378 675 c 0
 378 657 392 643 412 643 c 0
 439 643 464 667 464 692 c 0
 464 710 450 723 431 723 c 0
EndSplineSet
EndChar

StartChar: ccedilla
Encoding: 332 231 225
Width: 556
Flags: MW
HStem: -220 50<200 233 200 263.5> -23 112<288 288 288 289> 437 112<351 393.5>
VStem: 77 143<157.5 218.5 157.5 220> 282 87<-138 -116>
LayerCount: 2
Fore
SplineSet
288 -23 m 1
 262 -62 l 1
 277 -58 289 -56 305 -56 c 0
 345 -56 369 -77 369 -113 c 0
 369 -178 309 -220 218 -220 c 0
 174 -220 141 -213 85 -191 c 1
 115 -139 l 1
 162 -163 186 -170 214 -170 c 0
 252 -170 282 -150 282 -126 c 0
 282 -106 264 -93 238 -93 c 0
 221 -93 209 -96 184 -106 c 1
 241 -19 l 1
 205 -12 187 -6 168 4 c 0
 113 34 77 101 77 173 c 0
 77 267 119 384 177 454 c 0
 230 517 304 549 398 549 c 0
 465 549 511 532 549 494 c 0
 580 463 597 423 597 381 c 0
 597 371 596 362 593 338 c 1
 459 338 l 1
 458 377 456 389 448 404 c 1
 435 425 410 437 377 437 c 0
 322 437 285 411 257 352 c 1
 233 304 220 245 220 192 c 0
 220 123 249 89 309 89 c 0
 363 89 396 116 427 187 c 1
 561 187 l 1
 539 117 506 68 456 30 c 0
 411 -4 338 -27 289 -23 c 1
 288 -23 l 1
EndSplineSet
EndChar

StartChar: egrave
Encoding: 336 232 229
Width: 556
Flags: MW
HStem: -23 112<273.5 326 273.5 335.5> 226 93<228 448 228 573 210 448> 437 112<342 379.5> 607 150<398 416 297 461 398 398>
VStem: 64 143<153.5 185.5 153.5 235> 448 143<332 334 334 350>
LayerCount: 2
Fore
SplineSet
573 226 m 1
 210 226 l 1
 207 198 207 190 207 181 c 0
 207 126 245 89 302 89 c 0
 350 89 394 114 414 152 c 1
 552 152 l 1
 497 41 396 -23 275 -23 c 0
 150 -23 64 61 64 185 c 0
 64 285 110 402 174 469 c 0
 221 518 301 549 379 549 c 0
 452 549 510 525 546 480 c 0
 574 444 591 397 591 351 c 0
 591 313 585 271 573 226 c 1
448 319 m 1
 448 334 l 2
 448 366 446 377 439 392 c 0
 426 420 397 437 362 437 c 0
 322 437 282 418 258 386 c 0
 245 369 237 351 228 319 c 1
 448 319 l 1
297 757 m 1
 416 757 l 1
 461 607 l 1
 398 607 l 1
 297 757 l 1
EndSplineSet
EndChar

StartChar: igrave
Encoding: 344 236 237
Width: 278
Flags: MW
HStem: 0 20 520 20<182 322 322 322> 607 150<248 266 147 311 248 248>
LayerCount: 2
Fore
SplineSet
322 540 m 1
 207 0 l 1
 67 0 l 1
 182 540 l 1
 322 540 l 1
147 757 m 1
 266 757 l 1
 311 607 l 1
 248 607 l 1
 147 757 l 1
EndSplineSet
EndChar

StartChar: iacute
Encoding: 343 237 236
Width: 278
Flags: MW
HStem: 0 20 520 20<182 322 322 322>
LayerCount: 2
Fore
SplineSet
322 540 m 1
 207 0 l 1
 67 0 l 1
 182 540 l 1
 322 540 l 1
448 757 m 1
 290 607 l 1
 220 607 l 1
 322 757 l 1
 448 757 l 1
EndSplineSet
EndChar

StartChar: icircumflex
Encoding: 345 238 238
Width: 278
Flags: MW
HStem: 0 20 520 20<182 322 322 322>
LayerCount: 2
Fore
SplineSet
322 540 m 1
 207 0 l 1
 67 0 l 1
 182 540 l 1
 322 540 l 1
247 757 m 1
 355 757 l 1
 426 610 l 1
 348 610 l 1
 287 707 l 1
 184 610 l 1
 108 610 l 1
 247 757 l 1
EndSplineSet
EndChar

StartChar: idieresis
Encoding: 342 239 235
Width: 278
Flags: MW
HStem: 0 20 520 20<182 322 322 322> 621 120<146 230 120 256 146 306 332 416>
LayerCount: 2
Fore
SplineSet
322 540 m 1
 207 0 l 1
 67 0 l 1
 182 540 l 1
 322 540 l 1
256 741 m 1
 230 621 l 1
 120 621 l 1
 146 741 l 1
 256 741 l 1
442 741 m 1
 416 621 l 1
 306 621 l 1
 332 741 l 1
 442 741 l 1
EndSplineSet
EndChar

StartChar: eth
Encoding: 393 240 286
Width: 611
Flags: W
HStem: -23 112<314 357> 431 99<361.5 378 327 399> 718 20<504 504> 724 20<305 305>
VStem: 83 144<183.5 227> 491 142<299.5 346>
LayerCount: 2
Fore
SplineSet
355 609 m 1xec
 258 564 l 1
 217 607 l 1
 305 648 l 1
 279 666 273 670 235 694 c 1
 305 744 l 1xdc
 339 729 341 728 387 701 c 0
 389 699 394 697 400 693 c 1
 504 738 l 1
 547 695 l 1
 454 654 l 1
 584 558 633 473 633 345 c 0
 633 254 605 166 553 97 c 1
 495 18 409 -23 305 -23 c 0
 166 -23 83 52 83 178 c 0
 83 276 121 382 180 449 c 0
 225 500 292 530 362 530 c 0
 394 530 414 524 452 503 c 1
 428 544 393 582 355 609 c 1xec
387 431 m 0
 336 431 293 403 264 351 c 0
 240 309 227 256 227 206 c 0
 227 161 237 132 259 113 c 1
 278 98 302 89 326 89 c 0
 420 89 491 190 491 326 c 0
 491 366 481 390 458 408 c 1
 438 422 411 431 387 431 c 0
EndSplineSet
EndChar

StartChar: ntilde
Encoding: 350 241 243
Width: 611
Flags: W
HStem: 0 20 437 112<371.5 526.5> 520 20<178 318 318 318> 622 71<504.5 549.5> 672 69<359 372> 724 20
VStem: 479 150<355.5 457>
LayerCount: 2
Fore
SplineSet
178 540 m 1xa2
 318 540 l 1x22
 300 458 l 1
 354 522 408 549 482 549 c 0
 571 549 629 497 629 417 c 0
 629 399 627 381 623 362 c 2
 546 0 l 1
 406 0 l 1
 473 313 l 2
 477 335 479 349 479 362 c 0
 479 410 453 437 405 437 c 0xc2
 338 437 285 386 268 304 c 2
 203 0 l 1
 63 0 l 1
 178 540 l 1xa2
592 744 m 1x16
 646 744 l 1
 635 705 624 683 605 663 c 0
 580 637 545 622 513 622 c 0x16
 496 622 475 627 462 633 c 2
 412 658 l 2
 397 665 376 672 368 672 c 0
 350 672 334 657 317 624 c 1
 263 624 l 1
 286 699 330 741 384 741 c 0x0a
 409 741 423 738 455 724 c 2
 505 703 l 2
 524 694 526 693 538 693 c 0
 561 693 578 710 592 744 c 1x16
EndSplineSet
EndChar

StartChar: ograve
Encoding: 353 242 246
Width: 611
Flags: MW
HStem: -23 112<294 350 294 353> 437 112<361.5 421.5> 607 150<428 446 327 491 428 428>
VStem: 82 143<169.5 220> 491 143<306 355.5>
LayerCount: 2
Fore
SplineSet
413 549 m 0
 550 549 634 473 634 349 c 0
 634 263 602 163 555 100 c 0
 494 19 407 -23 299 -23 c 0
 167 -23 82 55 82 177 c 0
 82 263 113 363 161 426 c 0
 220 505 310 549 413 549 c 0
391 437 m 0
 301 437 225 332 225 205 c 0
 225 134 264 89 324 89 c 0
 376 89 422 120 453 176 c 0
 477 218 491 271 491 320 c 0
 491 391 452 437 391 437 c 0
327 757 m 1
 446 757 l 1
 491 607 l 1
 428 607 l 1
 327 757 l 1
EndSplineSet
EndChar

StartChar: otilde
Encoding: 355 245 248
Width: 611
Flags: W
HStem: -23 112<294 350 294 353> 437 112<361.5 421.5> 672 70<336 389.5> 724 20
VStem: 82 143<170 220> 491 143<306 355.5>
LayerCount: 2
Fore
SplineSet
413 549 m 0xdc
 550 549 634 473 634 349 c 0
 634 263 602 163 555 100 c 0
 494 19 407 -23 299 -23 c 0
 167 -23 82 55 82 177 c 0
 82 263 113 363 161 426 c 0
 220 505 310 549 413 549 c 0xdc
391 437 m 0
 301 437 225 332 225 205 c 0
 225 135 264 89 324 89 c 0
 376 89 422 120 453 176 c 0
 477 218 491 271 491 320 c 0
 491 391 452 437 391 437 c 0
585 744 m 1
 639 744 l 1x1c
 602 667 544 622 480 622 c 0
 463 622 443 627 432 633 c 2
 387 658 l 2
 374 665 353 672 345 672 c 0
 327 672 308 657 285 624 c 1
 231 624 l 1
 270 700 322 742 377 742 c 0x2c
 402 742 411 739 444 724 c 2
 489 703 l 2
 506 694 509 693 520 693 c 0
 543 693 564 710 585 744 c 1
EndSplineSet
EndChar

StartChar: odieresis
Encoding: 351 246 244
Width: 611
Flags: MW
HStem: -23 112<294 350 294 353> 437 112<361.5 421.5> 621 120<311 395 285 421 311 471 497 581>
VStem: 82 143<169.5 220> 491 143<306 355.5>
LayerCount: 2
Fore
SplineSet
413 549 m 0
 550 549 634 473 634 349 c 0
 634 263 602 163 555 100 c 0
 494 19 407 -23 299 -23 c 0
 167 -23 82 55 82 177 c 0
 82 263 113 363 161 426 c 0
 220 505 310 549 413 549 c 0
391 437 m 0
 301 437 225 332 225 205 c 0
 225 134 264 89 324 89 c 0
 376 89 422 120 453 176 c 0
 477 218 491 271 491 320 c 0
 491 391 452 437 391 437 c 0
421 741 m 1
 395 621 l 1
 285 621 l 1
 311 741 l 1
 421 741 l 1
607 741 m 1
 581 621 l 1
 471 621 l 1
 497 741 l 1
 607 741 l 1
EndSplineSet
EndChar

StartChar: divide
Encoding: 402 247 295
Width: 584
Flags: MW
HStem: 0 20 172 120<102 581 77 606>
LayerCount: 2
Fore
SplineSet
606 292 m 1
 581 172 l 1
 77 172 l 1
 102 292 l 1
 606 292 l 1
318 124 m 0
 347 124 368 103 368 73 c 0
 368 36 331 0 292 0 c 0
 263 0 242 21 242 49 c 0
 242 88 279 124 318 124 c 0
390 462 m 0
 419 462 440 441 440 411 c 0
 440 374 403 338 363 338 c 0
 335 338 314 359 314 387 c 0
 314 425 351 462 390 462 c 0
EndSplineSet
EndChar

StartChar: oslash
Encoding: 249 248 146
Width: 611
Flags: W
HStem: -23 112<311 355> 437 112<368.5 412.5> 537 20<675 675>
VStem: 84 143<203.5 220.5> 494 142<303.5 322.5>
LayerCount: 2
Fore
SplineSet
135 36 m 1xb8
 46 -38 l 1
 12 2 l 1
 105 80 l 1
 91 110 84 143 84 178 c 0
 84 263 116 363 164 426 c 0
 224 505 314 549 417 549 c 0xd8
 490 549 551 527 590 486 c 1
 675 557 l 1
 709 516 l 1
 618 440 l 1
 630 411 636 379 636 344 c 0
 636 263 603 161 556 100 c 0
 496 21 406 -23 304 -23 c 0
 233 -23 175 -2 135 36 c 1xb8
493 336 m 1
 246 129 l 1
 263 104 294 89 328 89 c 0
 387 89 439 131 469 203 c 0
 485 239 494 283 494 321 c 0
 494 324 494 329 493 336 c 1
228 183 m 1
 478 392 l 1
 460 421 430 437 395 437 c 0
 342 437 296 406 265 350 c 0
 242 309 227 253 227 208 c 0
 227 199 227 194 228 183 c 1
EndSplineSet
EndChar

StartChar: udieresis
Encoding: 362 252 255
Width: 611
Flags: MW
HStem: -23 112<190 346.5> 520 20<174 314 314 314 516 656 656 656> 621 120<310 394 284 420 310 470 496 580>
VStem: 88 150<69 171>
LayerCount: 2
Fore
SplineSet
541 0 m 1
 401 0 l 1
 416 68 l 1
 362 4 308 -23 234 -23 c 0
 146 -23 88 29 88 109 c 0
 88 127 90 145 94 164 c 2
 174 540 l 1
 314 540 l 1
 244 213 l 2
 240 190 238 178 238 164 c 0
 238 115 264 89 314 89 c 0
 379 89 431 141 448 222 c 2
 516 540 l 1
 656 540 l 1
 541 0 l 1
420 741 m 1
 394 621 l 1
 284 621 l 1
 310 741 l 1
 420 741 l 1
606 741 m 1
 580 621 l 1
 470 621 l 1
 496 741 l 1
 606 741 l 1
EndSplineSet
EndChar

StartChar: thorn
Encoding: 394 254 287
Width: 611
Flags: MW
HStem: -218 20 -23 112<309 377 307.5 424.5> 437 112<430.5 432.5> 709 20<212 352 352 352>
VStem: 494 143<260 357.5>
LayerCount: 2
Fore
SplineSet
352 729 m 1
 295 460 l 1
 341 519 397 549 464 549 c 0
 569 549 637 468 637 343 c 0
 637 142 505 -23 344 -23 c 0
 274 -23 232 5 211 64 c 1
 151 -218 l 1
 11 -218 l 1
 212 729 l 1
 352 729 l 1
406 437 m 0
 320 437 246 327 246 202 c 0
 246 134 281 89 334 89 c 0
 420 89 494 197 494 323 c 0
 494 392 459 437 406 437 c 0
EndSplineSet
EndChar

StartChar: ydieresis
Encoding: 372 255 265
Width: 556
Flags: MW
HStem: -219 111<82 103> 520 20<124 278 278 278 509 653 653 653> 621 120<287 371 261 397 287 447 473 557>
LayerCount: 2
Fore
SplineSet
509 540 m 1
 653 540 l 1
 295 -98 l 2
 259 -163 237 -185 194 -202 c 0
 164 -213 125 -219 81 -219 c 0
 60 -219 50 -218 37 -215 c 1
 60 -106 l 1
 71 -108 76 -108 88 -108 c 0
 157 -108 201 -72 201 -15 c 1
 200 0 l 1
 124 540 l 1
 278 540 l 1
 314 147 l 1
 509 540 l 1
397 741 m 1
 371 621 l 1
 261 621 l 1
 287 741 l 1
 397 741 l 1
583 741 m 1
 557 621 l 1
 447 621 l 1
 473 741 l 1
 583 741 l 1
EndSplineSet
EndChar

StartChar: Amacron
Encoding: 308 256 201
Width: 722
Flags: MW
HStem: 0 20 147 125<329 518 329 532 260 518> 535 20<483 483> 709 20<433 606 606 606> 821 80<406 689 389 706>
LayerCount: 2
Fore
SplineSet
532 147 m 1
 260 147 l 1
 179 0 l 1
 26 0 l 1
 433 729 l 1
 606 729 l 1
 703 0 l 1
 550 0 l 1
 532 147 l 1
518 272 m 1
 483 555 l 1
 329 272 l 1
 518 272 l 1
706 901 m 1
 689 821 l 1
 389 821 l 1
 406 901 l 1
 706 901 l 1
EndSplineSet
EndChar

StartChar: Abreve
Encoding: 260 258 153
Width: 722
Flags: MW
HStem: 0 20 147 125<329 518 329 532 260 518> 535 20<483 483> 709 20<433 606 606 606> 791 78<524.5 571.5>
VStem: 26 48
LayerCount: 2
Fore
SplineSet
532 147 m 1
 260 147 l 1
 179 0 l 1
 26 0 l 1
 433 729 l 1
 606 729 l 1
 703 0 l 1
 550 0 l 1
 532 147 l 1
518 272 m 1
 483 555 l 1
 329 272 l 1
 518 272 l 1
651 934 m 1
 693 934 l 1
 679 852 611 791 532 791 c 0
 469 791 426 833 426 895 c 0
 426 907 427 916 432 934 c 1
 474 934 l 1
 474 926 l 2
 474 890 501 869 548 869 c 0
 599 869 634 891 651 934 c 1
EndSplineSet
EndChar

StartChar: abreve
Encoding: 326 259 219
Width: 556
Flags: W
HStem: -23 112<177.5 300> 437 112<331 388.5> 611 78<397.5 444.5>
VStem: 50 48 50 143<122.5 138> 363 143<22 65> 436 142<383.5 442.5>
LayerCount: 2
Fore
SplineSet
527 17 m 1xec
 523 0 l 1
 370 0 l 1
 365 11 363 17 363 27 c 0xec
 363 34 363 39 366 54 c 1
 306 0 257 -23 199 -23 c 0
 156 -23 122 -13 97 8 c 0
 68 32 50 70 50 108 c 0
 50 168 83 229 136 267 c 0
 167 289 204 303 252 311 c 2
 310 320 l 1
 382 330 382 330 402 341 c 0
 422 351 436 373 436 394 c 0
 436 424 414 437 363 437 c 0
 299 437 268 417 251 362 c 1
 120 362 l 1
 148 492 229 549 386 549 c 0
 456 549 505 537 537 511 c 0
 560 492 578 457 578 428 c 0xea
 578 416 576 401 572 383 c 2
 509 83 l 2
 507 75 506 68 506 62 c 0
 506 47 512 34 527 17 c 1xec
400 217 m 2
 408 255 l 1
 396 248 393 247 382 245 c 0
 378 244 371 243 361 241 c 2
 345 238 l 1
 295 230 l 2
 230 219 193 186 193 139 c 0
 193 106 218 89 266 89 c 0
 334 89 382 135 400 217 c 2
524 754 m 1xf0
 566 754 l 1
 552 672 484 611 405 611 c 0
 342 611 299 653 299 715 c 0
 299 727 300 736 305 754 c 1
 347 754 l 1
 347 746 l 2
 347 710 374 689 421 689 c 0
 472 689 507 711 524 754 c 1xf0
EndSplineSet
EndChar

StartChar: Aogonek
Encoding: 263 260 156
Width: 722
Flags: MW
HStem: -233 50<605 619> 147 125<329 518 329 532 260 518> 535 20<483 483> 709 20<433 606 606 606>
VStem: 469 100<-155 -135>
LayerCount: 2
Fore
SplineSet
532 147 m 1
 260 147 l 1
 179 0 l 1
 26 0 l 1
 433 729 l 1
 606 729 l 1
 703 0 l 1
 625 -32 569 -91 569 -140 c 0
 569 -170 586 -183 624 -183 c 0
 650 -183 672 -180 696 -172 c 1
 685 -224 l 1
 654 -231 633 -233 605 -233 c 0
 518 -233 469 -205 469 -155 c 0
 469 -115 494 -74 537 -43 c 0
 561 -25 581 -15 625 0 c 1
 550 0 l 1
 532 147 l 1
518 272 m 1
 483 555 l 1
 329 272 l 1
 518 272 l 1
EndSplineSet
EndChar

StartChar: aogonek
Encoding: 329 261 222
Width: 556
Flags: W
HStem: -233 50<425.5 442.5> -23 112<177.5 300> 437 112<331 388.5>
VStem: 50 143<122.5 138> 293 99<-154.5 -123> 363 143<22 65> 436 142<383.5 442.5>
LayerCount: 2
Fore
SplineSet
527 17 m 1xe4
 523 0 l 1
 435 -47 392 -93 392 -140 c 0
 392 -169 408 -183 443 -183 c 0
 474 -183 495 -180 519 -172 c 1
 509 -224 l 1
 477 -231 457 -233 428 -233 c 0
 340 -233 293 -206 293 -154 c 0xf8
 293 -92 346 -39 449 0 c 1
 370 0 l 1
 365 11 363 17 363 27 c 0xe4
 363 34 363 39 366 54 c 1
 306 0 257 -23 199 -23 c 0
 156 -23 122 -13 97 8 c 0
 68 32 50 70 50 108 c 0
 50 168 83 229 136 267 c 0
 167 289 204 303 252 311 c 2
 310 320 l 1
 382 330 382 330 402 341 c 0
 422 351 436 373 436 394 c 0
 436 424 414 437 363 437 c 0
 299 437 268 417 251 362 c 1
 120 362 l 1
 148 492 229 549 386 549 c 0
 456 549 505 537 537 511 c 0
 560 492 578 457 578 428 c 0xf2
 578 416 576 401 572 383 c 2
 509 83 l 2
 507 75 506 68 506 62 c 0
 506 47 512 34 527 17 c 1xe4
400 217 m 2
 408 255 l 1
 396 248 393 247 382 245 c 0
 378 244 371 243 361 241 c 2
 345 238 l 1
 295 230 l 2
 230 219 193 186 193 139 c 0
 193 106 218 89 266 89 c 0
 334 89 382 135 400 217 c 2
EndSplineSet
EndChar

StartChar: cacute
Encoding: 330 263 223
Width: 556
Flags: MW
HStem: -23 112<279 336 279 356.5> 437 112<351 393.5>
VStem: 77 143<157.5 218.5 157.5 219.5>
LayerCount: 2
Fore
SplineSet
593 338 m 1
 459 338 l 1
 458 377 456 389 448 404 c 1
 435 425 410 437 377 437 c 0
 322 437 285 411 257 352 c 1
 233 304 220 245 220 192 c 0
 220 123 249 89 309 89 c 0
 363 89 396 116 427 187 c 1
 561 187 l 1
 519 53 421 -23 292 -23 c 0
 218 -23 163 -3 127 38 c 0
 95 73 77 122 77 172 c 0
 77 267 119 384 178 454 c 0
 230 517 304 549 398 549 c 0
 465 549 511 532 549 494 c 0
 580 463 597 423 597 381 c 0
 597 371 596 362 593 338 c 1
573 757 m 1
 415 607 l 1
 345 607 l 1
 447 757 l 1
 573 757 l 1
EndSplineSet
EndChar

StartChar: Ccaron
Encoding: 266 268 159
Width: 722
Flags: MW
HStem: -23 128<354.5 451 354.5 473> 613 128<476 542.5>
VStem: 107 149<211.5 299.5>
LayerCount: 2
Fore
SplineSet
789 482 m 1
 648 482 l 1
 648 521 644 540 631 560 c 0
 610 594 569 613 516 613 c 0
 436 613 374 578 327 504 c 0
 282 434 256 346 256 264 c 0
 256 159 306 105 403 105 c 0
 499 105 570 157 599 249 c 1
 742 249 l 1
 698 78 564 -23 382 -23 c 0
 211 -23 107 75 107 235 c 0
 107 364 151 499 222 587 c 0
 303 688 410 741 533 741 c 0
 688 741 793 656 793 532 c 0
 793 521 792 510 789 482 c 1
610 789 m 1
 502 789 l 1
 431 936 l 1
 509 936 l 1
 570 839 l 1
 673 936 l 1
 749 936 l 1
 610 789 l 1
EndSplineSet
EndChar

StartChar: ccaron
Encoding: 331 269 224
Width: 556
Flags: MW
HStem: -23 112<279 336 279 356.5> 437 112<351 393.5>
VStem: 77 143<157.5 218.5 157.5 219.5>
LayerCount: 2
Fore
SplineSet
593 338 m 1
 459 338 l 1
 458 377 456 389 448 404 c 1
 435 425 410 437 377 437 c 0
 322 437 285 411 257 352 c 1
 233 304 220 245 220 192 c 0
 220 123 249 89 309 89 c 0
 363 89 396 116 427 187 c 1
 561 187 l 1
 519 53 421 -23 292 -23 c 0
 218 -23 163 -3 127 38 c 0
 95 73 77 122 77 172 c 0
 77 267 119 384 178 454 c 0
 230 517 304 549 398 549 c 0
 465 549 511 532 549 494 c 0
 580 463 597 423 597 381 c 0
 597 371 596 362 593 338 c 1
468 610 m 1
 360 610 l 1
 289 757 l 1
 367 757 l 1
 428 660 l 1
 531 757 l 1
 607 757 l 1
 468 610 l 1
EndSplineSet
EndChar

StartChar: Dcaron
Encoding: 267 270 160
Width: 722
Flags: MW
HStem: 0 125<254 362> 604 125<355 490 355 355>
VStem: 627 149<429.5 514.5>
LayerCount: 2
Fore
SplineSet
77 0 m 1
 232 729 l 1
 517 729 l 2
 698 729 776 654 776 479 c 0
 776 361 735 238 664 140 c 0
 591 39 507 0 362 0 c 2
 77 0 l 1
254 125 m 1
 388 125 l 2
 475 125 524 153 567 228 c 0
 601 287 627 390 627 469 c 0
 627 560 582 604 490 604 c 2
 355 604 l 1
 254 125 l 1
547 789 m 1
 439 789 l 1
 368 936 l 1
 446 936 l 1
 507 839 l 1
 610 936 l 1
 686 936 l 1
 547 789 l 1
EndSplineSet
EndChar

StartChar: dcaron
Encoding: 333 271 226
Width: 722
Flags: W
HStem: -23 112<282.5 284.5> 437 112<338.5 406 331.5 407> 617 112<760 803 560 736> 709 20<560 700 700 700 760 882 882 882>
VStem: 79 143<170 226>
LayerCount: 2
Fore
SplineSet
405 0 m 1xd8
 417 55 l 1
 371 2 318 -23 251 -23 c 0
 147 -23 79 59 79 185 c 0
 79 267 108 357 157 428 c 0
 209 503 291 549 372 549 c 0
 440 549 482 524 505 470 c 1
 560 729 l 1
 700 729 l 1
 545 0 l 1
 405 0 l 1xd8
380 437 m 0
 297 437 222 327 222 206 c 0
 222 134 256 89 309 89 c 0
 394 89 468 197 468 323 c 0
 468 393 434 437 380 437 c 0
760 729 m 1x28
 882 729 l 1
 861 633 l 1
 851 555 784 488 708 482 c 1
 718 528 l 1
 762 536 797 572 803 617 c 1
 736 617 l 1
 760 729 l 1x28
EndSplineSet
EndChar

StartChar: Dcroat
Encoding: 390 272 283
Width: 722
Flags: MW
HStem: 0 125<254 362> 341 80<90 150 73 166 316 473> 604 125<355 490 355 355>
VStem: 627 149<429.5 514.5>
LayerCount: 2
Fore
SplineSet
150 341 m 1
 73 341 l 1
 90 421 l 1
 166 421 l 1
 232 729 l 1
 517 729 l 2
 698 729 776 654 776 479 c 0
 776 361 735 238 664 140 c 0
 591 39 507 0 362 0 c 2
 77 0 l 1
 150 341 l 1
300 341 m 1
 254 125 l 1
 388 125 l 2
 475 125 524 153 567 228 c 0
 601 287 627 390 627 469 c 0
 627 560 582 604 490 604 c 2
 355 604 l 1
 316 421 l 1
 490 421 l 1
 473 341 l 1
 300 341 l 1
EndSplineSet
EndChar

StartChar: dcroat
Encoding: 392 273 285
Width: 611
Flags: MW
HStem: -23 112<282.5 284.5> 437 112<338.5 406 331.5 407> 596 67<406 532 392 546 686 732> 709 20<560 700 700 700>
VStem: 79 143<170 226>
LayerCount: 2
Fore
SplineSet
546 663 m 1
 560 729 l 1
 700 729 l 1
 686 663 l 1
 746 663 l 1
 732 596 l 1
 672 596 l 1
 545 0 l 1
 405 0 l 1
 417 55 l 1
 371 2 318 -23 251 -23 c 0
 147 -23 79 59 79 185 c 0
 79 267 108 357 157 428 c 0
 210 503 291 549 372 549 c 0
 440 549 482 524 505 470 c 1
 532 596 l 1
 392 596 l 1
 406 663 l 1
 546 663 l 1
380 437 m 0
 297 437 222 327 222 206 c 0
 222 134 256 89 309 89 c 0
 394 89 468 197 468 323 c 0
 468 392 434 437 380 437 c 0
EndSplineSet
EndChar

StartChar: Emacron
Encoding: 311 274 204
Width: 667
Flags: MW
HStem: 0 125<256 624> 314 125<296 671 322 645> 604 125<357 735 357 357> 821 80<386 669 369 686>
LayerCount: 2
Fore
SplineSet
296 314 m 1
 256 125 l 1
 651 125 l 1
 624 0 l 1
 79 0 l 1
 234 729 l 1
 762 729 l 1
 735 604 l 1
 357 604 l 1
 322 439 l 1
 671 439 l 1
 645 314 l 1
 296 314 l 1
686 901 m 1
 669 821 l 1
 369 821 l 1
 386 901 l 1
 686 901 l 1
EndSplineSet
EndChar

StartChar: Edotaccent
Encoding: 273 278 166
Width: 667
Flags: MW
HStem: 0 125<256 624> 314 125<296 671 322 645> 604 125<357 735 357 357> 798 120<482 566 456 592>
LayerCount: 2
Fore
SplineSet
296 314 m 1
 256 125 l 1
 651 125 l 1
 624 0 l 1
 79 0 l 1
 234 729 l 1
 762 729 l 1
 735 604 l 1
 357 604 l 1
 322 439 l 1
 671 439 l 1
 645 314 l 1
 296 314 l 1
592 918 m 1
 566 798 l 1
 456 798 l 1
 482 918 l 1
 592 918 l 1
EndSplineSet
EndChar

StartChar: Eogonek
Encoding: 274 280 167
Width: 667
Flags: MW
HStem: -233 50<530.5 545> 0 125<256 551 624 624> 314 125<296 671 322 645> 604 125<357 735 357 357>
VStem: 395 100<-156.5 -135.5>
LayerCount: 2
Fore
SplineSet
296 314 m 1
 256 125 l 1
 651 125 l 1
 624 0 l 1
 533 -51 495 -93 495 -143 c 0
 495 -170 512 -183 549 -183 c 0
 576 -183 598 -180 622 -172 c 1
 611 -224 l 1
 580 -231 559 -233 531 -233 c 0
 444 -233 395 -205 395 -156 c 0
 395 -115 419 -74 463 -43 c 0
 487 -25 507 -15 551 0 c 1
 79 0 l 1
 234 729 l 1
 762 729 l 1
 735 604 l 1
 357 604 l 1
 322 439 l 1
 671 439 l 1
 645 314 l 1
 296 314 l 1
EndSplineSet
EndChar

StartChar: eogonek
Encoding: 340 281 233
Width: 556
Flags: MW
HStem: -233 50<355.5 368> -24 113<273.5 285.5> 226 93<228 448 228 573 210 448> 437 112<342 379.5>
VStem: 64 143<153.5 185.5 153.5 234> 222 99<-154 -126.5> 448 143<332 334 334 350>
LayerCount: 2
Fore
SplineSet
443 -172 m 1
 432 -224 l 1
 401 -230 380 -233 356 -233 c 0
 271 -233 222 -203 222 -152 c 0
 222 -101 249 -69 335 -17 c 1
 308 -22 295 -24 276 -24 c 0
 150 -24 64 61 64 184 c 0
 64 284 110 402 174 469 c 0
 221 518 301 549 379 549 c 0
 452 549 510 525 546 480 c 0
 574 444 591 397 591 351 c 0
 591 313 585 271 573 226 c 1
 210 226 l 1
 207 198 207 190 207 181 c 0
 207 126 245 89 302 89 c 0
 350 89 394 114 414 152 c 1
 552 152 l 1
 526 98 486 53 415 -1 c 1
 359 -46 321 -102 321 -140 c 0
 321 -168 339 -183 372 -183 c 0
 398 -183 423 -179 443 -172 c 1
448 319 m 1
 448 334 l 2
 448 366 446 377 439 392 c 0
 426 420 397 437 362 437 c 0
 322 437 282 418 258 386 c 0
 245 369 237 351 228 319 c 1
 448 319 l 1
EndSplineSet
EndChar

StartChar: Ecaron
Encoding: 272 282 165
Width: 667
Flags: MW
HStem: 0 125<256 624> 314 125<296 671 322 645> 604 125<357 735 357 357>
LayerCount: 2
Fore
SplineSet
296 314 m 1
 256 125 l 1
 651 125 l 1
 624 0 l 1
 79 0 l 1
 234 729 l 1
 762 729 l 1
 735 604 l 1
 357 604 l 1
 322 439 l 1
 671 439 l 1
 645 314 l 1
 296 314 l 1
563 789 m 1
 455 789 l 1
 384 936 l 1
 462 936 l 1
 523 839 l 1
 626 936 l 1
 702 936 l 1
 563 789 l 1
EndSplineSet
EndChar

StartChar: Gbreve
Encoding: 275 286 168
Width: 778
Flags: W
HStem: -23 128<377 441.5> 267 125<503 642 476 795> 613 128<485.5 566.5> 791 78<552.5 599.5>
VStem: 107 48 107 149<232.5 319.5 232.5 320>
LayerCount: 2
Fore
SplineSet
795 392 m 1xf4
 711 -2 l 1
 621 -2 l 1
 628 88 l 1
 554 9 488 -23 395 -23 c 0
 219 -23 107 88 107 262 c 0
 107 378 155 505 233 596 c 0
 315 691 424 741 547 741 c 0
 710 741 819 655 819 529 c 0
 819 521 818 510 817 496 c 1
 679 496 l 1
 671 571 614 613 519 613 c 0
 434 613 366 575 318 501 c 0
 282 446 256 355 256 284 c 0
 256 181 328 105 426 105 c 0
 484 105 543 130 588 175 c 0
 615 201 629 226 642 267 c 1
 476 267 l 1
 503 392 l 1
 795 392 l 1xf4
679 934 m 1xf8
 721 934 l 1
 707 852 639 791 560 791 c 0
 497 791 454 833 454 895 c 0
 454 907 455 916 460 934 c 1
 502 934 l 1
 502 926 l 2
 502 890 529 869 576 869 c 0
 627 869 662 891 679 934 c 1xf8
EndSplineSet
EndChar

StartChar: gbreve
Encoding: 341 287 234
Width: 611
Flags: W
HStem: -218 90<233.5 294.5 233.5 318> -23 112<280 285> 437 112<340 407> 611 78<428.5 475.5>
VStem: 26 48 26 146<-115 -77> 79 143<166.5 215.5>
LayerCount: 2
Fore
SplineSet
523 540 m 1xf2
 656 540 l 1
 537 -18 l 2
 510 -146 401 -218 235 -218 c 0
 173 -218 129 -210 93 -192 c 0
 52 -172 26 -134 26 -96 c 0
 26 -88 27 -77 29 -65 c 1
 173 -65 l 1
 172 -77 l 1xf4
 172 -106 209 -128 258 -128 c 0
 331 -128 390 -83 404 -18 c 2
 420 55 l 1
 356 -4 316 -23 254 -23 c 0
 153 -23 79 57 79 167 c 0
 79 264 116 374 174 445 c 0
 227 511 302 549 378 549 c 0
 437 549 478 519 505 457 c 1
 523 540 l 1xf2
379 437 m 0xf2
 297 437 222 324 222 201 c 0
 222 132 254 89 306 89 c 0
 395 89 471 193 471 315 c 0
 471 389 435 437 379 437 c 0xf2
555 754 m 1xf8
 597 754 l 1
 583 672 515 611 436 611 c 0
 373 611 330 653 330 715 c 0
 330 727 331 736 336 754 c 1
 378 754 l 1
 378 746 l 2
 378 710 405 689 452 689 c 0
 503 689 538 711 555 754 c 1xf8
EndSplineSet
EndChar

StartChar: Gcommaaccent
Encoding: 319 290 212
Width: 778
Flags: MW
HStem: -172 112<323 366 299 445> -23 128<377 441.5> 267 125<503 642 476 795> 613 128<485.5 566.5>
VStem: 107 149<232.5 319.5 232.5 320>
LayerCount: 2
Fore
SplineSet
795 392 m 1
 711 -2 l 1
 621 -2 l 1
 628 88 l 1
 554 9 488 -23 395 -23 c 0
 219 -23 107 88 107 262 c 0
 107 378 155 505 233 596 c 0
 315 691 424 741 547 741 c 0
 710 741 819 655 819 529 c 0
 819 521 818 510 817 496 c 1
 679 496 l 1
 671 571 614 613 519 613 c 0
 434 613 366 575 318 501 c 0
 282 446 256 355 256 284 c 0
 256 181 328 105 426 105 c 0
 484 105 543 130 588 175 c 0
 615 201 629 226 642 267 c 1
 476 267 l 1
 503 392 l 1
 795 392 l 1
323 -60 m 1
 445 -60 l 1
 424 -156 l 1
 414 -234 347 -301 271 -307 c 1
 281 -261 l 1
 325 -253 360 -217 366 -172 c 1
 299 -172 l 1
 323 -60 l 1
EndSplineSet
EndChar

StartChar: gcommaaccent
Encoding: 386 291 279
Width: 611
Flags: W
HStem: -218 90<233.5 294.5 233.5 318> -23 112<280 285> 437 112<340 407> 607 112<450 493 371 516>
VStem: 26 146<-115 -77> 79 143<166.5 215.5>
LayerCount: 2
Fore
SplineSet
523 540 m 1xf4
 656 540 l 1
 537 -18 l 2
 510 -146 401 -218 235 -218 c 0
 173 -218 129 -210 93 -192 c 0
 52 -172 26 -134 26 -96 c 0
 26 -88 27 -77 29 -65 c 1
 173 -65 l 1
 172 -77 l 1xf8
 172 -106 209 -128 258 -128 c 0
 331 -128 390 -83 404 -18 c 2
 420 55 l 1
 356 -4 316 -23 254 -23 c 0
 153 -23 79 57 79 167 c 0
 79 264 116 374 174 445 c 0
 227 511 302 549 378 549 c 0
 437 549 478 519 505 457 c 1
 523 540 l 1xf4
379 437 m 0xf4
 297 437 222 324 222 201 c 0
 222 132 254 89 306 89 c 0
 395 89 471 193 471 315 c 0
 471 389 435 437 379 437 c 0xf4
493 607 m 1xf0
 371 607 l 1
 391 703 l 1
 402 781 469 848 545 854 c 1
 535 808 l 1
 490 800 456 764 450 719 c 1
 516 719 l 1
 493 607 l 1xf0
EndSplineSet
EndChar

StartChar: Hbar
Encoding: 636 294 529
Width: 762
Flags: MW
HStem: 0 21G<88 238 88 88 527 677 527 527> 331 125<335 597 308 623> 562 80<154 207 137 225 375 646 814 865> 709 20G<243 393 393 393 681 832 832 832>
LayerCount: 2
Fore
SplineSet
814 642 m 1
 882 642 l 1
 865 562 l 1
 796 562 l 1
 677 0 l 1
 527 0 l 1
 597 331 l 1
 308 331 l 1
 238 0 l 1
 88 0 l 1
 207 562 l 1
 137 562 l 1
 154 642 l 1
 225 642 l 1
 243 729 l 1
 393 729 l 1
 375 642 l 1
 663 642 l 1
 681 729 l 1
 832 729 l 1
 814 642 l 1
646 562 m 1
 358 562 l 1
 335 456 l 1
 623 456 l 1
 646 562 l 1
EndSplineSet
EndChar

StartChar: hbar
Encoding: 637 295 530
Width: 611
Flags: MW
HStem: 0 21G<67 207 67 67 406 546 406 406> 437 112<374 527.5> 563 80<147 187 130 204 344 430> 709 20G<222 362 362 362>
LayerCount: 2
Fore
SplineSet
204 643 m 1
 222 729 l 1
 362 729 l 1
 344 643 l 1
 447 643 l 1
 430 563 l 1
 326 563 l 1
 304 458 l 1
 357 521 413 549 484 549 c 0
 571 549 629 496 629 417 c 0
 629 399 627 381 623 362 c 2
 546 0 l 1
 406 0 l 1
 473 313 l 2
 477 334 479 348 479 361 c 0
 479 410 453 437 406 437 c 0
 342 437 289 385 272 304 c 2
 207 0 l 1
 67 0 l 1
 187 563 l 1
 130 563 l 1
 147 643 l 1
 204 643 l 1
EndSplineSet
EndChar

StartChar: Imacron
Encoding: 312 298 205
Width: 278
Flags: MW
HStem: 0 20 709 20<218 368 368 368> 821 80<193 449 176 466>
LayerCount: 2
Fore
SplineSet
368 729 m 1
 213 0 l 1
 63 0 l 1
 218 729 l 1
 368 729 l 1
466 901 m 1
 449 821 l 1
 176 821 l 1
 193 901 l 1
 466 901 l 1
EndSplineSet
EndChar

StartChar: imacron
Encoding: 376 299 269
Width: 278
Flags: MW
HStem: 0 20 520 20<182 322 322 322> 642 80<157 407 140 424>
LayerCount: 2
Fore
SplineSet
322 540 m 1
 207 0 l 1
 67 0 l 1
 182 540 l 1
 322 540 l 1
424 722 m 1
 407 642 l 1
 140 642 l 1
 157 722 l 1
 424 722 l 1
EndSplineSet
EndChar

StartChar: Iogonek
Encoding: 313 302 206
Width: 278
Flags: MW
HStem: -233 50<135.5 139.5> 709 20<218 368 368 368>
VStem: 7 97<-153 -126.5>
LayerCount: 2
Fore
SplineSet
368 729 m 1
 213 0 l 1
 153 -32 104 -95 104 -139 c 0
 104 -167 121 -183 150 -183 c 0
 164 -183 192 -178 210 -172 c 1
 199 -224 l 1
 165 -231 151 -233 128 -233 c 0
 53 -233 7 -204 7 -155 c 0
 7 -98 49 -50 139 0 c 1
 63 0 l 1
 218 729 l 1
 368 729 l 1
EndSplineSet
EndChar

StartChar: iogonek
Encoding: 387 303 280
Width: 268
Flags: MW
HStem: -233 51<127.5 128.5> 604 125<211 325 185 351>
VStem: 0 96<-153.5 -124>
LayerCount: 2
Fore
SplineSet
311 540 m 1
 196 0 l 1
 132 -45 96 -95 96 -140 c 0
 96 -167 112 -182 143 -182 c 0
 158 -182 163 -181 193 -172 c 1
 182 -224 l 1
 141 -233 138 -233 119 -233 c 0
 45 -233 0 -202 0 -150 c 0
 0 -98 36 -56 129 0 c 1
 56 0 l 1
 171 540 l 1
 311 540 l 1
351 729 m 1
 325 604 l 1
 185 604 l 1
 211 729 l 1
 351 729 l 1
EndSplineSet
EndChar

StartChar: Idotaccent
Encoding: 280 304 173
Width: 278
Flags: MW
HStem: 0 20 709 20<218 368 368 368> 798 120<278 362 252 388>
LayerCount: 2
Fore
SplineSet
368 729 m 1
 213 0 l 1
 63 0 l 1
 218 729 l 1
 368 729 l 1
388 918 m 1
 362 798 l 1
 252 798 l 1
 278 918 l 1
 388 918 l 1
EndSplineSet
EndChar

StartChar: dotlessi
Encoding: 245 305 144
Width: 278
Flags: MW
HStem: 0 20 520 20<182 322 322 322>
LayerCount: 2
Fore
SplineSet
322 540 m 1
 207 0 l 1
 67 0 l 1
 182 540 l 1
 322 540 l 1
EndSplineSet
EndChar

StartChar: IJ
Encoding: 642 306 535
Width: 782
Flags: MW
HStem: -23 128<489.5 535 489.5 556.5> 709 20G<218 368 368 368 726 876 876 876>
LayerCount: 2
Fore
SplineSet
726 729 m 1
 876 729 l 1
 761 190 l 2
 732 54 631 -23 482 -23 c 0
 375 -23 293 28 293 132 c 0
 293 151 296 173 301 198 c 2
 316 270 l 1
 466 270 l 1
 451 200 l 2
 448 186 446 173 446 162 c 0
 446 122 467 105 512 105 c 0
 558 105 600 135 611 190 c 2
 726 729 l 1
368 729 m 1
 213 0 l 1
 63 0 l 1
 218 729 l 1
 368 729 l 1
EndSplineSet
Ligature2: "'liga' Standard Ligatures in Latin lookup 0 subtable" I J
EndChar

StartChar: ij
Encoding: 643 307 536
Width: 476
Flags: MW
HStem: -218 112<209 231 209 269> 0 21G<67 207 67 67> 520 20G<182 322 322 322 395 535 535 535> 604 125<222 335 195 362 435 548 222 408>
LayerCount: 2
Fore
SplineSet
575 729 m 1
 548 604 l 1
 408 604 l 1
 435 729 l 1
 575 729 l 1
535 540 m 1
 400 -94 l 2
 382 -181 326 -218 212 -218 c 0
 193 -218 181 -217 167 -213 c 1
 191 -102 l 1
 195 -105 202 -106 216 -106 c 0
 246 -106 260 -94 267 -62 c 2
 395 540 l 1
 535 540 l 1
322 540 m 1
 207 0 l 1
 67 0 l 1
 182 540 l 1
 322 540 l 1
362 729 m 1
 335 604 l 1
 195 604 l 1
 222 729 l 1
 362 729 l 1
EndSplineSet
Ligature2: "'liga' Standard Ligatures in Latin lookup 0 subtable" i j
EndChar

StartChar: jcircumflex
Encoding: 645 309 538
Width: 278
Flags: MW
HStem: -218 112<-1 21 -1 59> 520 20G<185 325 325 325> 715 21G<124 200 124 124 364 442 364 364>
VStem: -43 485
LayerCount: 2
Fore
SplineSet
325 540 m 1
 190 -94 l 2
 172 -181 116 -218 2 -218 c 0
 -17 -218 -29 -217 -43 -213 c 1
 -19 -102 l 1
 -15 -105 -8 -106 6 -106 c 0
 36 -106 50 -94 57 -62 c 2
 185 540 l 1
 325 540 l 1
263 862 m 1
 371 862 l 1
 442 715 l 1
 364 715 l 1
 303 812 l 1
 200 715 l 1
 124 715 l 1
 263 862 l 1
EndSplineSet
EndChar

StartChar: Kcommaaccent
Encoding: 314 310 207
Width: 722
Flags: MW
HStem: -172 112<305 348 281 427> 0 20 709 20<229 379 379 379 665 843 843 843>
LayerCount: 2
Fore
SplineSet
274 234 m 1
 224 0 l 1
 74 0 l 1
 229 729 l 1
 379 729 l 1
 311 409 l 1
 665 729 l 1
 843 729 l 1
 482 410 l 1
 717 0 l 1
 538 0 l 1
 365 314 l 1
 274 234 l 1
305 -60 m 1
 427 -60 l 1
 406 -156 l 1
 396 -234 329 -301 253 -307 c 1
 263 -261 l 1
 307 -253 342 -217 348 -172 c 1
 281 -172 l 1
 305 -60 l 1
EndSplineSet
EndChar

StartChar: kcommaaccent
Encoding: 377 311 270
Width: 556
Flags: MW
HStem: -172 112<220 263 196 342> 0 20 709 20<214 354 354 354>
LayerCount: 2
Fore
SplineSet
354 729 m 1
 269 330 l 1
 492 540 l 1
 651 540 l 1
 419 334 l 1
 548 0 l 1
 384 0 l 1
 305 239 l 1
 237 177 l 1
 199 0 l 1
 59 0 l 1
 214 729 l 1
 354 729 l 1
220 -60 m 1
 342 -60 l 1
 321 -156 l 1
 311 -234 244 -301 168 -307 c 1
 178 -261 l 1
 222 -253 257 -217 263 -172 c 1
 196 -172 l 1
 220 -60 l 1
EndSplineSet
EndChar

StartChar: Lacute
Encoding: 281 313 174
Width: 611
Flags: MW
HStem: 0 125<257 579> 709 20<235 385 385 385>
LayerCount: 2
Fore
SplineSet
385 729 m 1
 257 125 l 1
 606 125 l 1
 579 0 l 1
 80 0 l 1
 235 729 l 1
 385 729 l 1
494 936 m 1
 336 786 l 1
 266 786 l 1
 368 936 l 1
 494 936 l 1
EndSplineSet
EndChar

StartChar: lacute
Encoding: 346 314 239
Width: 278
Flags: MW
HStem: 0 20 709 20<222 362 362 362>
LayerCount: 2
Fore
SplineSet
362 729 m 1
 207 0 l 1
 67 0 l 1
 222 729 l 1
 362 729 l 1
474 936 m 1
 316 786 l 1
 246 786 l 1
 348 936 l 1
 474 936 l 1
EndSplineSet
EndChar

StartChar: Lcommaaccent
Encoding: 315 315 208
Width: 611
Flags: MW
HStem: -172 112 0 125<257 579> 709 20<235 385 385 385>
LayerCount: 2
Fore
SplineSet
385 729 m 1
 257 125 l 1
 606 125 l 1
 579 0 l 1
 80 0 l 1
 235 729 l 1
 385 729 l 1
265 -62 m 1
 387 -62 l 1
 366 -158 l 1
 356 -236 289 -303 213 -309 c 1
 223 -263 l 1
 267 -255 302 -219 308 -174 c 1
 241 -174 l 1
 265 -62 l 1
EndSplineSet
EndChar

StartChar: lcommaaccent
Encoding: 378 316 271
Width: 278
Flags: MW
HStem: -172 112<63 106 39 185> 709 20<222 362 362 362>
LayerCount: 2
Fore
SplineSet
362 729 m 1
 207 0 l 1
 67 0 l 1
 222 729 l 1
 362 729 l 1
63 -60 m 1
 185 -60 l 1
 164 -156 l 1
 154 -234 87 -301 11 -307 c 1
 21 -261 l 1
 65 -253 100 -217 106 -172 c 1
 39 -172 l 1
 63 -60 l 1
EndSplineSet
EndChar

StartChar: Lcaron
Encoding: 282 317 175
Width: 611
Flags: W
HStem: 0 125<257 579> 617 112<485 528 235 461> 709 20<235 385 385 385 485 607 607 607>
LayerCount: 2
Fore
SplineSet
385 729 m 1xa0
 257 125 l 1
 606 125 l 1
 579 0 l 1
 80 0 l 1
 235 729 l 1
 385 729 l 1xa0
485 729 m 1x40
 607 729 l 1
 586 633 l 1
 576 555 509 488 433 482 c 1
 443 528 l 1
 487 536 522 572 528 617 c 1
 461 617 l 1
 485 729 l 1x40
EndSplineSet
EndChar

StartChar: lcaron
Encoding: 347 318 240
Width: 384
Flags: W
HStem: 0 20 617 112<422 465 222 398> 709 20<222 362 362 362 422 544 544 544>
LayerCount: 2
Fore
SplineSet
362 729 m 1xa0
 207 0 l 1
 67 0 l 1
 222 729 l 1
 362 729 l 1xa0
422 729 m 1x40
 544 729 l 1
 523 633 l 1
 513 555 446 488 370 482 c 1
 380 528 l 1
 424 536 459 572 465 617 c 1
 398 617 l 1
 422 729 l 1x40
EndSplineSet
EndChar

StartChar: Ldot
Encoding: 647 319 540
Width: 611
Flags: MW
HStem: 0 125<257 579> 314 100<448 531 426 553> 709 20G<235 385 385 385>
LayerCount: 2
Fore
SplineSet
553 414 m 1
 531 314 l 1
 426 314 l 1
 448 414 l 1
 553 414 l 1
385 729 m 1
 257 125 l 1
 606 125 l 1
 579 0 l 1
 80 0 l 1
 235 729 l 1
 385 729 l 1
EndSplineSet
Ligature2: "'liga' Standard Ligatures in Latin lookup 0 subtable" L periodcentered
EndChar

StartChar: ldot
Encoding: 648 320 541
Width: 556
Flags: MW
HStem: 0 21G<67 207 67 67> 294 100<413 496 391 518> 709 20G<222 362 362 362>
VStem: 67 451<0 394>
LayerCount: 2
Fore
SplineSet
518 394 m 1
 496 294 l 1
 391 294 l 1
 413 394 l 1
 518 394 l 1
362 729 m 1
 207 0 l 1
 67 0 l 1
 222 729 l 1
 362 729 l 1
EndSplineSet
Ligature2: "'liga' Standard Ligatures in Latin lookup 0 subtable" l periodcentered
EndChar

StartChar: Lslash
Encoding: 232 321 139
Width: 611
Flags: MW
HStem: 0 125<275 597> 709 20<253 403 403 403>
LayerCount: 2
Fore
SplineSet
338 421 m 1
 525 531 l 1
 505 437 l 1
 318 327 l 1
 275 125 l 1
 624 125 l 1
 597 0 l 1
 98 0 l 1
 154 262 l 1
 54 201 l 1
 74 295 l 1
 174 356 l 1
 253 729 l 1
 403 729 l 1
 338 421 l 1
EndSplineSet
EndChar

StartChar: lslash
Encoding: 248 322 145
Width: 278
Flags: MW
HStem: 0 20 709 20<219 359 359 359>
LayerCount: 2
Fore
SplineSet
296 435 m 1
 372 480 l 1
 355 398 l 1
 279 353 l 1
 204 0 l 1
 64 0 l 1
 126 294 l 1
 50 246 l 1
 67 329 l 1
 143 376 l 1
 219 729 l 1
 359 729 l 1
 296 435 l 1
EndSplineSet
EndChar

StartChar: Nacute
Encoding: 283 323 176
Width: 722
Flags: MW
HStem: 0 20 709 20<223 373 373 373 674 816 816 816>
LayerCount: 2
Fore
SplineSet
816 729 m 1
 661 0 l 1
 513 0 l 1
 321 523 l 1
 210 0 l 1
 68 0 l 1
 223 729 l 1
 373 729 l 1
 565 214 l 1
 674 729 l 1
 816 729 l 1
690 936 m 1
 532 786 l 1
 462 786 l 1
 564 936 l 1
 690 936 l 1
EndSplineSet
EndChar

StartChar: nacute
Encoding: 348 324 241
Width: 611
Flags: W
HStem: 0 20 437 112<371.5 526.5> 520 20<178 318 318 318>
VStem: 479 150<355.5 457>
LayerCount: 2
Fore
SplineSet
178 540 m 1xb0
 318 540 l 1x30
 300 458 l 1
 354 522 408 549 482 549 c 0
 571 549 629 497 629 417 c 0
 629 399 627 381 623 362 c 2
 546 0 l 1
 406 0 l 1
 473 313 l 2
 477 335 479 349 479 362 c 0
 479 410 453 437 405 437 c 0xd0
 338 437 285 386 268 304 c 2
 203 0 l 1
 63 0 l 1
 178 540 l 1xb0
594 757 m 1
 436 607 l 1
 366 607 l 1
 468 757 l 1
 594 757 l 1
EndSplineSet
EndChar

StartChar: Ncommaaccent
Encoding: 316 325 209
Width: 722
Flags: MW
HStem: -172 112<288 331 264 410> 0 20 709 20<223 373 373 373 674 816 816 816>
LayerCount: 2
Fore
SplineSet
816 729 m 1
 661 0 l 1
 513 0 l 1
 321 523 l 1
 210 0 l 1
 68 0 l 1
 223 729 l 1
 373 729 l 1
 565 214 l 1
 674 729 l 1
 816 729 l 1
288 -60 m 1
 410 -60 l 1
 389 -156 l 1
 379 -234 312 -301 236 -307 c 1
 246 -261 l 1
 290 -253 325 -217 331 -172 c 1
 264 -172 l 1
 288 -60 l 1
EndSplineSet
EndChar

StartChar: ncommaaccent
Encoding: 379 326 272
Width: 611
Flags: W
HStem: -172 112<231 274 207 353> 0 20 437 112<371.5 526.5> 520 20<178 318 318 318>
VStem: 479 150<355.5 457>
LayerCount: 2
Fore
SplineSet
178 540 m 1x58
 318 540 l 1x18
 300 458 l 1
 354 522 408 549 482 549 c 0
 571 549 629 497 629 417 c 0
 629 399 627 381 623 362 c 2
 546 0 l 1
 406 0 l 1
 473 313 l 2
 477 335 479 349 479 362 c 0
 479 410 453 437 405 437 c 0x68
 338 437 285 386 268 304 c 2
 203 0 l 1
 63 0 l 1
 178 540 l 1x58
231 -60 m 1x88
 353 -60 l 1
 332 -156 l 1
 322 -234 255 -301 179 -307 c 1
 189 -261 l 1
 233 -253 268 -217 274 -172 c 1
 207 -172 l 1
 231 -60 l 1x88
EndSplineSet
EndChar

StartChar: Ncaron
Encoding: 284 327 177
Width: 722
Flags: MW
HStem: 0 20 709 20<223 373 373 373 674 816 816 816>
LayerCount: 2
Fore
SplineSet
816 729 m 1
 661 0 l 1
 513 0 l 1
 321 523 l 1
 210 0 l 1
 68 0 l 1
 223 729 l 1
 373 729 l 1
 565 214 l 1
 674 729 l 1
 816 729 l 1
577 789 m 1
 469 789 l 1
 398 936 l 1
 476 936 l 1
 537 839 l 1
 640 936 l 1
 716 936 l 1
 577 789 l 1
EndSplineSet
EndChar

StartChar: ncaron
Encoding: 349 328 242
Width: 611
Flags: W
HStem: 0 20 437 112<371.5 526.5> 520 20<178 318 318 318>
VStem: 479 150<355.5 457>
LayerCount: 2
Fore
SplineSet
178 540 m 1xb0
 318 540 l 1x30
 300 458 l 1
 354 522 408 549 482 549 c 0
 571 549 629 497 629 417 c 0
 629 399 627 381 623 362 c 2
 546 0 l 1
 406 0 l 1
 473 313 l 2
 477 335 479 349 479 362 c 0
 479 410 453 437 405 437 c 0xd0
 338 437 285 386 268 304 c 2
 203 0 l 1
 63 0 l 1
 178 540 l 1xb0
478 610 m 1
 370 610 l 1
 299 757 l 1
 377 757 l 1
 438 660 l 1
 541 757 l 1
 617 757 l 1
 478 610 l 1
EndSplineSet
EndChar

StartChar: napostrophe
Encoding: 649 329 542
Width: 611
Flags: MW
HStem: 0 21G<63 203 63 63 406 546 406 406> 437 112<371.5 526.5> 695 20G<217 298 217 217>
LayerCount: 2
Fore
SplineSet
244 840 m 1
 380 840 l 1
 357 731 l 1
 345 643 283 587 189 580 c 1
 199 626 l 1
 257 636 289 665 298 715 c 1
 217 715 l 1
 244 840 l 1
178 540 m 1
 318 540 l 1
 300 458 l 1
 354 522 408 549 482 549 c 0
 571 549 629 497 629 417 c 0
 629 399 627 381 623 362 c 2
 546 0 l 1
 406 0 l 1
 473 313 l 2
 477 335 479 349 479 362 c 0
 479 410 453 437 405 437 c 0
 338 437 285 386 268 304 c 2
 203 0 l 1
 63 0 l 1
 178 540 l 1
EndSplineSet
EndChar

StartChar: Eng
Encoding: 650 330 543
Width: 722
Flags: MW
HStem: -166 107<369 424 424 451 347 424> 0 21G<68 210 68 68 513 513 660 660> 709 20G<223 373 373 373 674 816 816 816>
LayerCount: 2
Fore
SplineSet
513 0 m 2
 321 523 l 1
 210 0 l 1
 68 0 l 1
 223 729 l 1
 373 729 l 1
 565 214 l 1
 674 729 l 1
 816 729 l 1
 660 0 l 2
 640 -92 604 -166 451 -166 c 2
 347 -166 l 1
 369 -59 l 1
 424 -59 l 2
 482 -59 515 -39 515 -13 c 0
 515 -9 515 -4 513 0 c 2
EndSplineSet
EndChar

StartChar: eng
Encoding: 651 331 544
Width: 611
Flags: MW
HStem: -132 88<340 363.5 340 403 322 363.5> 0 21G<63 203 63 63 406 406 546 546> 520 20G<178 318 318 318>
LayerCount: 2
Fore
SplineSet
406 0 m 2
 473 313 l 2
 477 335 479 349 479 362 c 0
 479 410 453 437 405 437 c 0
 338 437 285 386 268 304 c 2
 203 0 l 1
 63 0 l 1
 178 540 l 1
 318 540 l 1
 300 458 l 1
 354 522 408 549 482 549 c 0
 571 549 629 497 629 417 c 0
 629 399 627 381 623 362 c 2
 546 0 l 2
 530 -75 490 -132 403 -132 c 2
 322 -132 l 1
 340 -44 l 1
 387 -44 401 -23 406 0 c 2
EndSplineSet
EndChar

StartChar: Omacron
Encoding: 317 332 210
Width: 778
Flags: MW
HStem: -23 128<368.5 457.5 368.5 459> 613 128<481 569> 821 80<433 716 416 733>
VStem: 106 149<227.5 318.5> 679 149<397.5 492>
LayerCount: 2
Fore
SplineSet
538 741 m 0
 721 741 828 635 828 455 c 0
 828 337 783 215 705 124 c 0
 619 22 523 -23 395 -23 c 0
 217 -23 106 86 106 261 c 0
 106 376 153 502 231 594 c 1
 313 693 414 741 538 741 c 0
519 613 m 0
 443 613 377 577 327 509 c 0
 283 448 255 360 255 282 c 0
 255 173 318 105 419 105 c 0
 496 105 559 140 609 210 c 0
 652 270 679 358 679 437 c 0
 679 547 619 613 519 613 c 0
733 901 m 1
 716 821 l 1
 416 821 l 1
 433 901 l 1
 733 901 l 1
EndSplineSet
EndChar

StartChar: omacron
Encoding: 380 333 273
Width: 611
Flags: MW
HStem: -23 112<294 350 294 353> 437 112<361.5 421.5> 642 80<306 589 289 606>
VStem: 82 143<169.5 220> 491 143<306 355.5>
LayerCount: 2
Fore
SplineSet
413 549 m 0
 550 549 634 473 634 349 c 0
 634 263 602 163 555 100 c 0
 494 19 407 -23 299 -23 c 0
 167 -23 82 55 82 177 c 0
 82 263 113 363 161 426 c 0
 220 505 310 549 413 549 c 0
391 437 m 0
 301 437 225 332 225 205 c 0
 225 134 264 89 324 89 c 0
 376 89 422 120 453 176 c 0
 477 218 491 271 491 320 c 0
 491 391 452 437 391 437 c 0
606 722 m 1
 589 642 l 1
 289 642 l 1
 306 722 l 1
 606 722 l 1
EndSplineSet
EndChar

StartChar: OE
Encoding: 234 338 141
Width: 1000
Flags: W
HStem: -23 128<337.5 359.5> 0 125<652 971> 314 125<692 1017 719 990> 604 125<754 1080 754 754> 613 128<443 510>
VStem: 90 149<221 309 221 311>
LayerCount: 2
Fore
SplineSet
692 314 m 1x34
 652 125 l 1
 997 125 l 1
 971 0 l 1
 481 0 l 1x64
 493 59 l 1
 437 -1 393 -23 326 -23 c 0
 185 -23 90 84 90 245 c 0
 90 377 146 527 230 619 c 0
 303 700 388 741 482 741 c 0x8c
 548 741 588 723 625 677 c 1
 636 729 l 1
 1107 729 l 1
 1080 604 l 1
 754 604 l 1
 719 439 l 1
 1017 439 l 1
 990 314 l 1
 692 314 l 1x34
513 178 m 1x8c
 590 540 l 1
 571 591 538 613 482 613 c 0
 404 613 340 568 293 482 c 0
 259 420 239 344 239 274 c 0
 239 168 292 105 383 105 c 0
 436 105 474 126 513 178 c 1x8c
EndSplineSet
EndChar

StartChar: oe
Encoding: 250 339 147
Width: 944
Flags: MW
HStem: -23 112<283 328.5 666.5 719.5> 226 93<627 843 627 968 606 843> 437 112<352 410.5 740.5 785>
VStem: 71 143<170 219.5> 843 143<332 347 347 374 332 375.5>
LayerCount: 2
Fore
SplineSet
809 152 m 1
 947 152 l 1
 894 45 785 -23 666 -23 c 0
 592 -23 526 6 498 50 c 1
 446 4 369 -23 288 -23 c 0
 154 -23 71 53 71 176 c 0
 71 263 103 363 151 426 c 0
 211 505 301 549 403 549 c 0
 482 549 549 522 583 477 c 1
 629 522 703 549 778 549 c 0
 848 549 905 525 941 480 c 0
 969 444 986 397 986 351 c 0
 986 313 980 271 968 226 c 1
 606 226 l 1
 600 200 599 188 599 174 c 0
 599 124 638 89 695 89 c 0
 744 89 789 114 809 152 c 1
380 437 m 0
 290 437 214 332 214 205 c 0
 214 135 253 89 313 89 c 0
 365 89 411 120 442 176 c 0
 466 218 480 271 480 320 c 0
 480 391 441 437 380 437 c 0
843 319 m 1
 843 347 l 2
 843 404 812 437 758 437 c 0
 694 437 648 396 627 319 c 1
 843 319 l 1
EndSplineSet
EndChar

StartChar: racute
Encoding: 357 341 250
Width: 389
Flags: W
HStem: 0 20 410 139<373 472> 520 20<178 318 318 318>
LayerCount: 2
Fore
SplineSet
178 540 m 1xa0
 318 540 l 1x20
 295 434 l 1
 342 507 406 549 470 549 c 0
 474 549 479 549 487 548 c 1
 457 406 l 1
 439 409 429 410 414 410 c 0x40
 332 410 281 369 264 287 c 2
 203 0 l 1
 63 0 l 1
 178 540 l 1xa0
500 757 m 1
 342 607 l 1
 272 607 l 1
 374 757 l 1
 500 757 l 1
EndSplineSet
EndChar

StartChar: rcommaaccent
Encoding: 381 343 274
Width: 389
Flags: W
HStem: -172 112<60 103 36 182> 410 139<373 472> 520 20<178 318 318 318>
LayerCount: 2
Fore
SplineSet
178 540 m 1xa0
 318 540 l 1xa0
 296 434 l 1
 342 507 406 549 470 549 c 0
 474 549 479 549 487 548 c 1
 457 406 l 1
 439 409 429 410 414 410 c 0x40
 332 410 282 369 264 287 c 2
 203 0 l 1
 63 0 l 1
 178 540 l 1xa0
60 -60 m 1
 182 -60 l 1
 161 -156 l 1
 151 -234 84 -301 8 -307 c 1
 18 -261 l 1
 62 -253 97 -217 103 -172 c 1
 36 -172 l 1
 60 -60 l 1
EndSplineSet
EndChar

StartChar: Rcaron
Encoding: 293 344 186
Width: 722
Flags: W
HStem: 0 20 289 125<291 499 318 463> 604 125<358 526 358 358>
VStem: 510 155<35 64> 548 148<228 289> 636 149<520 598>
LayerCount: 2
Fore
SplineSet
291 289 m 1xe8
 230 0 l 1
 80 0 l 1
 235 729 l 1
 612 729 l 2
 670 729 710 715 742 683 c 0
 769 656 785 617 785 579 c 0xe4
 785 523 760 460 721 420 c 0
 697 395 671 378 618 352 c 1
 670 335 696 308 696 270 c 0xe8
 696 245 691 210 668 87 c 0
 666 77 665 67 665 61 c 0
 665 47 670 37 683 27 c 1
 677 0 l 1
 518 0 l 1
 512 19 510 29 510 41 c 0xf0
 510 67 517 104 536 173 c 0
 545 209 548 222 548 234 c 0
 548 271 520 289 463 289 c 2
 291 289 l 1xe8
318 414 m 1
 499 414 l 2
 549 414 580 426 606 455 c 0
 624 475 636 506 636 534 c 0
 636 553 628 570 614 583 c 1
 595 598 572 604 526 604 c 2
 358 604 l 1
 318 414 l 1
564 789 m 1
 456 789 l 1
 385 936 l 1
 463 936 l 1
 524 839 l 1
 627 936 l 1
 703 936 l 1
 564 789 l 1
EndSplineSet
EndChar

StartChar: rcaron
Encoding: 384 345 277
Width: 389
Flags: W
HStem: 0 20 410 139<373 472> 520 20<178 318 318 318>
LayerCount: 2
Fore
SplineSet
178 540 m 1xa0
 318 540 l 1x20
 295 434 l 1
 342 507 406 549 470 549 c 0
 474 549 479 549 487 548 c 1
 457 406 l 1
 439 409 429 410 414 410 c 0x40
 332 410 281 369 264 287 c 2
 203 0 l 1
 63 0 l 1
 178 540 l 1xa0
394 610 m 1
 286 610 l 1
 215 757 l 1
 293 757 l 1
 354 660 l 1
 457 757 l 1
 533 757 l 1
 394 610 l 1
EndSplineSet
EndChar

StartChar: Sacute
Encoding: 294 346 187
Width: 667
Flags: W
HStem: -23 128<321.5 406> 613 128<424.5 489.5>
VStem: 76 148<167 181> 151 149<490 507.5> 538 149<232 239> 579 146<527.5 623>
LayerCount: 2
Fore
SplineSet
717 507 m 1xd4
 577 507 l 1
 578 516 579 525 579 530 c 0
 579 584 532 613 447 613 c 0
 356 613 300 573 300 509 c 0xd4
 300 471 327 455 421 436 c 2
 530 414 l 2
 632 394 687 342 687 265 c 0
 687 199 660 126 618 79 c 0
 560 12 467 -23 345 -23 c 0
 249 -23 180 -2 132 42 c 0
 96 75 76 122 76 174 c 0
 76 188 77 198 80 218 c 1
 226 218 l 1
 225 209 224 200 224 196 c 0
 224 138 276 105 367 105 c 0
 471 105 538 149 538 216 c 0xe8
 538 262 509 283 418 301 c 2
 320 321 l 2
 201 345 151 389 151 472 c 0
 151 543 186 618 243 667 c 0
 300 717 376 741 473 741 c 0
 631 741 725 677 725 569 c 0
 725 549 723 535 717 507 c 1xd4
649 936 m 1
 491 786 l 1
 421 786 l 1
 522 936 l 1
 649 936 l 1
EndSplineSet
EndChar

StartChar: Scedilla
Encoding: 296 350 189
Width: 667
Flags: W
HStem: -220 50<258.5 291.5 258.5 322> -93 198<287.5 419> 613 128<424.5 489.5>
VStem: 76 148<167 181> 151 149<490 507.5> 340 87<-138 -116> 538 149<223.5 239> 579 146<527.5 623>
LayerCount: 2
Fore
SplineSet
347 -23 m 1xea
 320 -62 l 1
 335 -58 349 -56 364 -56 c 0
 403 -56 427 -77 427 -113 c 0
 427 -178 367 -220 277 -220 c 0
 232 -220 200 -213 144 -191 c 1
 174 -140 l 1
 221 -163 244 -170 273 -170 c 0
 310 -170 340 -150 340 -126 c 0
 340 -106 322 -93 296 -93 c 0
 279 -93 267 -96 243 -106 c 1
 298 -22 l 1
 220 -10 189 -1 156 22 c 0
 104 58 76 112 76 174 c 0
 76 188 77 198 80 218 c 1
 226 218 l 1
 225 209 224 200 224 196 c 0
 224 138 276 105 367 105 c 0
 471 105 538 149 538 216 c 0xf6
 538 262 509 283 418 301 c 2
 320 321 l 2
 201 345 151 389 151 472 c 0
 151 543 186 618 243 667 c 0
 300 717 376 741 473 741 c 0
 631 741 725 677 725 569 c 0
 725 549 723 535 717 507 c 1
 577 507 l 1
 578 516 579 525 579 530 c 0xe9
 579 584 532 613 447 613 c 0
 356 613 300 573 300 509 c 0
 300 471 327 455 421 436 c 2
 530 414 l 2
 632 394 687 342 687 265 c 0
 687 182 647 96 586 48 c 0
 525 0 451 -22 347 -23 c 1xea
EndSplineSet
EndChar

StartChar: scedilla
Encoding: 385 351 278
Width: 556
Flags: W
HStem: -220 50<199 232 199 263> 437 112<347.5 391.5>
VStem: 127 149<317 400> 281 87<-138 -116> 411 148<128 155.5> 452 137<398.5 401>
LayerCount: 2
Fore
SplineSet
288 -22 m 1xe8
 262 -62 l 1
 277 -58 290 -56 305 -56 c 0
 344 -56 368 -77 368 -113 c 0
 368 -178 308 -220 218 -220 c 0
 173 -220 142 -213 85 -191 c 1
 115 -140 l 1
 162 -163 185 -170 213 -170 c 0
 251 -170 281 -150 281 -126 c 0
 281 -106 263 -93 237 -93 c 0
 220 -93 208 -96 184 -106 c 1
 238 -21 l 1
 215 -21 191 -15 159 -2 c 0
 99 21 60 72 60 127 c 0
 60 135 61 143 64 157 c 1
 201 157 l 1
 202 134 208 123 222 111 c 1
 241 97 272 89 307 89 c 0
 368 89 411 112 411 144 c 0xd8
 411 167 398 176 335 196 c 2
 256 221 l 1
 168 250 127 289 127 345 c 0
 127 395 155 452 198 490 c 0
 241 528 308 549 387 549 c 0
 513 549 589 494 589 404 c 0
 589 393 588 384 584 366 c 1
 449 366 l 1
 451 375 452 379 452 385 c 0xe4
 452 417 419 437 364 437 c 0
 311 437 276 416 276 384 c 0
 276 364 290 354 341 339 c 2
 437 311 l 2
 520 286 559 247 559 187 c 0
 559 60 454 -22 288 -22 c 1xe8
EndSplineSet
EndChar

StartChar: Tcommaaccent
Encoding: 309 354 202
Width: 611
Flags: MW
HStem: -172 112<237 280 213 359> 0 20 604 125<169 364 142 753 514 726 514 514>
LayerCount: 2
Fore
SplineSet
514 604 m 1
 385 0 l 1
 235 0 l 1
 364 604 l 1
 142 604 l 1
 169 729 l 1
 753 729 l 1
 726 604 l 1
 514 604 l 1
237 -60 m 1
 359 -60 l 1
 338 -156 l 1
 328 -234 261 -301 185 -307 c 1
 195 -261 l 1
 239 -253 274 -217 280 -172 c 1
 213 -172 l 1
 237 -60 l 1
EndSplineSet
EndChar

StartChar: tcommaaccent
Encoding: 373 355 266
Width: 333
Flags: MW
HStem: -172 112<114 157 90 236> -23 20 436 93<126 176 107 196 336 394>
VStem: 101 147<35.5 110.5>
LayerCount: 2
Fore
SplineSet
414 529 m 1
 394 436 l 1
 316 436 l 1
 253 142 l 2
 250 125 248 113 248 108 c 0
 248 93 263 83 286 83 c 0
 296 83 305 84 319 86 c 1
 298 -12 l 1
 271 -20 247 -23 214 -23 c 0
 141 -23 101 8 101 63 c 0
 101 77 102 90 106 104 c 1
 176 436 l 1
 107 436 l 1
 126 529 l 1
 196 529 l 1
 227 674 l 1
 367 674 l 1
 336 529 l 1
 414 529 l 1
114 -60 m 1
 236 -60 l 1
 215 -156 l 1
 205 -234 138 -301 62 -307 c 1
 72 -261 l 1
 116 -253 151 -217 157 -172 c 1
 90 -172 l 1
 114 -60 l 1
EndSplineSet
EndChar

StartChar: Tcaron
Encoding: 297 356 190
Width: 611
Flags: MW
HStem: 0 20 604 125<169 364 142 753 514 726 514 514>
LayerCount: 2
Fore
SplineSet
514 604 m 1
 385 0 l 1
 235 0 l 1
 364 604 l 1
 142 604 l 1
 169 729 l 1
 753 729 l 1
 726 604 l 1
 514 604 l 1
532 789 m 1
 424 789 l 1
 353 936 l 1
 431 936 l 1
 492 839 l 1
 595 936 l 1
 671 936 l 1
 532 789 l 1
EndSplineSet
EndChar

StartChar: tcaron
Encoding: 361 357 254
Width: 404
Flags: MW
HStem: -23 20 436 93<127 176 107 196 336 394> 617 112
VStem: 101 147<35.5 110.5>
LayerCount: 2
Fore
SplineSet
414 529 m 1
 394 436 l 1
 316 436 l 1
 254 142 l 2
 250 125 248 113 248 108 c 0
 248 93 263 83 286 83 c 0
 297 83 305 84 319 86 c 1
 299 -12 l 1
 271 -20 247 -23 214 -23 c 0
 141 -23 101 8 101 63 c 0
 101 76 103 90 106 104 c 2
 176 436 l 1
 107 436 l 1
 127 529 l 1
 196 529 l 1
 227 674 l 1
 367 674 l 1
 336 529 l 1
 414 529 l 1
456 829 m 1
 578 829 l 1
 557 733 l 1
 547 655 480 588 404 582 c 1
 414 628 l 1
 458 636 493 672 499 717 c 1
 432 717 l 1
 456 829 l 1
EndSplineSet
EndChar

StartChar: Tbar
Encoding: 656 358 549
Width: 611
Flags: MW
HStem: 0 21G<235 385 235 235> 315 80<243 302 226 319 469 526> 604 125<169 364 142 753 514 514 514 726>
LayerCount: 2
Fore
SplineSet
319 395 m 1
 364 604 l 1
 142 604 l 1
 169 729 l 1
 753 729 l 1
 726 604 l 1
 514 604 l 1
 469 395 l 1
 543 395 l 1
 526 315 l 1
 452 315 l 1
 385 0 l 1
 235 0 l 1
 302 315 l 1
 226 315 l 1
 243 395 l 1
 319 395 l 1
EndSplineSet
EndChar

StartChar: tbar
Encoding: 657 359 550
Width: 333
Flags: MW
HStem: -23 106<177.5 291.5> 256 80<83 138 66 155 295 363> 436 93<127 176 107 196 336 394>
VStem: 66 348<256 529>
LayerCount: 2
Fore
SplineSet
155 336 m 1
 176 436 l 1
 107 436 l 1
 127 529 l 1
 196 529 l 1
 227 674 l 1
 367 674 l 1
 336 529 l 1
 414 529 l 1
 394 436 l 1
 316 436 l 1
 295 336 l 1
 380 336 l 1
 363 256 l 1
 278 256 l 1
 254 142 l 2
 250 125 248 113 248 108 c 0
 248 93 263 83 286 83 c 0
 297 83 305 84 319 86 c 1
 299 -12 l 1
 271 -20 247 -23 214 -23 c 0
 141 -23 101 8 101 63 c 0
 101 76 103 90 106 104 c 2
 138 256 l 1
 66 256 l 1
 83 336 l 1
 155 336 l 1
EndSplineSet
EndChar

StartChar: Umacron
Encoding: 320 362 213
Width: 722
Flags: MW
HStem: -23 128<355 410> 709 20<231 381 381 381 659 809 809 809> 821 80<407 690 390 707>
VStem: 119 152<163.5 178>
LayerCount: 2
Fore
SplineSet
659 729 m 1
 809 729 l 1
 704 235 l 2
 686 152 654 96 597 51 c 0
 536 3 454 -23 366 -23 c 0
 215 -23 119 51 119 167 c 0
 119 189 123 222 130 255 c 2
 231 729 l 1
 381 729 l 1
 276 235 l 2
 273 219 271 205 271 190 c 0
 271 137 316 105 394 105 c 0
 485 105 535 145 554 235 c 2
 659 729 l 1
707 901 m 1
 690 821 l 1
 390 821 l 1
 407 901 l 1
 707 901 l 1
EndSplineSet
EndChar

StartChar: Uring
Encoding: 302 366 195
Width: 722
Flags: W
HStem: -23 128<355 410> 709 20<231 381 381 381 659 809 809 809> 773 50<528 551.5 528 556> 903 50<543.5 566.5>
VStem: 119 49 119 152<163.5 178> 254 49
LayerCount: 2
Fore
SplineSet
659 729 m 1xf4
 809 729 l 1
 704 235 l 2
 686 152 654 96 597 51 c 0
 536 3 454 -23 366 -23 c 0
 215 -23 119 51 119 167 c 0
 119 189 123 222 130 255 c 2
 231 729 l 1
 381 729 l 1
 276 235 l 2
 273 219 271 205 271 190 c 0
 271 137 316 105 394 105 c 0
 485 105 535 145 554 235 c 2
 659 729 l 1xf4
567 953 m 0xfa
 609 953 639 923 639 882 c 0
 639 825 585 773 527 773 c 0
 485 773 455 803 455 844 c 0
 455 901 509 953 567 953 c 0xfa
557 903 m 0
 530 903 504 880 504 855 c 0
 504 837 518 823 538 823 c 0
 565 823 590 847 590 872 c 0
 590 890 576 903 557 903 c 0
EndSplineSet
EndChar

StartChar: uring
Encoding: 366 367 259
Width: 611
Flags: W
HStem: -23 112<190 346.5> 520 20<174 314 314 314 516 656 656 656> 593 50<426 449.5 426 454> 723 50<441.5 464.5>
VStem: 88 49 88 150<69 171> 223 49
LayerCount: 2
Fore
SplineSet
541 0 m 1xf4
 401 0 l 1
 416 68 l 1
 362 4 308 -23 234 -23 c 0
 146 -23 88 29 88 109 c 0
 88 127 90 145 94 164 c 2
 174 540 l 1
 314 540 l 1
 244 213 l 2
 240 190 238 178 238 164 c 0
 238 115 264 89 314 89 c 0
 379 89 431 141 448 222 c 2
 516 540 l 1
 656 540 l 1
 541 0 l 1xf4
465 773 m 0xfa
 507 773 537 743 537 702 c 0
 537 645 483 593 425 593 c 0
 383 593 353 623 353 664 c 0
 353 721 407 773 465 773 c 0xfa
455 723 m 0
 428 723 402 700 402 675 c 0
 402 657 416 643 436 643 c 0
 463 643 488 667 488 692 c 0
 488 710 474 723 455 723 c 0
EndSplineSet
EndChar

StartChar: Uhungarumlaut
Encoding: 303 368 196
Width: 722
Flags: MW
HStem: -23 128<355 410> 709 20<231 381 381 381 659 809 809 809>
VStem: 119 152<163.5 178>
LayerCount: 2
Fore
SplineSet
659 729 m 1
 809 729 l 1
 704 235 l 2
 686 152 654 96 597 51 c 0
 536 3 454 -23 366 -23 c 0
 215 -23 119 51 119 167 c 0
 119 189 123 222 130 255 c 2
 231 729 l 1
 381 729 l 1
 276 235 l 2
 273 219 271 205 271 190 c 0
 271 137 316 105 394 105 c 0
 485 105 535 145 554 235 c 2
 659 729 l 1
608 936 m 1
 450 789 l 1
 380 789 l 1
 482 936 l 1
 608 936 l 1
796 936 m 1
 638 789 l 1
 568 789 l 1
 670 936 l 1
 796 936 l 1
EndSplineSet
EndChar

StartChar: Uogonek
Encoding: 321 370 214
Width: 722
Flags: MW
HStem: -233 50<479 494> -23 128<355 384> 709 20<231 381 381 381 659 809 809 809>
VStem: 119 152<163.5 178> 342 100<-154 -140>
LayerCount: 2
Fore
SplineSet
569 -172 m 1
 558 -224 l 1
 528 -230 506 -233 482 -233 c 0
 393 -233 342 -205 342 -157 c 0
 342 -123 358 -88 389 -60 c 0
 405 -45 431 -29 473 -10 c 1
 423 -20 400 -23 368 -23 c 0
 215 -23 119 50 119 167 c 0
 119 189 123 222 130 255 c 2
 231 729 l 1
 381 729 l 1
 276 235 l 2
 273 219 271 205 271 190 c 0
 271 137 316 105 394 105 c 0
 485 105 535 145 554 235 c 2
 659 729 l 1
 809 729 l 1
 704 235 l 1
 682 138 649 87 571 28 c 1
 512 -18 496 -33 474 -63 c 0
 452 -93 442 -117 442 -139 c 0
 442 -169 460 -183 498 -183 c 0
 524 -183 548 -179 569 -172 c 1
EndSplineSet
EndChar

StartChar: uogonek
Encoding: 383 371 276
Width: 611
Flags: MW
HStem: -233 50<451.5 469> -23 112<190 346.5> 520 20<174 314 314 314 516 656 656 656>
VStem: 88 150<69 171> 317 99<-155.5 -124>
LayerCount: 2
Fore
SplineSet
656 540 m 1
 541 0 l 1
 461 -41 416 -92 416 -142 c 0
 416 -169 434 -183 469 -183 c 0
 491 -183 515 -179 537 -172 c 1
 526 -224 l 1
 483 -233 482 -233 456 -233 c 0
 364 -233 317 -206 317 -154 c 0
 317 -94 365 -45 466 0 c 1
 401 0 l 1
 416 68 l 1
 362 4 308 -23 234 -23 c 0
 146 -23 88 29 88 109 c 0
 88 127 90 145 94 164 c 2
 174 540 l 1
 314 540 l 1
 244 213 l 2
 240 190 238 178 238 164 c 0
 238 115 264 89 314 89 c 0
 379 89 431 141 448 222 c 2
 516 540 l 1
 656 540 l 1
EndSplineSet
EndChar

StartChar: Ydieresis
Encoding: 310 376 203
Width: 667
Flags: MW
HStem: 0 20 709 20<182 349 349 349 638 805 805 805> 800 120<385 469 359 495 385 545 571 655>
LayerCount: 2
Fore
SplineSet
477 270 m 1
 419 0 l 1
 269 0 l 1
 327 270 l 1
 182 729 l 1
 349 729 l 1
 431 414 l 1
 638 729 l 1
 805 729 l 1
 477 270 l 1
495 920 m 1
 469 800 l 1
 359 800 l 1
 385 920 l 1
 495 920 l 1
681 920 m 1
 655 800 l 1
 545 800 l 1
 571 920 l 1
 681 920 l 1
EndSplineSet
EndChar

StartChar: Zacute
Encoding: 305 377 198
Width: 611
Flags: MW
HStem: 0 125<57 57 232 578 30 57> 604 125<185 531 158 733 706 706>
LayerCount: 2
Fore
SplineSet
733 729 m 1
 706 604 l 1
 232 125 l 1
 605 125 l 1
 578 0 l 1
 30 0 l 1
 57 125 l 1
 531 604 l 1
 158 604 l 1
 185 729 l 1
 733 729 l 1
624 936 m 1
 466 786 l 1
 396 786 l 1
 498 936 l 1
 624 936 l 1
EndSplineSet
EndChar

StartChar: zdotaccent
Encoding: 371 380 264
Width: 500
Flags: MW
HStem: 0 113<45 45 219 469 21 45> 427 113<154 379 130 575 551 551> 621 120<354 438 328 464>
LayerCount: 2
Fore
SplineSet
575 540 m 1
 551 427 l 1
 219 113 l 1
 493 113 l 1
 469 0 l 1
 21 0 l 1
 45 113 l 1
 379 427 l 1
 130 427 l 1
 154 540 l 1
 575 540 l 1
464 741 m 1
 438 621 l 1
 328 621 l 1
 354 741 l 1
 464 741 l 1
EndSplineSet
EndChar

StartChar: Zcaron
Encoding: 306 381 199
Width: 611
Flags: MW
HStem: 0 125<57 57 232 578 30 57> 604 125<185 531 158 733 706 706>
LayerCount: 2
Fore
SplineSet
733 729 m 1
 706 604 l 1
 232 125 l 1
 605 125 l 1
 578 0 l 1
 30 0 l 1
 57 125 l 1
 531 604 l 1
 158 604 l 1
 185 729 l 1
 733 729 l 1
523 789 m 1
 415 789 l 1
 344 936 l 1
 422 936 l 1
 483 839 l 1
 586 936 l 1
 662 936 l 1
 523 789 l 1
EndSplineSet
EndChar

StartChar: longs
Encoding: 666 383 559
Width: 333
Flags: W
HStem: 0 21G<90 230 90 90> 436 93<126 183 106 202> 621 105<442 464> 625 104<387.5 396 338 405>
VStem: 90 374
LayerCount: 2
Fore
SplineSet
230 0 m 1xd8
 90 0 l 1
 183 436 l 1
 106 436 l 1
 126 529 l 1
 202 529 l 1
 216 594 l 2
 236 687 289 729 387 729 c 0xd8
 405 729 422 728 464 726 c 1
 442 621 l 1xe8
 415 624 410 625 400 625 c 0
 375 625 360 611 354 582 c 2
 230 0 l 1xd8
EndSplineSet
EndChar

StartChar: florin
Encoding: 166 402 100
Width: 556
Flags: MW
HStem: -220 116<72 89.5> 383 100<207 309 186 345 480 582> 629 115<574.5 602>
LayerCount: 2
Fore
SplineSet
603 483 m 1
 582 383 l 1
 445 383 l 1
 305 1 l 2
 274 -84 242 -137 200 -172 c 0
 165 -202 114 -220 65 -220 c 0
 33 -220 8 -214 -21 -198 c 1
 28 -83 l 1
 45 -96 64 -104 80 -104 c 0
 116 -104 139 -76 170 7 c 2
 309 383 l 1
 186 383 l 1
 207 483 l 1
 345 483 l 1
 368 542 l 2
 422 681 493 744 598 744 c 0
 629 744 650 740 690 727 c 1
 646 613 l 1
 621 626 610 629 594 629 c 0
 555 629 522 594 495 524 c 1
 480 483 l 1
 603 483 l 1
EndSplineSet
EndChar

StartChar: Scommaaccent
Encoding: 388 536 281
Width: 667
Flags: W
HStem: -172 112<272 315 248 393> -23 128<321.5 406> 613 128<424.5 489.5>
VStem: 76 148<167 181> 151 149<490 507.5> 538 149<232 239> 579 146<527.5 623>
LayerCount: 2
Fore
SplineSet
717 507 m 1xea
 577 507 l 1
 578 516 579 525 579 530 c 0
 579 584 532 613 447 613 c 0
 356 613 300 573 300 509 c 0xea
 300 471 327 455 421 436 c 2
 530 414 l 2
 632 394 687 342 687 265 c 0
 687 199 660 126 618 79 c 0
 560 12 467 -23 345 -23 c 0
 249 -23 180 -2 132 42 c 0
 96 75 76 122 76 174 c 0
 76 188 77 198 80 218 c 1
 226 218 l 1
 225 209 224 200 224 196 c 0
 224 138 276 105 367 105 c 0
 471 105 538 149 538 216 c 0xf4
 538 262 509 283 418 301 c 2
 320 321 l 2
 201 345 151 389 151 472 c 0
 151 543 186 618 243 667 c 0
 300 717 376 741 473 741 c 0
 631 741 725 677 725 569 c 0
 725 549 723 535 717 507 c 1xea
272 -60 m 1
 393 -60 l 1
 373 -156 l 1
 362 -234 295 -301 219 -307 c 1
 229 -261 l 1
 274 -253 309 -216 315 -172 c 1
 248 -172 l 1
 272 -60 l 1
EndSplineSet
EndChar

StartChar: scommaaccent
Encoding: 360 537 253
Width: 556
Flags: W
HStem: -172 112<210 253 186 332> -23 112<289.5 337.5 289.5 366> 437 112<347.5 391.5>
VStem: 127 149<317 400> 411 148<128 155.5> 452 137<398.5 401>
LayerCount: 2
Fore
SplineSet
584 366 m 1xf4
 449 366 l 1
 451 375 452 379 452 385 c 0xe4
 452 417 419 437 364 437 c 0
 311 437 276 416 276 384 c 0
 276 364 290 354 341 339 c 2
 437 311 l 2
 520 286 559 247 559 187 c 0
 559 59 451 -23 281 -23 c 0
 219 -23 172 -13 133 10 c 0
 89 35 60 82 60 127 c 0
 60 136 61 142 64 157 c 1
 201 157 l 1
 202 134 208 123 222 111 c 1
 241 97 272 89 307 89 c 0
 368 89 411 112 411 144 c 0xf8
 411 167 398 176 335 196 c 2
 256 221 l 1
 168 250 127 289 127 345 c 0
 127 395 155 452 198 490 c 0
 241 528 308 549 387 549 c 0
 513 549 589 494 589 404 c 0
 589 393 588 384 584 366 c 1xf4
210 -60 m 1xe0
 332 -60 l 1
 311 -156 l 1
 301 -234 234 -301 158 -307 c 1
 168 -261 l 1
 212 -253 247 -217 253 -172 c 1
 186 -172 l 1
 210 -60 l 1xe0
EndSplineSet
EndChar

StartChar: circumflex
Encoding: 195 710 125
Width: 333
Flags: W
LayerCount: 2
Fore
SplineSet
274 757 m 1
 382 757 l 1
 453 610 l 1
 375 610 l 1
 314 707 l 1
 211 610 l 1
 135 610 l 1
 274 757 l 1
EndSplineSet
EndChar

StartChar: caron
Encoding: 207 711 135
Width: 333
Flags: W
LayerCount: 2
Fore
SplineSet
346 610 m 1
 238 610 l 1
 167 757 l 1
 245 757 l 1
 306 660 l 1
 409 757 l 1
 485 757 l 1
 346 610 l 1
EndSplineSet
EndChar

StartChar: breve
Encoding: 198 728 128
Width: 333
Flags: MW
HStem: 611 78<286.5 333.5>
VStem: 188 48<684 746>
LayerCount: 2
Fore
SplineSet
413 754 m 1
 455 754 l 1
 441 672 373 611 294 611 c 0
 231 611 188 653 188 715 c 0
 188 727 189 736 194 754 c 1
 236 754 l 1
 236 746 l 2
 236 710 263 689 310 689 c 0
 361 689 396 711 413 754 c 1
EndSplineSet
EndChar

StartChar: dotaccent
Encoding: 199 729 129
Width: 333
Flags: MW
HStem: 621 120<267 351 241 377>
LayerCount: 2
Fore
SplineSet
377 741 m 1
 351 621 l 1
 241 621 l 1
 267 741 l 1
 377 741 l 1
EndSplineSet
EndChar

StartChar: ring
Encoding: 202 730 131
Width: 333
Flags: MW
HStem: 593 50<287 310.5 287 315> 723 50<302.5 325.5>
VStem: 214 49<666 687.5 666 692.5> 349 49<679.5 701>
LayerCount: 2
Fore
SplineSet
326 773 m 0
 368 773 398 743 398 702 c 0
 398 645 344 593 286 593 c 0
 244 593 214 623 214 664 c 0
 214 721 268 773 326 773 c 0
316 723 m 0
 289 723 263 700 263 675 c 0
 263 657 277 643 297 643 c 0
 324 643 349 667 349 692 c 0
 349 710 335 723 316 723 c 0
EndSplineSet
EndChar

StartChar: ogonek
Encoding: 206 731 134
Width: 333
Flags: MW
HStem: -233 50<156.5 169>
VStem: 23 100<-156 -136>
LayerCount: 2
Fore
SplineSet
174 0 m 1
 248 0 l 1
 182 -38 176 -42 157 -66 c 0
 134 -95 123 -120 123 -143 c 0
 123 -169 140 -183 173 -183 c 0
 199 -183 224 -179 244 -172 c 1
 234 -224 l 1
 202 -230 181 -233 157 -233 c 0
 74 -233 23 -204 23 -157 c 0
 23 -115 48 -72 90 -43 c 0
 114 -26 133 -17 174 0 c 1
EndSplineSet
EndChar

StartChar: tilde
Encoding: 196 732 126
Width: 333
Flags: W
HStem: 622 71<358.5 403.5> 672 69<213 226> 724 20
LayerCount: 2
Fore
SplineSet
446 744 m 1xa0
 500 744 l 1
 489 705 478 683 459 663 c 0
 434 637 399 622 367 622 c 0xa0
 350 622 329 627 316 633 c 2
 266 658 l 2
 251 665 230 672 222 672 c 0
 204 672 188 657 171 624 c 1
 117 624 l 1
 140 699 184 741 238 741 c 0x40
 263 741 277 738 309 724 c 2
 359 703 l 2
 378 694 380 693 392 693 c 0
 415 693 432 710 446 744 c 1xa0
EndSplineSet
EndChar

StartChar: hungarumlaut
Encoding: 205 733 133
Width: 333
Flags: W
LayerCount: 2
Fore
SplineSet
310 757 m 1
 152 610 l 1
 82 610 l 1
 184 757 l 1
 310 757 l 1
498 757 m 1
 340 610 l 1
 270 610 l 1
 372 757 l 1
 498 757 l 1
EndSplineSet
EndChar

StartChar: Delta
Encoding: 412 916 305
Width: 729
Flags: MW
HStem: 0 125<230 549 230 721> 709 20<444 590 590 590>
LayerCount: 2
Fore
SplineSet
8 0 m 1
 444 729 l 1
 590 729 l 1
 721 0 l 1
 8 0 l 1
230 125 m 1
 549 125 l 1
 483 564 l 1
 230 125 l 1
EndSplineSet
EndChar

StartChar: mu
Encoding: 421 956 314
Width: 611
Flags: MW
HStem: -220 20 -23 122<287.5 319.5> 520 20<173 313 313 313 515 655 655 655>
LayerCount: 2
Fore
SplineSet
146 -220 m 1
 11 -220 l 1
 173 540 l 1
 313 540 l 1
 242 207 l 2
 238 188 235 170 235 161 c 0
 235 123 264 99 311 99 c 0
 378 99 430 139 443 202 c 2
 515 540 l 1
 655 540 l 1
 572 150 l 2
 568 129 565 111 565 100 c 0
 565 85 573 77 586 77 c 0
 593 77 597 78 607 81 c 1
 589 -5 l 1
 563 -18 543 -23 515 -23 c 0
 469 -23 448 -9 432 32 c 1
 384 -9 348 -23 291 -23 c 0
 246 -23 221 -13 196 15 c 1
 146 -220 l 1
EndSplineSet
EndChar

StartChar: uni0400
Encoding: 488 1024 381
Width: 666
Flags: MW
HStem: 0 125<256 624> 314 125<296 671 322 645> 604 125<357 734 357 357>
LayerCount: 2
Fore
SplineSet
381 951 m 1
 500 951 l 1
 545 801 l 1
 482 801 l 1
 381 951 l 1
296 314 m 1
 256 125 l 1
 651 125 l 1
 624 0 l 1
 79 0 l 1
 234 729 l 1
 761 729 l 1
 734 604 l 1
 357 604 l 1
 322 439 l 1
 671 439 l 1
 645 314 l 1
 296 314 l 1
EndSplineSet
EndChar

StartChar: afii10023
Encoding: 428 1025 321
Width: 666
Flags: MW
HStem: 0 125<256 624> 314 125<296 671 322 645> 604 125<357 734 357 357> 800 122<393 477 367 503 393 553 579 663>
LayerCount: 2
Fore
SplineSet
296 314 m 1
 256 125 l 1
 651 125 l 1
 624 0 l 1
 79 0 l 1
 234 729 l 1
 761 729 l 1
 734 604 l 1
 357 604 l 1
 322 439 l 1
 671 439 l 1
 645 314 l 1
 296 314 l 1
503 922 m 1
 477 800 l 1
 367 800 l 1
 393 922 l 1
 503 922 l 1
689 922 m 1
 663 800 l 1
 553 800 l 1
 579 922 l 1
 689 922 l 1
EndSplineSet
EndChar

StartChar: afii10051
Encoding: 489 1026 382
Width: 807
Flags: MW
HStem: -166 107<469 524 524 551 447 524> 0 21G<195 345 195 195 610 610 760 760> 330 125<441 578 415 605> 604 125<169 323 142 673 473 473 473 646>
LayerCount: 2
Fore
SplineSet
469 -59 m 1
 524 -59 l 2
 591 -59 603 -34 610 0 c 2
 658 224 l 2
 661 241 664 257 664 271 c 0
 664 307 645 330 578 330 c 2
 415 330 l 1
 345 0 l 1
 195 0 l 1
 323 604 l 1
 142 604 l 1
 169 729 l 1
 673 729 l 1
 646 604 l 1
 473 604 l 1
 441 455 l 1
 605 455 l 2
 758 455 814 390 814 289 c 0
 814 266 811 241 806 215 c 2
 760 0 l 2
 740 -92 704 -166 551 -166 c 2
 447 -166 l 1
 469 -59 l 1
EndSplineSet
EndChar

StartChar: afii10052
Encoding: 490 1027 383
Width: 611
Flags: MW
HStem: 0 21G<74 224 74 74> 604 125<352 714 352 352>
LayerCount: 2
Fore
SplineSet
694 951 m 1
 536 801 l 1
 466 801 l 1
 568 951 l 1
 694 951 l 1
224 0 m 1
 74 0 l 1
 229 729 l 1
 741 729 l 1
 714 604 l 1
 352 604 l 1
 224 0 l 1
EndSplineSet
EndChar

StartChar: afii10053
Encoding: 491 1028 384
Width: 737
Flags: MW
HStem: -23 128<357 426.5> 282 125<281 546 255 573> 615 126<455 549>
VStem: 106 149<220 273 273 282 220 378.5> 639 148<513 533>
LayerCount: 2
Fore
SplineSet
573 407 m 1
 546 282 l 1
 255 282 l 1
 255 273 l 2
 255 167 310 105 404 105 c 0
 456 105 503 123 538 158 c 0
 558 178 570 197 588 236 c 1
 731 236 l 1
 712 173 691 133 651 92 c 0
 579 18 481 -23 372 -23 c 0
 202 -23 106 77 106 245 c 0
 106 512 295 741 530 741 c 0
 691 741 787 656 787 521 c 0
 787 505 786 487 783 469 c 1
 637 469 l 1
 638 478 639 486 639 494 c 0
 639 572 591 615 507 615 c 0
 403 615 321 539 281 407 c 1
 573 407 l 1
EndSplineSet
EndChar

StartChar: afii10054
Encoding: 492 1029 385
Width: 667
Flags: MW
HStem: -23 120<235 331.5 235 347> 621 120<331.5 417.5>
LayerCount: 2
Fore
SplineSet
638 507 m 1
 498 507 l 1
 509 581 465 621 370 621 c 0
 293 621 236 586 225 531 c 1
 213 478 240 457 342 436 c 2
 452 414 l 2
 581 388 626 328 602 213 c 0
 571 65 441 -23 253 -23 c 0
 67 -23 -22 62 2 218 c 1
 148 218 l 1
 136 140 184 97 286 97 c 0
 377 97 441 134 454 195 c 0
 467 254 436 282 340 301 c 2
 242 321 l 2
 100 349 55 404 79 517 c 0
 109 659 227 741 402 741 c 0
 507 741 582 712 620 658 c 0
 647 618 653 574 638 507 c 1
EndSplineSet
EndChar

StartChar: afii10055
Encoding: 493 1030 386
Width: 278
Flags: MW
HStem: 0 21G<-14 136 -14 -14> 709 20G<140 290 290 290>
VStem: -14 304
LayerCount: 2
Fore
SplineSet
290 729 m 1
 136 0 l 1
 -14 0 l 1
 140 729 l 1
 290 729 l 1
EndSplineSet
EndChar

StartChar: afii10056
Encoding: 494 1031 387
Width: 278
Flags: MW
HStem: 0 21G<-14 136 -14 -14> 709 20G<140 290 290 290> 801 120<108 192 82 218 108 268 294 378>
VStem: -14 418
LayerCount: 2
Fore
SplineSet
218 921 m 1
 192 801 l 1
 82 801 l 1
 108 921 l 1
 218 921 l 1
404 921 m 1
 378 801 l 1
 268 801 l 1
 294 921 l 1
 404 921 l 1
290 729 m 1
 136 0 l 1
 -14 0 l 1
 140 729 l 1
 290 729 l 1
EndSplineSet
EndChar

StartChar: afii10057
Encoding: 495 1032 388
Width: 556
Flags: MW
HStem: -23 128<173.5 228 173.5 246.5> 709 20G<416 566 566 566>
LayerCount: 2
Fore
SplineSet
416 729 m 1
 566 729 l 1
 451 190 l 2
 422 54 321 -23 172 -23 c 0
 103 -23 51 -3 17 35 c 1
 -17 75 -25 122 -9 198 c 2
 6 270 l 1
 156 270 l 1
 141 200 l 2
 127 133 145 105 202 105 c 0
 254 105 290 135 301 190 c 2
 416 729 l 1
EndSplineSet
EndChar

StartChar: afii10058
Encoding: 496 1033 389
Width: 1031
Flags: W
HStem: 0 125<607 747 747 752> 0 145<-1 -1 -1 75> 344 125<653 867 680 793> 604 125<336 558 336 336>
VStem: 891 152<229 295>
LayerCount: 2
Fore
SplineSet
212 729 m 1x78
 735 729 l 1
 680 469 l 1
 867 469 l 2
 979 469 1043 403 1043 296 c 0
 1043 127 926 0 752 0 c 2
 430 0 l 1xb8
 558 604 l 1
 336 604 l 1
 296 414 l 2
 259 240 181 0 -31 0 c 1
 -1 145 l 1
 70 144 114 258 156 461 c 2
 212 729 l 1x78
653 344 m 1
 607 125 l 1
 747 125 l 2
 840 125 891 188 891 270 c 0
 891 320 859 344 793 344 c 2
 653 344 l 1
EndSplineSet
EndChar

StartChar: afii10059
Encoding: 497 1034 390
Width: 1088
Flags: MW
HStem: 0 125<606 746 746 752> 344 125<653 866 679 793> 709 20G<145 295 295 295 583 734 734 734>
VStem: 890 153<229 295>
LayerCount: 2
Fore
SplineSet
734 729 m 1
 679 469 l 1
 866 469 l 2
 978 469 1043 403 1043 294 c 0
 1043 125 925 0 752 0 c 2
 430 0 l 1
 503 342 l 1
 214 342 l 1
 141 0 l 1
 -9 0 l 1
 145 729 l 1
 295 729 l 1
 240 467 l 1
 528 467 l 1
 583 729 l 1
 734 729 l 1
653 344 m 1
 606 125 l 1
 746 125 l 2
 839 125 890 188 890 270 c 0
 890 320 859 344 793 344 c 2
 653 344 l 1
EndSplineSet
EndChar

StartChar: afii10060
Encoding: 498 1035 391
Width: 787
Flags: MW
HStem: 0 21G<195 345 195 195 590 740 590 590> 330 125<441 558 415 585> 604 125<169 323 142 673 473 473 473 646>
LayerCount: 2
Fore
SplineSet
441 455 m 1
 585 455 l 2
 738 455 794 390 794 289 c 0
 794 266 791 241 786 215 c 2
 740 0 l 1
 590 0 l 1
 638 224 l 2
 641 241 644 257 644 271 c 0
 644 307 625 330 558 330 c 2
 415 330 l 1
 345 0 l 1
 195 0 l 1
 323 604 l 1
 142 604 l 1
 169 729 l 1
 673 729 l 1
 646 604 l 1
 473 604 l 1
 441 455 l 1
EndSplineSet
EndChar

StartChar: afii10061
Encoding: 499 1036 392
Width: 720
Flags: MW
HStem: 0 21G<74 224 74 74 538 538 538 725> 709 20G<229 379 379 379 664 841 841 841>
LayerCount: 2
Fore
SplineSet
744 951 m 1
 586 801 l 1
 516 801 l 1
 618 951 l 1
 744 951 l 1
224 0 m 1
 74 0 l 1
 229 729 l 1
 379 729 l 1
 320 450 l 1
 664 729 l 1
 841 729 l 1
 400 378 l 1
 725 0 l 1
 538 0 l 1
 285 285 l 1
 224 0 l 1
EndSplineSet
EndChar

StartChar: uni040D
Encoding: 500 1037 393
Width: 722
Flags: MW
HStem: 0 21G<68 218 68 68 511 511 511 661> 709 20G<223 373 373 373 662 816 816 816>
LayerCount: 2
Fore
SplineSet
403 951 m 1
 522 951 l 1
 567 801 l 1
 504 801 l 1
 403 951 l 1
218 0 m 1
 68 0 l 1
 223 729 l 1
 373 729 l 1
 268 233 l 1
 662 729 l 1
 816 729 l 1
 661 0 l 1
 511 0 l 1
 618 504 l 1
 218 0 l 1
EndSplineSet
EndChar

StartChar: afii10062
Encoding: 501 1038 394
Width: 698
Flags: MW
HStem: 0 21G<136 310 136 136> 709 20G<152 315 315 315 659 833 833 833> 801 78<500.5 547.5>
VStem: 402 48<874 936>
LayerCount: 2
Fore
SplineSet
627 944 m 1
 669 944 l 1
 655 862 587 801 508 801 c 0
 445 801 402 843 402 905 c 0
 402 917 403 926 408 944 c 1
 450 944 l 1
 450 936 l 2
 450 900 477 879 524 879 c 0
 575 879 610 901 627 944 c 1
310 0 m 1
 136 0 l 1
 298 226 l 1
 152 729 l 1
 315 729 l 1
 414 384 l 1
 659 729 l 1
 833 729 l 1
 310 0 l 1
EndSplineSet
EndChar

StartChar: afii10145
Encoding: 502 1039 395
Width: 722
Flags: MW
HStem: 0 125<183 236 366 473 183 596 366 366> 709 20G<161 311 311 311 601 751 751 751>
LayerCount: 2
Fore
SplineSet
366 0 m 1
 335 -150 l 1
 205 -150 l 1
 236 0 l 1
 6 0 l 1
 161 729 l 1
 311 729 l 1
 183 125 l 1
 473 125 l 1
 601 729 l 1
 751 729 l 1
 596 0 l 1
 366 0 l 1
EndSplineSet
EndChar

StartChar: afii10017
Encoding: 422 1040 315
Width: 722
Flags: MW
HStem: 0 21G<26 179 26 26 550 550 550 703> 147 125<328 518 328 532 259 518> 709 20G<440 606 606 606>
LayerCount: 2
Fore
SplineSet
532 147 m 1
 259 147 l 1
 179 0 l 1
 26 0 l 1
 440 729 l 1
 606 729 l 1
 703 0 l 1
 550 0 l 1
 532 147 l 1
518 272 m 1
 483 557 l 1
 328 272 l 1
 518 272 l 1
EndSplineSet
EndChar

StartChar: afii10018
Encoding: 423 1041 316
Width: 722
Flags: MW
HStem: 0 125<259 410> 314 125<299 488 325 478> 604 125<360 722 360 360>
VStem: 572 143<209.5 267.5>
LayerCount: 2
Fore
SplineSet
488 439 m 2
 674 439 715 330 715 252 c 0
 715 163 667 97 605 53 c 0
 553 16 494 0 410 0 c 2
 82 0 l 1
 237 729 l 1
 749 729 l 1
 722 604 l 1
 360 604 l 1
 325 439 l 1
 488 439 l 2
299 314 m 1
 259 125 l 1
 438 125 l 2
 519 125 572 174 572 245 c 0
 572 290 540 314 478 314 c 2
 299 314 l 1
EndSplineSet
EndChar

StartChar: afii10019
Encoding: 424 1042 317
Width: 723
Flags: W
HStem: 0 125<259 410> 314 125<299 489 326 478> 604 125<361 361 361 524>
VStem: 572 143<209.5 267.5> 615 148<529.5 562.5>
LayerCount: 2
Fore
SplineSet
82 0 m 1xf0
 237 729 l 1
 562 729 l 2
 640 729 688 713 723 676 c 0
 749 648 763 610 763 571 c 0xe8
 763 488 711 414 628 387 c 1
 696 360 715 302 715 247 c 0
 715 166 664 95 606 53 c 0
 554 16 494 0 410 0 c 2
 82 0 l 1xf0
361 604 m 1
 326 439 l 1
 489 439 l 2
 565 439 615 481 615 542 c 0
 615 583 583 604 524 604 c 2
 361 604 l 1
299 314 m 1
 259 125 l 1
 438 125 l 2
 519 125 572 174 572 245 c 0xf0
 572 290 540 314 478 314 c 2
 299 314 l 1
EndSplineSet
EndChar

StartChar: afii10020
Encoding: 425 1043 318
Width: 611
Flags: MW
HStem: 0 21G<74 224 74 74> 604 125<352 714 352 352>
LayerCount: 2
Fore
SplineSet
224 0 m 1
 74 0 l 1
 229 729 l 1
 741 729 l 1
 714 604 l 1
 352 604 l 1
 224 0 l 1
EndSplineSet
EndChar

StartChar: afii10021
Encoding: 426 1044 319
Width: 918
Flags: W
HStem: 0 108<111 132.5 4 681 111 111> 0 125<304 573 304 681> 604 125<453 675 453 453>
LayerCount: 2
Fore
SplineSet
106 108 m 2xa0
 159 108 229 255 272 461 c 2
 329 729 l 1
 851 729 l 1
 719 108 l 1
 834 108 l 1
 780 -150 l 1
 650 -150 l 1
 681 0 l 1
 111 0 l 1
 80 -150 l 1
 -50 -150 l 1
 4 108 l 1
 106 108 l 2xa0
304 125 m 1x60
 573 125 l 1
 675 604 l 1
 453 604 l 1
 412 414 l 2
 392 319 362 209 304 125 c 1x60
EndSplineSet
EndChar

StartChar: afii10022
Encoding: 427 1045 320
Width: 666
Flags: MW
HStem: 0 125<256 624> 314 125<296 671 322 645> 604 125<357 734 357 357>
LayerCount: 2
Fore
SplineSet
296 314 m 1
 256 125 l 1
 651 125 l 1
 624 0 l 1
 79 0 l 1
 234 729 l 1
 761 729 l 1
 734 604 l 1
 357 604 l 1
 322 439 l 1
 671 439 l 1
 645 314 l 1
 296 314 l 1
EndSplineSet
EndChar

StartChar: afii10024
Encoding: 429 1046 322
Width: 1054
Flags: MW
HStem: 0 21G<22 201 22 22 475 475 475 625 899 899 899 1078> 709 20G<221 385 385 385 630 780 780 780 1025 1189 1189 1189>
LayerCount: 2
Fore
SplineSet
536 285 m 1
 201 0 l 1
 22 0 l 1
 459 378 l 1
 221 729 l 1
 385 729 l 1
 571 450 l 1
 630 729 l 1
 780 729 l 1
 721 450 l 1
 1025 729 l 1
 1189 729 l 1
 801 378 l 1
 1078 0 l 1
 899 0 l 1
 686 285 l 1
 625 0 l 1
 475 0 l 1
 536 285 l 1
EndSplineSet
EndChar

StartChar: afii10026
Encoding: 431 1048 324
Width: 722
Flags: MW
HStem: 0 21G<68 218 68 68 511 511 511 661> 709 20G<223 373 373 373 662 816 816 816>
LayerCount: 2
Fore
SplineSet
218 0 m 1
 68 0 l 1
 223 729 l 1
 373 729 l 1
 268 233 l 1
 662 729 l 1
 816 729 l 1
 661 0 l 1
 511 0 l 1
 618 504 l 1
 218 0 l 1
EndSplineSet
EndChar

StartChar: afii10027
Encoding: 432 1049 325
Width: 722
Flags: MW
HStem: 0 21G<68 218 68 68 511 511 511 661> 709 20G<223 373 373 373 662 816 816 816> 801 78<527.5 574.5>
VStem: 429 48<874 936>
LayerCount: 2
Fore
SplineSet
654 944 m 1
 696 944 l 1
 682 862 614 801 535 801 c 0
 472 801 429 843 429 905 c 0
 429 917 430 926 435 944 c 1
 477 944 l 1
 477 936 l 2
 477 900 504 879 551 879 c 0
 602 879 637 901 654 944 c 1
218 0 m 1
 68 0 l 1
 223 729 l 1
 373 729 l 1
 268 233 l 1
 662 729 l 1
 816 729 l 1
 661 0 l 1
 511 0 l 1
 618 504 l 1
 218 0 l 1
EndSplineSet
EndChar

StartChar: afii10028
Encoding: 433 1050 326
Width: 720
Flags: MW
HStem: 0 21G<74 224 74 74 538 538 538 725> 709 20G<229 379 379 379 664 841 841 841>
LayerCount: 2
Fore
SplineSet
224 0 m 1
 74 0 l 1
 229 729 l 1
 379 729 l 1
 320 450 l 1
 664 729 l 1
 841 729 l 1
 400 378 l 1
 725 0 l 1
 538 0 l 1
 285 285 l 1
 224 0 l 1
EndSplineSet
EndChar

StartChar: afii10029
Encoding: 434 1051 327
Width: 722
Flags: MW
HStem: 0 145<-1 -1 -1 75> 604 125<336 558 336 336>
LayerCount: 2
Fore
SplineSet
558 604 m 1
 336 604 l 1
 296 414 l 2
 259 240 181 0 -31 0 c 1
 -1 145 l 1
 70 144 114 258 156 461 c 2
 212 729 l 1
 734 729 l 1
 580 0 l 1
 430 0 l 1
 558 604 l 1
EndSplineSet
EndChar

StartChar: afii10030
Encoding: 435 1052 328
Width: 843
Flags: MW
HStem: 0 21G<68 218 68 68 349 349 349 499 628 628 628 778> 709 20G<223 447 447 447 707 933 933 933>
LayerCount: 2
Fore
SplineSet
339 568 m 1
 218 0 l 1
 68 0 l 1
 223 729 l 1
 447 729 l 1
 456 149 l 1
 707 729 l 1
 933 729 l 1
 778 0 l 1
 628 0 l 1
 749 568 l 1
 499 0 l 1
 349 0 l 1
 339 568 l 1
EndSplineSet
EndChar

StartChar: afii10031
Encoding: 436 1053 329
Width: 722
Flags: MW
HStem: 0 21G<68 218 68 68 507 507 507 657> 311 125<311 573 284 599> 709 20G<223 373 373 373 661 812 812 812>
LayerCount: 2
Fore
SplineSet
573 311 m 1
 284 311 l 1
 218 0 l 1
 68 0 l 1
 223 729 l 1
 373 729 l 1
 311 436 l 1
 599 436 l 1
 661 729 l 1
 812 729 l 1
 657 0 l 1
 507 0 l 1
 573 311 l 1
EndSplineSet
EndChar

StartChar: afii10033
Encoding: 438 1055 331
Width: 722
Flags: MW
HStem: 0 21G<68 218 68 68 507 507 507 657> 604 125<346 635 346 346>
LayerCount: 2
Fore
SplineSet
635 604 m 1
 346 604 l 1
 218 0 l 1
 68 0 l 1
 223 729 l 1
 812 729 l 1
 657 0 l 1
 507 0 l 1
 635 604 l 1
EndSplineSet
EndChar

StartChar: afii10034
Encoding: 439 1056 332
Width: 649
Flags: MW
HStem: 0 21G<68 218 68 68> 260 125<273 439 299 439 439 460> 604 125<346 486 346 346>
VStem: 584 155<488 554.5>
LayerCount: 2
Fore
SplineSet
273 260 m 1
 218 0 l 1
 68 0 l 1
 223 729 l 1
 545 729 l 2
 672 729 739 673 739 568 c 0
 739 401 610 260 460 260 c 2
 273 260 l 1
299 385 m 1
 439 385 l 2
 532 385 584 447 584 529 c 0
 584 580 552 604 486 604 c 2
 346 604 l 1
 299 385 l 1
EndSplineSet
EndChar

StartChar: afii10035
Encoding: 440 1057 333
Width: 837
Flags: MW
HStem: -23 126<353 444.5 353 458.5> 613 128<440 538>
VStem: 106 151<212.5 358 212.5 382.5>
LayerCount: 2
Fore
SplineSet
783 482 m 1
 640 482 l 1
 639 521 635 540 624 560 c 0
 603 595 564 613 512 613 c 0
 368 613 257 452 257 264 c 0
 257 161 308 103 398 103 c 0
 491 103 562 156 591 249 c 1
 737 249 l 1
 692 82 549 -23 368 -23 c 0
 201 -23 106 77 106 243 c 0
 106 522 295 741 534 741 c 0
 643 741 724 700 765 626 c 0
 780 598 787 570 787 535 c 0
 787 519 785 501 783 482 c 1
EndSplineSet
EndChar

StartChar: afii10036
Encoding: 441 1058 334
Width: 611
Flags: MW
HStem: 0 21G<235 385 235 235> 604 125<169 363 142 753 513 726 513 513>
LayerCount: 2
Fore
SplineSet
513 604 m 1
 385 0 l 1
 235 0 l 1
 363 604 l 1
 142 604 l 1
 169 729 l 1
 753 729 l 1
 726 604 l 1
 513 604 l 1
EndSplineSet
EndChar

StartChar: afii10037
Encoding: 442 1059 335
Width: 698
Flags: MW
HStem: 0 21G<136 310 136 136> 709 20G<152 315 315 315 659 833 833 833>
LayerCount: 2
Fore
SplineSet
310 0 m 1
 136 0 l 1
 298 226 l 1
 152 729 l 1
 315 729 l 1
 414 384 l 1
 659 729 l 1
 833 729 l 1
 310 0 l 1
EndSplineSet
EndChar

StartChar: afii10038
Encoding: 443 1060 336
Width: 902
Flags: MW
HStem: 0 21G<294 294 294 444> 94 94<291 314 484 558.5> 540 98<338.5 408 579 596.5> 709 20G<449 599 599 599>
VStem: 23 134<245 395.5 245 426.5> 735 138<332.5 480.5>
LayerCount: 2
Fore
SplineSet
294 0 m 1
 314 94 l 1
 174 94 23 103 23 292 c 0
 23 561 204 638 429 638 c 1
 449 729 l 1
 599 729 l 1
 579 638 l 1
 712 638 873 631 873 449 c 0
 873 174 675 94 464 94 c 1
 444 0 l 1
 294 0 l 1
334 188 m 1
 408 540 l 1
 269 540 157 486 157 305 c 0
 157 185 248 188 334 188 c 1
484 188 m 1
 633 188 735 243 735 422 c 0
 735 539 635 540 558 540 c 1
 484 188 l 1
EndSplineSet
EndChar

StartChar: afii10039
Encoding: 444 1061 337
Width: 664
Flags: MW
HStem: 0 21G<22 196 22 22 454 622 454 454> 709 20G<173 351 351 351 607 774 774 774>
LayerCount: 2
Fore
SplineSet
480 367 m 1
 622 0 l 1
 454 0 l 1
 370 223 l 1
 196 0 l 1
 22 0 l 1
 311 370 l 1
 173 729 l 1
 351 729 l 1
 427 509 l 1
 607 729 l 1
 774 729 l 1
 480 367 l 1
EndSplineSet
EndChar

StartChar: afii10040
Encoding: 445 1062 338
Width: 730
Flags: MW
HStem: 0 125<245 534 245 667> 709 20G<223 373 373 373 662 812 812 812>
LayerCount: 2
Fore
SplineSet
534 125 m 1
 662 729 l 1
 812 729 l 1
 680 108 l 1
 820 108 l 1
 765 -150 l 1
 635 -150 l 1
 667 0 l 1
 68 0 l 1
 223 729 l 1
 373 729 l 1
 245 125 l 1
 534 125 l 1
EndSplineSet
EndChar

StartChar: afii10041
Encoding: 446 1063 339
Width: 671
Flags: MW
HStem: 0 21G<456 606 456 456> 274 125<293.5 540 397 514> 709 20G<215 365 365 365 610 761 761 761>
LayerCount: 2
Fore
SplineSet
514 274 m 1
 370 274 l 2
 217 274 161 339 161 440 c 0
 161 463 164 488 169 514 c 2
 215 729 l 1
 365 729 l 1
 317 505 l 2
 314 488 311 472 311 458 c 0
 311 422 330 399 397 399 c 2
 540 399 l 1
 610 729 l 1
 761 729 l 1
 606 0 l 1
 456 0 l 1
 514 274 l 1
EndSplineSet
EndChar

StartChar: afii10042
Encoding: 447 1064 340
Width: 1101
Flags: MW
HStem: 0 125<245 504 654 913> 709 20G<223 373 373 373 632 782 782 782 1041 1191 1191 1191>
LayerCount: 2
Fore
SplineSet
1036 0 m 1
 68 0 l 1
 223 729 l 1
 373 729 l 1
 245 125 l 1
 504 125 l 1
 632 729 l 1
 782 729 l 1
 654 125 l 1
 913 125 l 1
 1041 729 l 1
 1191 729 l 1
 1036 0 l 1
EndSplineSet
EndChar

StartChar: afii10043
Encoding: 448 1065 341
Width: 1179
Flags: MW
HStem: 0 125<245 504 654 913> 709 20G<223 373 373 373 632 782 782 782 1041 1191 1191 1191>
LayerCount: 2
Fore
SplineSet
1046 0 m 1
 68 0 l 1
 223 729 l 1
 373 729 l 1
 245 125 l 1
 504 125 l 1
 632 729 l 1
 782 729 l 1
 654 125 l 1
 913 125 l 1
 1041 729 l 1
 1191 729 l 1
 1059 108 l 1
 1199 108 l 1
 1144 -150 l 1
 1014 -150 l 1
 1046 0 l 1
EndSplineSet
EndChar

StartChar: afii10044
Encoding: 449 1066 342
Width: 816
Flags: MW
HStem: 0 125<420 560 560 565> 344 125<466 680 493 606> 604 125<168 372 142 548>
VStem: 704 152<229 295>
LayerCount: 2
Fore
SplineSet
493 469 m 1
 680 469 l 2
 792 469 856 403 856 296 c 0
 856 127 739 0 565 0 c 2
 243 0 l 1
 372 604 l 1
 142 604 l 1
 168 729 l 1
 548 729 l 1
 493 469 l 1
466 344 m 1
 420 125 l 1
 560 125 l 2
 653 125 704 188 704 270 c 0
 704 320 672 344 606 344 c 2
 466 344 l 1
EndSplineSet
EndChar

StartChar: afii10046
Encoding: 451 1068 344
Width: 639
Flags: MW
HStem: 0 125<243 383 383 388> 344 125<289 503 316 429> 709 20G<221 371 371 371>
VStem: 527 152<229 295>
LayerCount: 2
Fore
SplineSet
316 469 m 1
 503 469 l 2
 615 469 679 403 679 296 c 0
 679 127 562 0 388 0 c 2
 66 0 l 1
 221 729 l 1
 371 729 l 1
 316 469 l 1
289 344 m 1
 243 125 l 1
 383 125 l 2
 476 125 527 188 527 270 c 0
 527 320 495 344 429 344 c 2
 289 344 l 1
EndSplineSet
EndChar

StartChar: afii10047
Encoding: 452 1069 345
Width: 737
Flags: MW
HStem: -23 126<344 438 344 480.5> 311 125<320 638 347 612> 613 128<466.5 536>
VStem: 106 148<185 205> 638 149<436 445 445 498>
LayerCount: 2
Fore
SplineSet
320 311 m 1
 347 436 l 1
 638 436 l 1
 638 445 l 2
 638 551 583 613 489 613 c 0
 437 613 390 595 355 560 c 0
 335 540 323 521 305 482 c 1
 162 482 l 1
 181 545 202 585 242 626 c 0
 314 700 412 741 521 741 c 0
 691 741 787 641 787 473 c 0
 787 206 598 -23 363 -23 c 0
 202 -23 106 62 106 197 c 0
 106 213 107 231 110 249 c 1
 256 249 l 1
 255 240 254 232 254 224 c 0
 254 146 302 103 386 103 c 0
 490 103 572 179 612 311 c 1
 320 311 l 1
EndSplineSet
EndChar

StartChar: afii10048
Encoding: 453 1070 346
Width: 1087
Flags: MW
HStem: -23 128<673 748> 311 125<309 419 283 448> 613 128<806 880.5>
VStem: 416 151<226 266.5> 987 151<372 493 372 493.5>
LayerCount: 2
Fore
SplineSet
448 436 m 1
 478 515 527 587 588 640 c 0
 664 707 755 741 857 741 c 0
 962 741 1036 709 1086 640 c 0
 1120 592 1138 529 1138 457 c 0
 1138 287 1062 161 966 78 c 1
 889 10 800 -23 696 -23 c 0
 592 -23 517 10 468 78 c 0
 434 125 416 189 416 258 c 0
 416 275 417 293 419 311 c 1
 283 311 l 1
 216 0 l 1
 66 0 l 1
 221 729 l 1
 371 729 l 1
 309 436 l 1
 448 436 l 1
831 613 m 0
 689 613 567 456 567 280 c 0
 567 172 623 105 723 105 c 0
 866 105 987 261 987 439 c 0
 987 548 930 613 831 613 c 0
EndSplineSet
EndChar

StartChar: afii10049
Encoding: 454 1071 347
Width: 690
Flags: MW
HStem: 0 21G<22 201 22 22 483 483 483 633> 604 125<466 471 471 611>
VStem: 175 152<434 500 434 519>
LayerCount: 2
Fore
SplineSet
505 260 m 1
 201 0 l 1
 22 0 l 1
 323 261 l 1
 231 270 175 330 175 435 c 0
 175 603 293 729 466 729 c 2
 788 729 l 1
 633 0 l 1
 483 0 l 1
 538 260 l 1
 505 260 l 1
565 385 m 1
 611 604 l 1
 471 604 l 2
 378 604 327 541 327 459 c 0
 327 409 359 385 425 385 c 2
 565 385 l 1
EndSplineSet
EndChar

StartChar: afii10065
Encoding: 455 1072 348
Width: 554
Flags: MW
HStem: -23 21G<149 215> 0 21G<370 522 370 370> 436 113<330.5 388.5>
VStem: 51 146<124 155>
LayerCount: 2
Fore
SplineSet
525 17 m 1
 522 0 l 1
 370 0 l 1
 364 10 361 17 361 27 c 0
 361 34 363 43 365 54 c 1
 305 3 245 -23 185 -23 c 0
 113 -23 51 16 51 97 c 0
 51 213 125 287 251 309 c 2
 309 319 l 2
 398 334 436 347 436 395 c 0
 436 422 412 436 365 436 c 0
 296 436 269 418 250 362 c 1
 115 362 l 1
 150 487 240 549 386 549 c 0
 512 549 576 507 576 426 c 0
 576 412 574 398 571 383 c 2
 507 83 l 2
 506 75 505 69 505 63 c 0
 505 46 510 34 525 17 c 1
399 217 m 2
 407 255 l 1
 389 247 383 245 344 238 c 2
 295 229 l 1
 230 216 197 185 197 139 c 0
 197 109 221 90 261 90 c 0
 328 90 382 136 399 217 c 2
EndSplineSet
EndChar

StartChar: afii10066
Encoding: 456 1073 349
Width: 611
Flags: MW
HStem: -23 117<279 349 279 373> 432 117<400.5 406.5>
VStem: 76 142<171.5 252> 467 142<262 353.5>
LayerCount: 2
Fore
SplineSet
583 776 m 1
 687 777 l 1
 678 736 668 690 630 666 c 0
 534 606 463 655 369 592 c 0
 316 557 269 470 269 470 c 2
 314 524 367 549 434 549 c 0
 500 549 559 515 585 462 c 0
 601 429 609 387 609 342 c 0
 609 140 466 -23 280 -23 c 0
 152 -23 76 37 76 176 c 0
 76 328 164 596 321 684 c 0
 372 712 453 716 520 724 c 0
 568 730 583 776 583 776 c 1
379 432 m 0
 294 432 218 322 218 206 c 0
 218 137 251 94 307 94 c 0
 391 94 467 205 467 319 c 0
 467 388 434 432 379 432 c 0
EndSplineSet
EndChar

StartChar: afii10067
Encoding: 457 1074 350
Width: 616
Flags: MW
HStem: 0 110<223 345 345 351> 223 110<247 377 271 369> 430 110<291 291 291 397>
VStem: 439 137<159 198>
LayerCount: 2
Fore
SplineSet
60 0 m 1
 175 540 l 1
 453 540 l 2
 548 540 602 499 602 423 c 0
 602 361 580 310 512 286 c 1
 558 264 576 223 576 182 c 0
 576 77 478 0 351 0 c 2
 60 0 l 1
291 430 m 1
 271 333 l 1
 377 333 l 2
 435 333 463 350 463 393 c 0
 463 421 441 430 397 430 c 2
 291 430 l 1
247 223 m 1
 223 110 l 1
 345 110 l 2
 407 110 439 135 439 183 c 0
 439 213 415 223 369 223 c 2
 247 223 l 1
EndSplineSet
EndChar

StartChar: afii10068
Encoding: 458 1075 351
Width: 475
Flags: MW
HStem: 0 21G<60 200 60 60> 427 113<291 499 291 291>
VStem: 60 463
LayerCount: 2
Fore
SplineSet
523 540 m 1
 499 427 l 1
 291 427 l 1
 200 0 l 1
 60 0 l 1
 175 540 l 1
 523 540 l 1
EndSplineSet
EndChar

StartChar: afii10069
Encoding: 459 1076 352
Width: 804
Flags: W
HStem: 0 101<115 122 26 599 115 115> 0 113<303 501 303 599> 427 113<409 568 409 409>
LayerCount: 2
Fore
SplineSet
638 101 m 1xa0
 730 101 l 1
 682 -125 l 1
 572 -125 l 1
 599 0 l 1
 115 0 l 1
 88 -125 l 1
 -22 -125 l 1
 26 101 l 1
 122 101 l 1
 176 102 230 248 243 308 c 2
 293 540 l 1
 732 540 l 1
 638 101 l 1xa0
303 113 m 1x60
 501 113 l 1
 568 427 l 1
 409 427 l 1
 381 296 l 2
 369 242 344 158 303 113 c 1x60
EndSplineSet
EndChar

StartChar: afii10070
Encoding: 460 1077 353
Width: 552
Flags: MW
HStem: -23 107<264.5 314.5 264.5 321.5> 226 93<229 444 229 569 207 444> 442 107<330 387.5>
VStem: 64 137<138 173.5 138 272> 446 141<344.5 380.5>
LayerCount: 2
Fore
SplineSet
569 226 m 1
 207 226 l 1
 203 200 201 181 201 166 c 0
 201 110 240 84 289 84 c 0
 340 84 384 109 411 152 c 1
 549 152 l 1
 495 46 382 -23 261 -23 c 0
 135 -23 64 49 64 172 c 0
 64 372 207 549 386 549 c 0
 505 549 587 483 587 354 c 0
 587 323 583 287 575 250 c 0
 574 243 573 238 569 226 c 1
229 319 m 1
 444 319 l 1
 445 330 446 340 446 349 c 0
 446 412 414 442 361 442 c 0
 299 442 256 401 229 319 c 1
EndSplineSet
EndChar

StartChar: afii10072
Encoding: 462 1078 355
Width: 775
Flags: MW
HStem: 0 21G<16 195 16 16 332 332 332 472 609 609 609 788> 520 20G<167 315 315 315 447 587 587 587 719 867 867 867>
LayerCount: 2
Fore
SplineSet
374 198 m 1
 195 0 l 1
 16 0 l 1
 292 296 l 1
 167 540 l 1
 315 540 l 1
 407 351 l 1
 447 540 l 1
 587 540 l 1
 547 351 l 1
 719 540 l 1
 867 540 l 1
 638 296 l 1
 788 0 l 1
 609 0 l 1
 514 198 l 1
 472 0 l 1
 332 0 l 1
 374 198 l 1
EndSplineSet
EndChar

StartChar: afii10073
Encoding: 463 1079 356
Width: 556
Flags: MW
HStem: -23 110<269.5 328.5 269.5 354> 208 110<247 360 271 339> 439 110<335.5 391.5>
VStem: 410 145<136 174>
LayerCount: 2
Fore
SplineSet
247 208 m 1
 271 318 l 1
 360 318 l 2
 433 318 441 361 441 391 c 0
 441 416 414 439 369 439 c 0
 302 439 269 415 258 366 c 1
 123 366 l 1
 149 480 247 549 392 549 c 0
 512 549 580 496 580 409 c 0
 580 349 557 296 516 271 c 1
 542 252 555 229 555 196 c 0
 555 64 432 -23 276 -23 c 0
 131 -23 56 28 56 119 c 0
 56 131 57 143 60 157 c 1
 197 157 l 1
 197 149 l 2
 197 92 247 87 292 87 c 0
 365 87 410 109 410 163 c 0
 410 185 399 208 339 208 c 2
 247 208 l 1
EndSplineSet
EndChar

StartChar: afii10074
Encoding: 464 1080 357
Width: 636
Flags: MW
HStem: 0 21G<60 215 60 60 403 543 403 403> 520 20G<175 315 315 315 503 658 658 658>
LayerCount: 2
Fore
SplineSet
175 540 m 1
 315 540 l 1
 242 197 l 1
 503 540 l 1
 658 540 l 1
 543 0 l 1
 403 0 l 1
 476 343 l 1
 215 0 l 1
 60 0 l 1
 175 540 l 1
EndSplineSet
EndChar

StartChar: afii10075
Encoding: 465 1081 358
Width: 636
Flags: MW
HStem: 0 21G<60 215 60 60 403 543 403 403> 520 20G<175 315 315 315 503 658 658 658> 611 78<422.5 469.5>
VStem: 324 48<684 746>
LayerCount: 2
Fore
SplineSet
549 754 m 1
 591 754 l 1
 577 672 509 611 430 611 c 0
 367 611 324 653 324 715 c 0
 324 727 325 736 330 754 c 1
 372 754 l 1
 372 746 l 2
 372 710 399 689 446 689 c 0
 497 689 532 711 549 754 c 1
175 540 m 1
 315 540 l 1
 242 197 l 1
 503 540 l 1
 658 540 l 1
 543 0 l 1
 403 0 l 1
 476 343 l 1
 215 0 l 1
 60 0 l 1
 175 540 l 1
EndSplineSet
EndChar

StartChar: afii10076
Encoding: 466 1082 359
Width: 529
Flags: MW
HStem: 0 21G<59 199 59 59 366 548 366 366> 520 20G<174 314 314 314 476 624 624 624>
LayerCount: 2
Fore
SplineSet
274 351 m 1
 476 540 l 1
 624 540 l 1
 358 296 l 1
 548 0 l 1
 366 0 l 1
 241 198 l 1
 199 0 l 1
 59 0 l 1
 174 540 l 1
 314 540 l 1
 274 351 l 1
EndSplineSet
EndChar

StartChar: afii10077
Encoding: 467 1083 360
Width: 608
Flags: MW
HStem: 0 135<0 0 0 48.5> 427 113<277 436 277 277>
LayerCount: 2
Fore
SplineSet
161 540 m 1
 600 540 l 1
 486 0 l 1
 346 0 l 1
 436 427 l 1
 277 427 l 1
 250 296 l 2
 216 133 125 0 -28 0 c 1
 0 135 l 1
 74 136 94 224 112 308 c 2
 161 540 l 1
EndSplineSet
EndChar

StartChar: afii10078
Encoding: 468 1084 361
Width: 697
Flags: MW
HStem: 0 21G<60 200 60 60 464 464 464 604> 520 20G<175 315 315 315 579 719 719 719>
LayerCount: 2
Fore
SplineSet
313 74 m 1
 255 257 l 1
 200 0 l 1
 60 0 l 1
 175 540 l 1
 315 540 l 1
 388 262 l 1
 579 540 l 1
 719 540 l 1
 604 0 l 1
 464 0 l 1
 519 257 l 1
 383 74 l 1
 313 74 l 1
EndSplineSet
EndChar

StartChar: afii10079
Encoding: 469 1085 362
Width: 636
Flags: MW
HStem: 0 21G<60 200 60 60 403 543 403 403> 237 115<275 456 253 478> 520 20G<175 315 315 315 518 658 658 658>
LayerCount: 2
Fore
SplineSet
175 540 m 1
 315 540 l 1
 275 352 l 1
 478 352 l 1
 518 540 l 1
 658 540 l 1
 543 0 l 1
 403 0 l 1
 456 237 l 1
 253 237 l 1
 200 0 l 1
 60 0 l 1
 175 540 l 1
EndSplineSet
EndChar

StartChar: afii10080
Encoding: 470 1086 363
Width: 611
Flags: MW
HStem: -23 113<291.5 367 291.5 392.5> 436 113<350 426>
VStem: 82 143<171.5 266.5 171.5 283> 491 144<259 355.5>
LayerCount: 2
Fore
SplineSet
418 549 m 0
 558 549 635 475 635 345 c 0
 635 140 487 -23 298 -23 c 0
 159 -23 82 52 82 181 c 0
 82 385 231 549 418 549 c 0
395 436 m 0
 305 436 225 326 225 207 c 0
 225 136 261 90 322 90 c 0
 412 90 491 199 491 319 c 0
 491 392 457 436 395 436 c 0
EndSplineSet
EndChar

StartChar: afii10081
Encoding: 471 1087 364
Width: 636
Flags: MW
HStem: 0 21G<60 200 60 60 403 543 403 403> 427 113<291 494 291 291>
LayerCount: 2
Fore
SplineSet
175 540 m 1
 658 540 l 1
 543 0 l 1
 403 0 l 1
 494 427 l 1
 291 427 l 1
 200 0 l 1
 60 0 l 1
 175 540 l 1
EndSplineSet
EndChar

StartChar: afii10082
Encoding: 472 1088 365
Width: 611
Flags: MW
HStem: -24 117<274 342 273 382.5> 432 117<396 401>
VStem: 461 143<261 354.5>
LayerCount: 2
Fore
SplineSet
278 540 m 1
 261 460 l 1
 307 520 362 549 430 549 c 0
 495 549 554 515 579 464 c 0
 595 432 604 391 604 345 c 0
 604 146 457 -24 308 -24 c 0
 240 -24 198 4 176 64 c 1
 116 -218 l 1
 -24 -218 l 1
 138 540 l 1
 278 540 l 1
373 432 m 0
 288 432 212 320 212 205 c 0
 212 136 245 93 301 93 c 0
 383 93 461 202 461 320 c 0
 461 389 429 432 373 432 c 0
EndSplineSet
EndChar

StartChar: afii10083
Encoding: 473 1089 366
Width: 554
Flags: MW
HStem: -23 113<277 333 277 346.5> 436 113<359 407.5>
VStem: 77 143<163 234 163 274.5>
LayerCount: 2
Fore
SplineSet
592 338 m 1
 458 338 l 1
 457 409 436 436 379 436 c 0
 339 436 305 420 282 390 c 0
 250 348 220 271 220 197 c 0
 220 129 248 90 306 90 c 0
 360 90 393 117 426 187 c 1
 560 187 l 1
 520 58 412 -23 281 -23 c 0
 149 -23 77 52 77 173 c 0
 77 376 218 549 404 549 c 0
 525 549 595 485 595 377 c 0
 595 365 594 352 592 338 c 1
EndSplineSet
EndChar

StartChar: afii10086
Encoding: 476 1092 369
Width: 989
Flags: MW
HStem: -24 117<275.5 280 652 721> 432 117<332.5 402 285.5 403 774 779.5> 699 20G<554 694 694 694>
VStem: 72 143<171 263 171 275.5> 463 128<260 263.5 170.5 353.5> 839 143<259 353>
LayerCount: 2
Fore
SplineSet
415 64 m 1
 368 4 314 -24 246 -24 c 0
 139 -24 72 66 72 181 c 0
 72 370 203 549 368 549 c 0
 436 549 478 520 499 460 c 1
 554 719 l 1
 694 719 l 1
 639 460 l 1
 686 520 740 549 808 549 c 0
 873 549 933 515 958 464 c 0
 974 433 982 391 982 346 c 0
 982 146 835 -24 686 -24 c 0
 618 -24 576 4 555 64 c 1
 495 -218 l 1
 355 -218 l 1
 415 64 l 1
375 432 m 0
 290 432 215 321 215 205 c 0
 215 137 248 93 303 93 c 0
 387 93 463 201 463 319 c 0
 463 388 431 432 375 432 c 0
751 432 m 0
 667 432 591 322 591 205 c 0
 591 136 623 93 679 93 c 0
 763 93 839 200 839 318 c 0
 839 388 808 432 751 432 c 0
EndSplineSet
EndChar

StartChar: afii10087
Encoding: 477 1093 370
Width: 554
Flags: MW
HStem: 0 21G<16 184 16 16 358 520 358 358> 520 20G<135 296 296 296 474 641 641 641>
LayerCount: 2
Fore
SplineSet
409 267 m 1
 520 0 l 1
 358 0 l 1
 302 148 l 1
 184 0 l 1
 16 0 l 1
 250 270 l 1
 135 540 l 1
 296 540 l 1
 356 395 l 1
 474 540 l 1
 641 540 l 1
 409 267 l 1
EndSplineSet
EndChar

StartChar: afii10088
Encoding: 478 1094 371
Width: 662
Flags: MW
HStem: 0 113<224 427 224 553> 520 20G<175 315 315 315 518 658 658 658>
LayerCount: 2
Fore
SplineSet
60 0 m 1
 175 540 l 1
 315 540 l 1
 224 113 l 1
 427 113 l 1
 518 540 l 1
 658 540 l 1
 564 101 l 1
 684 101 l 1
 636 -125 l 1
 526 -125 l 1
 553 0 l 1
 60 0 l 1
EndSplineSet
EndChar

StartChar: afii10089
Encoding: 479 1095 372
Width: 606
Flags: MW
HStem: 0 21G<373 513 373 373> 165 113<256 432 339 408> 520 20G<170 310 310 310 488 628 628 628>
LayerCount: 2
Fore
SplineSet
170 540 m 1
 310 540 l 1
 272 363 l 2
 269 349 267 337 267 326 c 0
 267 295 284 278 339 278 c 2
 432 278 l 1
 488 540 l 1
 628 540 l 1
 513 0 l 1
 373 0 l 1
 408 165 l 1
 323 165 l 2
 189 165 127 214 127 309 c 0
 127 327 129 347 134 369 c 2
 170 540 l 1
EndSplineSet
EndChar

StartChar: afii10090
Encoding: 480 1096 373
Width: 934
Flags: MW
HStem: 0 113<224 403 543 725> 520 20G<175 315 315 315 494 634 634 634 816 956 956 956>
LayerCount: 2
Fore
SplineSet
841 0 m 1
 60 0 l 1
 175 540 l 1
 315 540 l 1
 224 113 l 1
 403 113 l 1
 494 540 l 1
 634 540 l 1
 543 113 l 1
 725 113 l 1
 816 540 l 1
 956 540 l 1
 841 0 l 1
EndSplineSet
EndChar

StartChar: afii10091
Encoding: 481 1097 374
Width: 960
Flags: MW
HStem: 0 113<224 403 543 725> 520 20G<174 314 314 314 493 633 633 633 815 955 955 955>
LayerCount: 2
Fore
SplineSet
851 0 m 1
 60 0 l 1
 174 540 l 1
 314 540 l 1
 224 113 l 1
 403 113 l 1
 493 540 l 1
 633 540 l 1
 543 113 l 1
 725 113 l 1
 815 540 l 1
 955 540 l 1
 862 101 l 1
 982 101 l 1
 934 -125 l 1
 824 -125 l 1
 851 0 l 1
EndSplineSet
EndChar

StartChar: afii10092
Encoding: 482 1098 375
Width: 674
Flags: MW
HStem: 0 110<344 457 344 457> 223 110<368 492 391 466> 427 113<124 271 100 435>
VStem: 545 139<156 197.5>
LayerCount: 2
Fore
SplineSet
124 540 m 1
 435 540 l 1
 391 333 l 1
 492 333 l 2
 618 333 684 288 684 202 c 0
 684 83 599 0 457 0 c 2
 181 0 l 1
 271 427 l 1
 100 427 l 1
 124 540 l 1
368 223 m 1
 344 110 l 1
 457 110 l 2
 515 110 545 131 545 181 c 0
 545 214 514 223 466 223 c 2
 368 223 l 1
EndSplineSet
EndChar

StartChar: afii10093
Encoding: 483 1099 376
Width: 814
Flags: MW
HStem: 0 110<224 321 321 326> 223 110<248 362 271 345> 520 20G<175 315 315 315 696 836 836 836>
VStem: 414 138<164.5 203>
LayerCount: 2
Fore
SplineSet
836 540 m 1
 721 0 l 1
 581 0 l 1
 696 540 l 1
 836 540 l 1
362 333 m 2
 490 333 552 283 552 196 c 0
 552 76 463 0 326 0 c 2
 60 0 l 1
 175 540 l 1
 315 540 l 1
 271 333 l 1
 362 333 l 2
248 223 m 1
 224 110 l 1
 321 110 l 2
 383 110 414 141 414 188 c 0
 414 218 391 223 345 223 c 2
 248 223 l 1
EndSplineSet
EndChar

StartChar: afii10094
Encoding: 484 1100 377
Width: 557
Flags: MW
HStem: 0 110<223 335 335 341> 223 110<247 377 271 359> 520 20G<175 315 315 315>
VStem: 429 138<160 199>
LayerCount: 2
Fore
SplineSet
377 333 m 2
 505 333 567 283 567 196 c 0
 567 76 475 0 341 0 c 2
 60 0 l 1
 175 540 l 1
 315 540 l 1
 271 333 l 1
 377 333 l 2
247 223 m 1
 223 110 l 1
 335 110 l 2
 397 110 429 136 429 184 c 0
 429 214 405 223 359 223 c 2
 247 223 l 1
EndSplineSet
EndChar

StartChar: afii10095
Encoding: 485 1101 378
Width: 575
Flags: MW
HStem: -23 113<270 326.5 270 371> 207 113<257 455 281 433> 436 113<342.5 391>
VStem: 82 136<98.5 187>
LayerCount: 2
Fore
SplineSet
257 207 m 1
 281 320 l 1
 455 320 l 1
 456 347 454 371 448 390 c 0
 438 420 411 436 371 436 c 0
 314 436 281 409 250 338 c 1
 116 338 l 1
 154 470 259 549 394 549 c 0
 526 549 597 478 597 351 c 0
 597 149 468 -23 274 -23 c 0
 154 -23 82 42 82 155 c 0
 82 165 83 176 84 187 c 1
 218 187 l 1
 221 117 243 90 297 90 c 0
 356 90 405 133 433 207 c 1
 257 207 l 1
EndSplineSet
EndChar

StartChar: afii10096
Encoding: 486 1102 379
Width: 888
Flags: MW
HStem: -23 113<567.5 643 567.5 669> 207 113<268 360 244 384> 436 113<627 702.5>
VStem: 359 143<171 185> 768 143<261 356.5>
LayerCount: 2
Fore
SplineSet
360 207 m 1
 244 207 l 1
 200 0 l 1
 60 0 l 1
 175 540 l 1
 315 540 l 1
 268 320 l 1
 384 320 l 1
 434 463 548 549 695 549 c 0
 835 549 911 476 911 347 c 0
 911 142 764 -23 574 -23 c 0
 435 -23 359 53 359 181 c 0
 359 189 359 198 360 207 c 1
672 436 m 0
 582 436 502 326 502 207 c 0
 502 135 537 90 598 90 c 0
 688 90 768 201 768 321 c 0
 768 392 733 436 672 436 c 0
EndSplineSet
EndChar

StartChar: afii10097
Encoding: 487 1103 380
Width: 636
Flags: MW
HStem: 0 21G<37 216 37 37 403 403 403 543> 430 110<367 373 373 495>
VStem: 140 139<347 386 347 402>
LayerCount: 2
Fore
SplineSet
403 207 m 1
 216 0 l 1
 37 0 l 1
 239 218 l 1
 174 237 140 284 140 344 c 0
 140 460 229 540 367 540 c 2
 658 540 l 1
 543 0 l 1
 403 0 l 1
 447 207 l 1
 403 207 l 1
471 317 m 1
 495 430 l 1
 373 430 l 2
 311 430 279 410 279 362 c 0
 279 332 303 317 349 317 c 2
 471 317 l 1
EndSplineSet
EndChar

StartChar: afii10099
Encoding: 504 1106 397
Width: 611
Flags: MW
HStem: -132 58<320 355.5 332 355.5 332 401> 0 21G<67 207 67 67 546 546> 582 80<143 191 126 208 348 476> 709 20G<222 362 362 362>
LayerCount: 2
Fore
SplineSet
320 -132 m 1
 332 -74 l 1
 379 -74 395 -46 405 2 c 2
 469 293 l 2
 473 314 475 328 475 341 c 0
 475 390 449 417 402 417 c 0
 338 417 285 365 268 284 c 2
 207 0 l 1
 67 0 l 1
 191 582 l 1
 126 582 l 1
 143 662 l 1
 208 662 l 1
 222 729 l 1
 362 729 l 1
 348 662 l 1
 493 662 l 1
 476 582 l 1
 331 582 l 1
 300 438 l 1
 353 501 409 529 480 529 c 0
 567 529 625 476 625 397 c 0
 625 379 623 361 619 342 c 2
 546 0 l 2
 530 -75 488 -132 401 -132 c 2
 320 -132 l 1
EndSplineSet
EndChar

StartChar: afii10100
Encoding: 505 1107 398
Width: 475
Flags: MW
HStem: 0 21G<60 200 60 60> 427 113<291 499 291 291>
VStem: 60 497
LayerCount: 2
Fore
SplineSet
557 759 m 1
 399 609 l 1
 329 609 l 1
 431 759 l 1
 557 759 l 1
523 540 m 1
 499 427 l 1
 291 427 l 1
 200 0 l 1
 60 0 l 1
 175 540 l 1
 523 540 l 1
EndSplineSet
EndChar

StartChar: afii10101
Encoding: 506 1108 399
Width: 575
Flags: MW
HStem: -23 113<288 336.5 288 352.5> 206 113<246 398 224 422> 436 113<352.5 409>
VStem: 461 136<339 427.5>
LayerCount: 2
Fore
SplineSet
422 319 m 1
 398 206 l 1
 224 206 l 1
 223 179 225 155 231 136 c 0
 241 106 268 90 308 90 c 0
 365 90 398 117 429 188 c 1
 563 188 l 1
 525 56 420 -23 285 -23 c 0
 153 -23 82 48 82 175 c 0
 82 377 211 549 405 549 c 0
 525 549 597 484 597 371 c 0
 597 361 596 350 595 339 c 1
 461 339 l 1
 458 409 436 436 382 436 c 0
 323 436 274 393 246 319 c 1
 422 319 l 1
EndSplineSet
EndChar

StartChar: afii10102
Encoding: 507 1109 400
Width: 556
Flags: MW
HStem: -23 110<221 260.5> 439 110<281.5 339.5>
LayerCount: 2
Fore
SplineSet
527 366 m 1
 392 366 l 1
 401 415 373 439 306 439 c 0
 257 439 221 419 215 389 c 0
 210 367 218 359 255 347 c 2
 421 296 l 2
 488 275 513 230 498 160 c 0
 487 107 452 57 405 25 c 0
 359 -7 298 -23 223 -23 c 0
 59 -23 -15 39 6 157 c 1
 143 157 l 1
 143 128 147 117 160 106 c 0
 175 94 203 87 239 87 c 0
 304 87 347 107 354 140 c 0
 359 162 349 173 316 184 c 2
 160 236 l 2
 112 253 97 262 82 281 c 1
 67 302 63 333 71 369 c 0
 94 480 194 549 331 549 c 0
 476 549 549 480 527 366 c 1
EndSplineSet
EndChar

StartChar: afii10103
Encoding: 508 1110 401
Width: 278
Flags: MW
HStem: 0 21G<67 207 67 67> 520 20G<182 322 322 322> 604 125<222 335 195 362>
VStem: 67 295
LayerCount: 2
Fore
SplineSet
322 540 m 1
 207 0 l 1
 67 0 l 1
 182 540 l 1
 322 540 l 1
362 729 m 1
 335 604 l 1
 195 604 l 1
 222 729 l 1
 362 729 l 1
EndSplineSet
EndChar

StartChar: afii10106
Encoding: 511 1113 404
Width: 860
Flags: W
HStem: 0 110<509 631 631 637> 0 135<0 0 0 48.5> 223 110<533 673 557 655> 427 113<277 436 277 277>
VStem: 725 138<160 199>
LayerCount: 2
Fore
SplineSet
161 540 m 1x78
 601 540 l 1
 557 333 l 1
 673 333 l 2
 801 333 863 283 863 196 c 0
 863 76 771 0 637 0 c 2
 346 0 l 1xb8
 436 427 l 1
 277 427 l 1
 250 296 l 2
 216 133 125 0 -28 0 c 1
 0 135 l 1
 74 136 94 224 112 308 c 2
 161 540 l 1x78
533 223 m 1
 509 110 l 1
 631 110 l 2
 693 110 725 136 725 184 c 0
 725 214 701 223 655 223 c 2
 533 223 l 1
EndSplineSet
EndChar

StartChar: afii10107
Encoding: 512 1114 405
Width: 823
Flags: MW
HStem: 0 110<512 608 608 614> 223 108<216 396 193 419> 520 20G<120 260 260 260 463 604 604 604>
VStem: 702 138<160 199>
LayerCount: 2
Fore
SplineSet
349 0 m 1
 396 223 l 1
 193 223 l 1
 146 0 l 1
 6 0 l 1
 120 540 l 1
 260 540 l 1
 216 331 l 1
 419 331 l 1
 463 540 l 1
 604 540 l 1
 560 333 l 1
 650 333 l 2
 778 333 840 283 840 196 c 0
 840 76 748 0 614 0 c 2
 349 0 l 1
536 223 m 1
 512 110 l 1
 608 110 l 2
 670 110 702 136 702 184 c 0
 702 214 678 223 632 223 c 2
 536 223 l 1
EndSplineSet
EndChar

StartChar: afii10108
Encoding: 513 1115 406
Width: 611
Flags: MW
HStem: 0 21G<67 207 67 67 406 546 406 406> 417 112<370 523.5> 582 80<143 191 126 208 348 476> 709 20G<222 362 362 362>
LayerCount: 2
Fore
SplineSet
208 662 m 1
 222 729 l 1
 362 729 l 1
 348 662 l 1
 493 662 l 1
 476 582 l 1
 331 582 l 1
 300 438 l 1
 353 501 409 529 480 529 c 0
 567 529 625 476 625 397 c 0
 625 379 623 361 619 342 c 2
 546 0 l 1
 406 0 l 1
 469 293 l 2
 473 314 475 328 475 341 c 0
 475 390 449 417 402 417 c 0
 338 417 285 365 268 284 c 2
 207 0 l 1
 67 0 l 1
 191 582 l 1
 126 582 l 1
 143 662 l 1
 208 662 l 1
EndSplineSet
EndChar

StartChar: afii10109
Encoding: 514 1116 407
Width: 529
Flags: MW
HStem: 0 21G<59 199 59 59 366 548 366 366> 520 20G<174 314 314 314 476 624 624 624>
LayerCount: 2
Fore
SplineSet
607 759 m 1
 449 609 l 1
 379 609 l 1
 481 759 l 1
 607 759 l 1
274 351 m 1
 476 540 l 1
 624 540 l 1
 358 296 l 1
 548 0 l 1
 366 0 l 1
 241 198 l 1
 199 0 l 1
 59 0 l 1
 174 540 l 1
 314 540 l 1
 274 351 l 1
EndSplineSet
EndChar

StartChar: uni045D
Encoding: 515 1117 408
Width: 636
Flags: MW
HStem: 0 21G<60 215 60 60 403 543 403 403> 520 20G<175 315 315 315 503 658 658 658>
LayerCount: 2
Fore
SplineSet
299 759 m 1
 418 759 l 1
 463 609 l 1
 400 609 l 1
 299 759 l 1
175 540 m 1
 315 540 l 1
 242 197 l 1
 503 540 l 1
 658 540 l 1
 543 0 l 1
 403 0 l 1
 476 343 l 1
 215 0 l 1
 60 0 l 1
 175 540 l 1
EndSplineSet
EndChar

StartChar: afii10110
Encoding: 516 1118 409
Width: 552
Flags: MW
HStem: -219 103<89.5 103.5> 520 20G<120 273 273 273 507 639 639 639> 609 78<391.5 438.5>
VStem: 293 48<682 744>
LayerCount: 2
Fore
SplineSet
518 752 m 1
 560 752 l 1
 546 670 478 609 399 609 c 0
 336 609 293 651 293 713 c 0
 293 725 294 734 299 752 c 1
 341 752 l 1
 341 744 l 2
 341 708 368 687 415 687 c 0
 466 687 501 709 518 752 c 1
507 540 m 1
 639 540 l 1
 305 -101 l 1
 269 -165 233 -186 190 -202 c 0
 164 -212 121 -219 86 -219 c 0
 69 -219 57 -218 37 -215 c 1
 59 -110 l 1
 76 -115 84 -116 95 -116 c 0
 143 -116 203 -74 203 -29 c 0
 203 -27 202 -24 202 -22 c 2
 120 540 l 1
 273 540 l 1
 318 167 l 1
 507 540 l 1
EndSplineSet
EndChar

StartChar: afii10193
Encoding: 517 1119 410
Width: 608
Flags: MW
HStem: 0 113<180 203 313 384 180 500 313 313> 520 20G<131 271 271 271 475 615 615 615>
LayerCount: 2
Fore
SplineSet
313 0 m 1
 286 -125 l 1
 176 -125 l 1
 203 0 l 1
 16 0 l 1
 131 540 l 1
 271 540 l 1
 180 113 l 1
 384 113 l 1
 475 540 l 1
 615 540 l 1
 500 0 l 1
 313 0 l 1
EndSplineSet
EndChar

StartChar: uni048C
Encoding: 518 1164 411
Width: 639
Flags: MW
HStem: 0 125<243 383 383 388> 344 125<289 503 316 429> 551 80<125 183 108 200 350 408> 709 20G<221 371 371 371>
VStem: 527 152<229 295>
LayerCount: 2
Fore
SplineSet
289 344 m 1
 243 125 l 1
 383 125 l 2
 476 125 527 188 527 270 c 0
 527 320 495 344 429 344 c 2
 289 344 l 1
350 631 m 1
 425 631 l 1
 408 551 l 1
 333 551 l 1
 316 469 l 1
 503 469 l 2
 615 469 679 403 679 296 c 0
 679 127 562 0 388 0 c 2
 66 0 l 1
 183 551 l 1
 108 551 l 1
 125 631 l 1
 200 631 l 1
 221 729 l 1
 371 729 l 1
 350 631 l 1
EndSplineSet
EndChar

StartChar: uni048D
Encoding: 519 1165 412
Width: 619
Flags: MW
HStem: 0 110<223 320 320 326> 223 110<247 362 271 344> 398 80<87 145 72 162 302 370> 520 20G<175 315 315 315>
VStem: 414 138<164 203>
LayerCount: 2
Fore
SplineSet
247 223 m 1
 223 110 l 1
 320 110 l 2
 382 110 414 140 414 188 c 0
 414 218 390 223 344 223 c 2
 247 223 l 1
302 478 m 1
 385 478 l 1
 370 398 l 1
 285 398 l 1
 271 333 l 1
 362 333 l 2
 490 333 552 283 552 196 c 0
 552 76 460 0 326 0 c 2
 60 0 l 1
 145 398 l 1
 72 398 l 1
 87 478 l 1
 162 478 l 1
 175 540 l 1
 315 540 l 1
 302 478 l 1
EndSplineSet
EndChar

StartChar: uni048E
Encoding: 520 1166 413
Width: 649
Flags: MW
HStem: 0 21G<68 218 68 68> 260 125<299 439 439 449 299 460 273 439> 604 125<346 486 346 346>
LayerCount: 2
Fore
SplineSet
559 439 m 1
 568 454 575 473 580 494 c 0
 596 569 566 604 486 604 c 2
 346 604 l 1
 299 385 l 1
 439 385 l 2
 459 385 477 387 493 392 c 1
 434 451 l 1
 503 495 l 1
 559 439 l 1
653 345 m 1
 715 283 l 1
 646 239 l 1
 591 294 l 1
 552 272 508 260 460 260 c 2
 273 260 l 1
 218 0 l 1
 68 0 l 1
 223 729 l 1
 545 729 l 2
 697 729 763 649 732 503 c 0
 718 439 691 385 653 345 c 1
EndSplineSet
EndChar

StartChar: uni048F
Encoding: 521 1167 414
Width: 611
Flags: MW
HStem: -24 117<274 317.5 266 338.5> 432 117<396 408.5>
LayerCount: 2
Fore
SplineSet
436 203 m 1
 443 221 450 240 454 260 c 0
 476 363 444 432 373 432 c 0
 303 432 240 363 219 262 c 0
 197 161 231 93 301 93 c 0
 334 93 365 108 391 135 c 1
 322 204 l 1
 391 248 l 1
 436 203 l 1
530 109 m 1
 603 36 l 1
 534 -8 l 1
 478 48 l 1
 428 3 369 -24 308 -24 c 0
 240 -24 198 4 176 64 c 1
 116 -218 l 1
 -24 -218 l 1
 138 540 l 1
 278 540 l 1
 261 460 l 1
 307 520 362 549 430 549 c 0
 495 549 554 515 579 464 c 1
 605 414 611 338 595 262 c 0
 583 205 560 153 530 109 c 1
EndSplineSet
EndChar

StartChar: afii10050
Encoding: 522 1168 415
Width: 611
Flags: MW
HStem: 0 21G<-18 132 -18 -18> 604 124<499 499 499 623>
LayerCount: 2
Fore
SplineSet
132 0 m 1
 -18 0 l 1
 137 729 l 1
 499 728 l 1
 528 864 l 1
 678 864 l 1
 623 604 l 1
 261 604 l 1
 132 0 l 1
EndSplineSet
EndChar

StartChar: afii10098
Encoding: 523 1169 416
Width: 454
Flags: MW
HStem: 0 21G<-7 133 -7 -7> 427 113<224 328 108 432 224 224>
VStem: -7 490
LayerCount: 2
Fore
SplineSet
483 666 m 1
 432 427 l 1
 224 427 l 1
 133 0 l 1
 -7 0 l 1
 108 540 l 1
 328 540 l 1
 355 666 l 1
 483 666 l 1
EndSplineSet
EndChar

StartChar: uni0492
Encoding: 524 1170 417
Width: 611
Flags: MW
HStem: 0 21G<74 224 74 74> 389 80<97 157 80 174 323 380> 604 125<352 714 352 352>
LayerCount: 2
Fore
SplineSet
323 469 m 1
 397 469 l 1
 380 389 l 1
 306 389 l 1
 224 0 l 1
 74 0 l 1
 157 389 l 1
 80 389 l 1
 97 469 l 1
 174 469 l 1
 229 729 l 1
 741 729 l 1
 714 604 l 1
 352 604 l 1
 323 469 l 1
EndSplineSet
EndChar

StartChar: uni0493
Encoding: 525 1171 418
Width: 475
Flags: MW
HStem: 0 21G<60 200 60 60> 264 80<51 116 34 133 273 334> 427 113<291 499 291 291>
VStem: 34 489<264 540>
LayerCount: 2
Fore
SplineSet
133 344 m 1
 175 540 l 1
 523 540 l 1
 499 427 l 1
 291 427 l 1
 273 344 l 1
 351 344 l 1
 334 264 l 1
 256 264 l 1
 200 0 l 1
 60 0 l 1
 116 264 l 1
 34 264 l 1
 51 344 l 1
 133 344 l 1
EndSplineSet
EndChar

StartChar: uni0494
Encoding: 526 1172 419
Width: 611
Flags: MW
HStem: -166 107<328 383 383 410 306 383> 0 21G<74 224 74 74 469 469 619 619> 330 125<320 437 294 464> 604 125<352 714 352 352>
LayerCount: 2
Fore
SplineSet
224 0 m 1
 74 0 l 1
 229 729 l 1
 741 729 l 1
 714 604 l 1
 352 604 l 1
 320 455 l 1
 464 455 l 2
 617 455 673 390 673 289 c 0
 673 266 670 241 665 215 c 2
 619 0 l 2
 599 -92 563 -166 410 -166 c 2
 306 -166 l 1
 328 -59 l 1
 383 -59 l 2
 450 -59 462 -34 469 0 c 2
 517 224 l 2
 520 241 523 257 523 271 c 0
 523 307 504 330 437 330 c 2
 294 330 l 1
 224 0 l 1
EndSplineSet
EndChar

StartChar: uni0495
Encoding: 527 1173 420
Width: 475
Flags: MW
HStem: -132 88<281 304.5 281 344 263 304.5> 0 21G<60 200 60 60 489 489> 187 112<266 314 240 374> 427 113<291 291 291 499>
LayerCount: 2
Fore
SplineSet
291 427 m 1
 266 299 l 1
 374 299 l 2
 461 299 519 246 519 167 c 0
 519 149 517 131 513 112 c 2
 489 0 l 2
 473 -75 431 -132 344 -132 c 2
 263 -132 l 1
 281 -44 l 1
 328 -44 342 -26 352 22 c 1
 370 94 l 1
 374 115 375 115 375 128 c 0
 375 177 342 187 314 187 c 2
 240 187 l 1
 200 0 l 1
 60 0 l 1
 175 540 l 1
 523 540 l 1
 499 427 l 1
 291 427 l 1
EndSplineSet
EndChar

StartChar: uni0497
Encoding: 529 1175 422
Width: 775
Flags: MW
HStem: -20 20G<16 195 16 16 332 472 332 332 609 678 609 609> 520 20G<167 315 315 315 447 587 587 587 719 867 867 867>
LayerCount: 2
Fore
SplineSet
737 101 m 1
 809 101 l 1
 761 -125 l 1
 651 -125 l 1
 678 0 l 1
 609 0 l 1
 514 198 l 1
 472 0 l 1
 332 0 l 1
 374 198 l 1
 195 0 l 1
 16 0 l 1
 292 296 l 1
 167 540 l 1
 315 540 l 1
 407 351 l 1
 447 540 l 1
 587 540 l 1
 547 351 l 1
 719 540 l 1
 867 540 l 1
 638 296 l 1
 737 101 l 1
EndSplineSet
EndChar

StartChar: uni0498
Encoding: 530 1176 423
Width: 659
Flags: W
HStem: -233 50<316 328.5 299 369.5> 308 120<334 410 410 411 309 410> 621 120<429.5 497>
VStem: 67 148<164.5 177.5> 362 100<-156 -136 -180.5 -131.5> 526 151<182.5 246.5> 572 144<529 564>
LayerCount: 2
Fore
SplineSet
273 -21 m 1xfc
 138 -8 67 59 67 170 c 0
 67 185 68 201 71 218 c 1
 217 218 l 1
 216 211 215 204 215 197 c 0
 215 132 268 97 356 97 c 0
 455 97 526 142 526 223 c 0xfc
 526 270 496 308 411 308 c 2
 309 308 l 1
 334 428 l 1
 410 428 l 2
 522 428 572 483 572 542 c 0
 572 586 531 621 463 621 c 0
 368 621 307 581 286 507 c 1
 146 507 l 1
 160 574 184 618 229 658 c 0
 289 712 377 741 482 741 c 0
 633 741 716 680 716 571 c 0xfa
 716 487 674 413 617 377 c 1
 658 352 677 317 677 268 c 0
 677 70 539 -12 360 -22 c 1
 373 -28 383 -35 395 -43 c 0
 437 -72 462 -115 462 -157 c 0
 462 -204 411 -233 328 -233 c 0
 304 -233 283 -230 251 -224 c 1
 241 -172 l 1
 261 -179 286 -183 312 -183 c 0
 345 -183 362 -169 362 -143 c 0
 362 -120 351 -95 328 -66 c 0
 313 -47 306 -41 273 -21 c 1xfc
EndSplineSet
EndChar

StartChar: uni0499
Encoding: 531 1177 424
Width: 556
Flags: W
HStem: -233 50<273 285.5 256 326.5> 208 110<271 339 247 360> 439 110<335.5 391.5>
VStem: 319 100<-156 -136 -180.5 -131.5> 410 145<136 174>
LayerCount: 2
Fore
SplineSet
316 -21 m 1xe8
 329 -28 340 -34 352 -43 c 0
 394 -72 419 -115 419 -157 c 0
 419 -204 368 -233 285 -233 c 0
 261 -233 240 -230 208 -224 c 1
 198 -172 l 1
 218 -179 243 -183 269 -183 c 0
 302 -183 319 -169 319 -143 c 0xf0
 319 -120 308 -95 285 -66 c 0
 270 -47 263 -41 230 -21 c 1
 115 -11 56 38 56 119 c 0
 56 131 57 143 60 157 c 1
 197 157 l 1
 197 149 l 2
 197 92 247 87 292 87 c 0
 365 87 410 109 410 163 c 0
 410 185 399 208 339 208 c 2
 247 208 l 1
 271 318 l 1
 360 318 l 2
 433 318 441 361 441 391 c 0
 441 416 414 439 369 439 c 0
 302 439 269 415 258 366 c 1
 123 366 l 1
 149 480 247 549 392 549 c 0
 512 549 580 496 580 409 c 0
 580 349 557 296 516 271 c 1
 542 252 555 229 555 196 c 0
 555 75 452 -8 316 -21 c 1xe8
EndSplineSet
EndChar

StartChar: uni049A
Encoding: 532 1178 425
Width: 720
Flags: MW
HStem: -20 20G<74 224 74 74 534 583 534 534> 709 20G<229 379 379 379 664 841 841 841>
LayerCount: 2
Fore
SplineSet
626 108 m 1
 736 108 l 1
 681 -150 l 1
 551 -150 l 1
 583 0 l 1
 534 0 l 1
 285 285 l 1
 224 0 l 1
 74 0 l 1
 229 729 l 1
 379 729 l 1
 320 450 l 1
 664 729 l 1
 841 729 l 1
 400 378 l 1
 626 108 l 1
EndSplineSet
EndChar

StartChar: uni049B
Encoding: 533 1179 426
Width: 529
Flags: MW
HStem: -20 20G<59 199 59 59 366 438 366 366> 520 20G<174 314 314 314 476 624 624 624>
LayerCount: 2
Fore
SplineSet
483 101 m 1
 569 101 l 1
 521 -125 l 1
 411 -125 l 1
 438 0 l 1
 366 0 l 1
 241 198 l 1
 199 0 l 1
 59 0 l 1
 174 540 l 1
 314 540 l 1
 274 351 l 1
 476 540 l 1
 624 540 l 1
 358 296 l 1
 483 101 l 1
EndSplineSet
EndChar

StartChar: uni049C
Encoding: 534 1180 427
Width: 720
Flags: MW
HStem: 0 21G<74 224 74 74 538 538 538 725> 709 20G<229 379 379 379 664 841 841 841>
LayerCount: 2
Fore
SplineSet
310 256 m 1
 285 285 l 1
 224 0 l 1
 74 0 l 1
 229 729 l 1
 379 729 l 1
 320 450 l 1
 358 481 l 1
 392 640 l 1
 502 640 l 1
 491 589 l 1
 664 729 l 1
 841 729 l 1
 456 422 l 1
 437 335 l 1
 725 0 l 1
 538 0 l 1
 399 157 l 1
 387 100 l 1
 277 100 l 1
 310 256 l 1
EndSplineSet
EndChar

StartChar: uni049D
Encoding: 535 1181 428
Width: 529
Flags: MW
HStem: 0 21G<59 199 59 59 366 366 366 548> 520 20G<174 314 314 314 476 624 624 624>
LayerCount: 2
Fore
SplineSet
261 166 m 1
 241 198 l 1
 199 0 l 1
 59 0 l 1
 174 540 l 1
 314 540 l 1
 274 351 l 1
 307 382 l 1
 335 511 l 1
 425 511 l 1
 420 487 l 1
 476 540 l 1
 624 540 l 1
 384 320 l 1
 374 271 l 1
 548 0 l 1
 366 0 l 1
 329 59 l 1
 324 38 l 1
 234 38 l 1
 261 166 l 1
EndSplineSet
EndChar

StartChar: uni049E
Encoding: 536 1182 429
Width: 720
Flags: MW
HStem: 0 21G<74 224 74 74 538 725 538 538> 582 80<142 198 125 215 365 425> 709 20G<229 379 379 379 664 841 841 841>
LayerCount: 2
Fore
SplineSet
365 662 m 1
 442 662 l 1
 425 582 l 1
 348 582 l 1
 320 450 l 1
 664 729 l 1
 841 729 l 1
 400 378 l 1
 725 0 l 1
 538 0 l 1
 285 285 l 1
 224 0 l 1
 74 0 l 1
 198 582 l 1
 125 582 l 1
 142 662 l 1
 215 662 l 1
 229 729 l 1
 379 729 l 1
 365 662 l 1
EndSplineSet
EndChar

StartChar: uni049F
Encoding: 537 1183 430
Width: 529
Flags: MW
HStem: 0 21G<59 199 59 59 366 548 366 366> 422 80<116 149 99 166 306 330> 520 20G<174 314 314 314 476 624 624 624>
LayerCount: 2
Fore
SplineSet
306 502 m 1
 347 502 l 1
 330 422 l 1
 289 422 l 1
 274 351 l 1
 476 540 l 1
 624 540 l 1
 358 296 l 1
 548 0 l 1
 366 0 l 1
 241 198 l 1
 199 0 l 1
 59 0 l 1
 149 422 l 1
 99 422 l 1
 116 502 l 1
 166 502 l 1
 174 540 l 1
 314 540 l 1
 306 502 l 1
EndSplineSet
EndChar

StartChar: uni04A0
Encoding: 538 1184 431
Width: 889
Flags: MW
HStem: 0 21G<243 243 243 393 707 707 707 894> 604 125<168 371 142 548>
LayerCount: 2
Fore
SplineSet
243 0 m 1
 371 604 l 1
 142 604 l 1
 168 729 l 1
 548 729 l 1
 489 450 l 1
 833 729 l 1
 1010 729 l 1
 569 378 l 1
 894 0 l 1
 707 0 l 1
 454 285 l 1
 393 0 l 1
 243 0 l 1
EndSplineSet
EndChar

StartChar: uni04A1
Encoding: 539 1185 432
Width: 650
Flags: MW
HStem: 0 21G<181 181 181 320 487 487 487 669> 427 113<124 271 100 435>
LayerCount: 2
Fore
SplineSet
181 0 m 1
 271 427 l 1
 100 427 l 1
 124 540 l 1
 435 540 l 1
 395 351 l 1
 597 540 l 1
 745 540 l 1
 479 296 l 1
 669 0 l 1
 487 0 l 1
 362 198 l 1
 320 0 l 1
 181 0 l 1
EndSplineSet
EndChar

StartChar: uni04A2
Encoding: 540 1186 433
Width: 722
Flags: MW
HStem: -20 20G<68 218 68 68 507 657 507 507> 311 125<311 573 284 599> 709 20G<223 373 373 373 661 812 812 812>
LayerCount: 2
Fore
SplineSet
679 108 m 1
 810 108 l 1
 755 -150 l 1
 625 -150 l 1
 657 0 l 1
 507 0 l 1
 573 311 l 1
 284 311 l 1
 218 0 l 1
 68 0 l 1
 223 729 l 1
 373 729 l 1
 311 436 l 1
 599 436 l 1
 661 729 l 1
 812 729 l 1
 679 108 l 1
EndSplineSet
EndChar

StartChar: uni04A3
Encoding: 541 1187 434
Width: 636
Flags: MW
HStem: -20 20G<60 200 60 60 403 543 403 403> 237 115<275 456 253 478> 520 20G<175 315 315 315 518 658 658 658>
LayerCount: 2
Fore
SplineSet
564 101 m 1
 674 101 l 1
 626 -125 l 1
 516 -125 l 1
 543 0 l 1
 403 0 l 1
 456 237 l 1
 253 237 l 1
 200 0 l 1
 60 0 l 1
 175 540 l 1
 315 540 l 1
 275 352 l 1
 478 352 l 1
 518 540 l 1
 658 540 l 1
 564 101 l 1
EndSplineSet
EndChar

StartChar: uni04A4
Encoding: 542 1188 435
Width: 992
Flags: MW
HStem: 0 21G<68 218 68 68 507 655 507 507> 311 125<311 573 284 599> 604 125<783 1095 783 783>
LayerCount: 2
Fore
SplineSet
655 0 m 1
 507 0 l 1
 573 311 l 1
 284 311 l 1
 218 0 l 1
 68 0 l 1
 223 729 l 1
 373 729 l 1
 311 436 l 1
 599 436 l 1
 660 729 l 1
 1122 729 l 1
 1095 604 l 1
 783 604 l 1
 655 0 l 1
EndSplineSet
EndChar

StartChar: uni04A5
Encoding: 543 1189 436
Width: 807
Flags: MW
HStem: 0 21G<60 200 60 60 403 542 403 403> 237 115<275 456 253 478> 427 113<633 831 633 633>
LayerCount: 2
Fore
SplineSet
542 0 m 1
 403 0 l 1
 456 237 l 1
 253 237 l 1
 200 0 l 1
 60 0 l 1
 175 540 l 1
 315 540 l 1
 275 352 l 1
 478 352 l 1
 517 540 l 1
 855 540 l 1
 831 427 l 1
 633 427 l 1
 542 0 l 1
EndSplineSet
EndChar

StartChar: uni04A6
Encoding: 544 1190 437
Width: 1067
Flags: MW
HStem: -166 107<762 817 817 844 740 817> 0 21G<68 218 68 68 507 658 507 507 903 903 1053 1053> 330 125<754 871 728 898> 604 125<346 635 346 346>
LayerCount: 2
Fore
SplineSet
812 729 m 1
 754 455 l 1
 898 455 l 2
 1051 455 1107 390 1107 289 c 0
 1107 266 1104 241 1099 215 c 2
 1053 0 l 2
 1033 -92 997 -166 844 -166 c 2
 740 -166 l 1
 762 -59 l 1
 817 -59 l 2
 884 -59 896 -34 903 0 c 2
 951 224 l 2
 954 241 957 257 957 271 c 0
 957 307 938 330 871 330 c 2
 728 330 l 1
 658 0 l 1
 507 0 l 1
 635 604 l 1
 346 604 l 1
 218 0 l 1
 68 0 l 1
 223 729 l 1
 812 729 l 1
EndSplineSet
EndChar

StartChar: uni04A7
Encoding: 545 1191 438
Width: 876
Flags: MW
HStem: -132 88<624 647.5 624 687 606 647.5> 0 21G<60 200 60 60 403 543 403 403 832 832> 187 112<609 657 583 717> 427 113<291 494 291 291>
LayerCount: 2
Fore
SplineSet
609 299 m 1
 717 299 l 2
 804 299 862 246 862 167 c 0
 862 149 860 131 856 112 c 2
 832 0 l 2
 816 -75 774 -132 687 -132 c 2
 606 -132 l 1
 624 -44 l 1
 671 -44 685 -26 695 22 c 1
 713 94 l 1
 717 115 718 115 718 128 c 0
 718 177 685 187 657 187 c 2
 583 187 l 1
 543 0 l 1
 403 0 l 1
 494 427 l 1
 291 427 l 1
 200 0 l 1
 60 0 l 1
 175 540 l 1
 658 540 l 1
 609 299 l 1
EndSplineSet
EndChar

StartChar: uni04A8
Encoding: 546 1192 439
Width: 837
Flags: MW
HStem: -23 126<353 404> 613 128<440 538>
VStem: 106 151<212.5 358 212.5 382.5>
LayerCount: 2
Fore
SplineSet
398 103 m 0
 429 103 457 110 481 122 c 1
 462 156 450 196 450 242 c 0
 450 354 528 456 630 456 c 0
 699 456 754 398 754 330 c 0
 754 250 724 176 674 117 c 1
 691 106 710 96 730 86 c 1
 642 -22 l 1
 615 -7 589 10 566 28 c 1
 508 -4 440 -23 368 -23 c 0
 201 -23 106 77 106 243 c 0
 106 522 295 741 534 741 c 0
 643 741 724 700 765 626 c 0
 780 598 787 570 787 535 c 0
 787 519 785 501 783 482 c 1
 640 482 l 1
 639 521 635 540 624 560 c 0
 603 595 564 613 512 613 c 0
 368 613 257 452 257 264 c 0
 257 161 308 103 398 103 c 0
586 218 m 1
 611 256 624 295 624 316 c 0
 624 327 621 340 610 340 c 0
 586 340 576 310 576 282 c 0
 576 258 580 237 586 218 c 1
EndSplineSet
EndChar

StartChar: uni04A9
Encoding: 547 1193 440
Width: 554
Flags: MW
HStem: -23 113<277 303> 436 113<359 407.5>
VStem: 77 143<163 234 163 274.5> 458 137<338 431>
LayerCount: 2
Fore
SplineSet
306 90 m 0
 316 90 327 92 338 94 c 1
 325 117 318 142 318 168 c 0
 318 258 387 314 466 314 c 0
 518 314 566 280 566 226 c 0
 566 175 543 127 509 88 c 1
 522 81 535 75 549 69 c 1
 490 -27 l 1
 465 -16 439 -3 416 13 c 1
 372 -10 325 -23 281 -23 c 0
 149 -23 77 52 77 173 c 0
 77 376 218 549 404 549 c 0
 525 549 595 485 595 377 c 0
 595 365 594 352 592 338 c 1
 458 338 l 1
 457 409 436 436 379 436 c 0
 339 436 305 420 282 390 c 0
 250 348 220 271 220 197 c 0
 220 129 248 90 306 90 c 0
432 155 m 1
 447 174 456 194 456 213 c 0
 456 223 455 236 446 236 c 0
 433 236 422 210 422 195 c 0
 422 181 425 168 432 155 c 1
EndSplineSet
EndChar

StartChar: uni04AA
Encoding: 548 1194 441
Width: 837
Flags: MW
HStem: -233 50<366 378.5 349 419.5> 613 128<440 538>
VStem: 106 151<212.5 358 212.5 382.5> 412 100<-156 -136 -180.5 -131.5>
LayerCount: 2
Fore
SplineSet
322 -20 m 1
 184 -3 106 93 106 243 c 0
 106 522 295 741 534 741 c 0
 643 741 724 700 765 626 c 0
 780 598 787 570 787 535 c 0
 787 519 785 501 783 482 c 1
 640 482 l 1
 639 521 635 540 624 560 c 0
 603 595 564 613 512 613 c 0
 368 613 257 452 257 264 c 0
 257 161 308 103 398 103 c 0
 491 103 562 156 591 249 c 1
 737 249 l 1
 695 95 570 -7 409 -21 c 1
 422 -28 433 -34 445 -43 c 0
 487 -72 512 -115 512 -157 c 0
 512 -204 461 -233 378 -233 c 0
 354 -233 333 -230 301 -224 c 1
 291 -172 l 1
 311 -179 336 -183 362 -183 c 0
 395 -183 412 -169 412 -143 c 0
 412 -120 401 -95 378 -66 c 0
 363 -47 356 -41 322 -20 c 1
EndSplineSet
EndChar

StartChar: uni04AB
Encoding: 549 1195 442
Width: 554
Flags: MW
HStem: -233 50<281 293.5 264 334.5> 436 113<359 407.5>
VStem: 77 143<163 234 163 274.5> 327 100<-156 -136 -180.5 -131.5> 458 137<338 431>
LayerCount: 2
Fore
SplineSet
236 -20 m 1
 133 -4 77 67 77 173 c 0
 77 376 218 549 404 549 c 0
 525 549 595 485 595 377 c 0
 595 365 594 352 592 338 c 1
 458 338 l 1
 457 409 436 436 379 436 c 0
 339 436 305 420 282 390 c 0
 250 348 220 271 220 197 c 0
 220 129 248 90 306 90 c 0
 360 90 393 117 426 187 c 1
 560 187 l 1
 524 72 434 -5 322 -20 c 1
 336 -27 347 -34 360 -43 c 0
 402 -72 427 -115 427 -157 c 0
 427 -204 376 -233 293 -233 c 0
 269 -233 248 -230 216 -224 c 1
 206 -172 l 1
 226 -179 251 -183 277 -183 c 0
 310 -183 327 -169 327 -143 c 0
 327 -120 316 -95 293 -66 c 0
 278 -47 271 -41 236 -20 c 1
EndSplineSet
EndChar

StartChar: uni04AC
Encoding: 550 1196 443
Width: 611
Flags: MW
HStem: -20 20G<235 385 235 235> 604 125<169 363 142 753 513 513 513 726>
LayerCount: 2
Fore
SplineSet
407 108 m 1
 538 108 l 1
 483 -150 l 1
 353 -150 l 1
 385 0 l 1
 235 0 l 1
 363 604 l 1
 142 604 l 1
 169 729 l 1
 753 729 l 1
 726 604 l 1
 513 604 l 1
 407 108 l 1
EndSplineSet
EndChar

StartChar: uni04AD
Encoding: 551 1197 444
Width: 454
Flags: MW
HStem: -20 20G<145 285 145 145> 427 113<125 236 101 535 376 376 376 511>
VStem: 101 434<427 540>
LayerCount: 2
Fore
SplineSet
306 101 m 1
 416 101 l 1
 368 -125 l 1
 258 -125 l 1
 285 0 l 1
 145 0 l 1
 236 427 l 1
 101 427 l 1
 125 540 l 1
 535 540 l 1
 511 427 l 1
 376 427 l 1
 306 101 l 1
EndSplineSet
EndChar

StartChar: uni04AE
Encoding: 552 1198 445
Width: 667
Flags: MW
HStem: 0 21G<269 419 269 269> 709 20G<182 349 349 349 638 805 805 805>
LayerCount: 2
Fore
SplineSet
477 270 m 1
 419 0 l 1
 269 0 l 1
 327 270 l 1
 182 729 l 1
 349 729 l 1
 431 414 l 1
 638 729 l 1
 805 729 l 1
 477 270 l 1
EndSplineSet
EndChar

StartChar: uni04AF
Encoding: 553 1199 446
Width: 667
Flags: MW
HStem: 520 20G<160 327 327 327 555 723 723 723>
LayerCount: 2
Fore
SplineSet
457 81 m 1
 419 -189 l 1
 269 -189 l 1
 307 81 l 1
 160 540 l 1
 327 540 l 1
 401 218 l 1
 555 540 l 1
 723 540 l 1
 457 81 l 1
EndSplineSet
EndChar

StartChar: uni04B0
Encoding: 554 1200 447
Width: 667
Flags: MW
HStem: 0 21G<272 422 272 272> 145 104<124 302 102 324 474 652> 709 20G<182 349 349 349 637 805 805 805>
LayerCount: 2
Fore
SplineSet
302 145 m 1
 102 145 l 1
 124 249 l 1
 324 249 l 1
 328 270 l 1
 182 729 l 1
 349 729 l 1
 431 407 l 1
 637 729 l 1
 805 729 l 1
 478 270 l 1
 474 249 l 1
 674 249 l 1
 652 145 l 1
 452 145 l 1
 422 0 l 1
 272 0 l 1
 302 145 l 1
EndSplineSet
EndChar

StartChar: uni04B1
Encoding: 555 1201 448
Width: 667
Flags: MW
HStem: -23 104<108 294 94 308 458 644> 520 20G<160 327 327 327 555 723 723 723>
LayerCount: 2
Fore
SplineSet
444 -23 m 1
 420 -189 l 1
 270 -189 l 1
 294 -23 l 1
 94 -23 l 1
 108 81 l 1
 308 81 l 1
 160 540 l 1
 327 540 l 1
 401 218 l 1
 555 540 l 1
 723 540 l 1
 458 81 l 1
 658 81 l 1
 644 -23 l 1
 444 -23 l 1
EndSplineSet
EndChar

StartChar: uni04B2
Encoding: 556 1202 449
Width: 664
Flags: MW
HStem: -20 20G<22 196 22 22 475 523 475 475> 709 20G<185 363 363 363 625 799 799 799>
LayerCount: 2
Fore
SplineSet
608 108 m 1
 676 108 l 1
 621 -150 l 1
 491 -150 l 1
 523 0 l 1
 475 0 l 1
 389 253 l 1
 196 0 l 1
 22 0 l 1
 330 367 l 1
 185 729 l 1
 363 729 l 1
 440 489 l 1
 625 729 l 1
 799 729 l 1
 498 372 l 1
 608 108 l 1
EndSplineSet
EndChar

StartChar: uni04B3
Encoding: 557 1203 450
Width: 554
Flags: MW
HStem: -20 20G<16 184 16 16 367 426 367 367> 520 20G<135 303 303 303 478 646 646 646>
LayerCount: 2
Fore
SplineSet
489 101 m 1
 557 101 l 1
 509 -125 l 1
 399 -125 l 1
 426 0 l 1
 367 0 l 1
 312 168 l 1
 184 0 l 1
 16 0 l 1
 254 272 l 1
 135 540 l 1
 303 540 l 1
 356 377 l 1
 478 540 l 1
 646 540 l 1
 413 272 l 1
 489 101 l 1
EndSplineSet
EndChar

StartChar: uni04B4
Encoding: 558 1204 451
Width: 864
Flags: MW
HStem: 0 125<379 668 379 801> 604 125<167 331 142 689 481 664 481 481>
LayerCount: 2
Fore
SplineSet
481 604 m 1
 379 125 l 1
 668 125 l 1
 796 729 l 1
 946 729 l 1
 814 108 l 1
 954 108 l 1
 899 -150 l 1
 769 -150 l 1
 801 0 l 1
 203 0 l 1
 331 604 l 1
 142 604 l 1
 167 729 l 1
 689 729 l 1
 664 604 l 1
 481 604 l 1
EndSplineSet
EndChar

StartChar: uni04B5
Encoding: 559 1205 452
Width: 727
Flags: MW
HStem: 0 113<289 492 289 618> 427 113<125 216 101 495 356 471 356 356>
LayerCount: 2
Fore
SplineSet
356 427 m 1
 289 113 l 1
 492 113 l 1
 583 540 l 1
 723 540 l 1
 629 101 l 1
 749 101 l 1
 701 -125 l 1
 591 -125 l 1
 618 0 l 1
 125 0 l 1
 216 427 l 1
 101 427 l 1
 125 540 l 1
 495 540 l 1
 471 427 l 1
 356 427 l 1
EndSplineSet
EndChar

StartChar: uni04B6
Encoding: 560 1206 453
Width: 743
Flags: MW
HStem: -20 20G<456 616 456 456> 274 125<293.5 540 397 514> 709 20G<215 365 365 365 610 761 761 761>
LayerCount: 2
Fore
SplineSet
629 108 m 1
 769 108 l 1
 714 -150 l 1
 584 -150 l 1
 616 0 l 1
 456 0 l 1
 514 274 l 1
 370 274 l 2
 217 274 161 339 161 440 c 0
 161 463 164 488 169 514 c 2
 215 729 l 1
 365 729 l 1
 317 505 l 2
 314 488 311 472 311 458 c 0
 311 422 330 399 397 399 c 2
 540 399 l 1
 610 729 l 1
 761 729 l 1
 629 108 l 1
EndSplineSet
EndChar
